<?xml version="1.0" standalone="no"?>
<!DOCTYPE svg PUBLIC "-//W3C//DTD SVG 1.1//EN" "http://www.w3.org/Graphics/SVG/1.1/DTD/svg11.dtd" >
<svg>
<metadata>
Created by FontForge 20120731 at Mon Jun 27 17:09:37 2016
 By www-data
KNU is a font. Generated by Lawplah Minn Fontographer 3.5 in BRC. 
</metadata>
<defs>
<font id="Karen-Normal" horiz-adv-x="10" >
  <font-face 
    font-family="KNU"
    font-weight="400"
    font-stretch="normal"
    units-per-em="1000"
    panose-1="0 0 0 0 0 0 0 0 0 0"
    ascent="800"
    descent="-200"
    x-height="330"
    cap-height="130"
    bbox="-632 -340 994 730"
    underline-thickness="20"
    underline-position="-294"
    unicode-range="U+0020-2122"
  />
<missing-glyph horiz-adv-x="730" 
d="M45 0v730h640v-730h-640zM640 45v640h-550v-640h550z" />
    <glyph glyph-name=".notdef" horiz-adv-x="730" 
d="M45 0v730h640v-730h-640zM640 45v640h-550v-640h550z" />
    <glyph glyph-name=".null" horiz-adv-x="0" 
 />
    <glyph glyph-name="nonmarkingreturn" horiz-adv-x="0" 
 />
    <glyph glyph-name="space" unicode=" " horiz-adv-x="0" 
 />
    <glyph glyph-name="exclam" unicode="!" horiz-adv-x="726" 
d="M84 18v-193l2 -36q3 -12 11 -20t25 -15l37 -4h100q6 0 13 -6t7 -14q-3 -9 -6 -13t-14 -7h-100q-25 0 -49 6q-22 3 -38 21t-24 42l-4 46v219q0 9 8.5 18.5t21.5 12.5q15 0 27 -19q32 -36 88 -36h8q31 0 64 18q26 13 50 46q21 32 21 65v4v4v7q0 51 -40 88.5t-95 37.5
q-30 0 -60.5 -15.5t-45.5 -33.5q0 -12 -11 -13q-9 0 -18.5 7.5t-9.5 16.5t9 15q21 24 58.5 43.5t77.5 19.5q46 0 82 -20q36 -18 64 -55l18 -38l10 -41l1 -6v-5v-4v-4q0 -30 9 -54.5t29 -41.5q41 -41 96 -41q52 0 93 39t41 98q0 57 -39 96t-105 39l-17 -2l-9 -2q-9 0 -13 7
q-6 6 -6 14q0 9 12 17l28 6l19 1q67 0 120 -53q23 -23 36.5 -54.5t13.5 -68.5q0 -71 -51.5 -124t-122.5 -53t-124 53q-20 18 -30 43q-21 -43 -64 -69.5t-91 -26.5q-43 0 -80 17q-18 9 -33 21z" />
    <glyph glyph-name="quotedbl" unicode="&#x22;" horiz-adv-x="440" 
d="M220 330q46 0 85 -22.5t65 -64t26 -87.5q0 -47 -23 -86q-21 -40 -63.5 -65t-89.5 -25q-46 0 -85.5 23.5t-64 65t-24.5 87.5q0 49 23 89t63.5 62.5t87.5 22.5zM316 60q-31 52 -98 52q-30 0 -54.5 -15.5t-37.5 -38.5q22 -22 45 -31l22 -5l27 -2q27 0 51.5 9t44.5 31z
M219 146q38 0 66 -17q32 -15 51 -43q20 32 20 70q0 32 -18 67q-18 30 -49 48.5t-69 18.5q-57 0 -95.5 -40t-38.5 -94q0 -37 19 -69q12 18 42 36q38 23 72 23z" />
    <glyph glyph-name="numbersign" unicode="#" horiz-adv-x="114" 
d="M-238 -292h-54q-24 0 -24 19t22 19l60 1q34 0 54 17q20 15 20 46v190q0 22 19 22q7 0 15 -5q6 -6 6 -14v-187l144 -60v556q0 6 6 13t14 7q9 -3 13 -6t7 -14v-582q0 -19 -25 -19l-167 65q-9 -68 -110 -68z" />
    <glyph glyph-name="dollar" unicode="$" horiz-adv-x="224" 
d="M112 134q27 0 47 -20q20 -18 20 -46q0 -27 -20 -47q-18 -21 -47 -21q-25 0 -46 20q-20 22 -20 48q0 15 8 29t24 27q17 10 34 10zM112 40q9 0 18 9t9 19q0 9 -6.5 16t-20.5 10q-12 0 -17.5 -5.5t-8.5 -20.5q0 -10 8.5 -19t17.5 -9z" />
    <glyph glyph-name="percent" unicode="%" horiz-adv-x="438" 
d="M85 153q0 -52 40 -92q25 -25 44 -33l24 -8l23 -2q0 67 -31 102q-10 11 -38.5 22t-61.5 11zM88 177q80 0 119 -41t39 -98q0 -22 -6 -39.5t-20 -18.5q-39 0 -66 11.5t-57 41.5q-51 51 -51 123t51.5 123.5t122.5 51.5t123 -52q15 -13 24 -29l16 -33q4 -15 7 -35.5t3 -41.5
v-285q0 -7 -6.5 -13.5t-13.5 -6.5q-20 0 -20 20v285l-1 27q0 16 -7 36q-6 25 -27.5 46t-45.5 31.5t-52 10.5q-54 0 -95 -40q-30 -30 -37 -74z" />
    <glyph glyph-name="ampersand" unicode="&#x26;" horiz-adv-x="475" 
d="M92 142q5 -48 36 -81q7 -7 20.5 -17t21.5 -15q21 -7 48 -7l2 24q0 46 -26 72q-12 14 -33 21l-22 5l-22 2q-17 0 -25 -4zM90 174q84 0 119 -36q40 -43 40 -100q0 -22 -6 -39.5t-20 -18.5q-39 0 -66 11.5t-57 41.5q-51 51 -51 123t51.5 123.5t122.5 51.5t123 -52
q15 -13 24 -29l16 -33q4 -15 7 -35.5t3 -41.5v-390h51q6 0 13 -6t7 -14q-3 -9 -6 -13t-14 -7h-71q-20 0 -20 20v410q0 37 -5.5 57.5t-11.5 29.5l-21 24q-40 40 -95 40q-54 0 -95 -40q-27 -27 -38 -77z" />
    <glyph glyph-name="quotesingle" unicode="'" horiz-adv-x="440" 
d="M93 96q4 0 10 -13q15 -34 27.5 -41.5t37 -14.5t41.5 -7q15 0 38 10q7 3 20 10q-1 4 -25 30q-14 15 -25.5 35t-12.5 23q-6 14 -6 28q0 8 2 19.5t10 26t17 28.5q8 16 22 25t22 25q-8 3 -12 4q-31 12 -45 12q-57 0 -96 -40q-14 -14 -18.5 -24t-8.5 -32q-2 -5 -19 -5
q-11 0 -21.5 3t-9.5 8q3 13 8 22q9 14 14 22q23 41 63.5 63.5t87.5 22.5q46 0 86 -23q19 -11 33.5 -31.5t21.5 -47.5q1 -5 -7.5 -5.5t-18.5 -0.5q-4 5 -10 14q-14 20 -18 18q-26 -12 -47 -34q-26 -28 -29 -58q0 -17 23 -51t43 -51q9 -8 21.5 3.5t21.5 38.5q2 5 13 5
q6 0 10.5 -1t3.5 -4q-10 -38 -18.5 -54t-31.5 -40q-14 -15 -41.5 -21.5t-55.5 -6.5q-24 0 -56.5 7.5t-50.5 18t-33.5 36.5t-28.5 50q0 -1 9 -2t12 -1h15t12 1z" />
    <glyph glyph-name="parenleft" unicode="(" horiz-adv-x="280" 
d="M230 615q-144 -134 -144 -385l1 -68l8 -63q6 -46 22 -95q8 -24 18.5 -45.5t25.5 -42.5q27 -39 67 -70q6 -4 8 -15l-6 -14q-6 -6 -14 -7q-8 0 -12 4q-57 45 -92 107.5t-52 141.5q-14 81 -14 167q0 266 156 415q6 6 13 6q5 0 11.5 -5.5t9.5 -16.5q0 -5 -6 -14z" />
    <glyph glyph-name="parenright" unicode=")" horiz-adv-x="280" 
d="M80 645q156 -146 156 -415q0 -87 -15 -165.5t-48 -140.5t-95 -110l-12 -5q-6 0 -13 6.5t-7 15.5q0 10 8 15q39 30 67 70q15 21 25 41l19 47q17 50 24 103l5 57l2 66q0 248 -144 385q-6 5 -6 14q1 3 2 5.5t5.5 9.5t13.5 7q3 -1 5.5 -1.5t7.5 -4.5z" />
    <glyph glyph-name="asterisk" unicode="*" horiz-adv-x="440" 
d="M297 14q22 22 37 61.5t15 78.5q0 17 -2 23q0 9 -6.5 30.5t-27.5 41.5t-46.5 30t-53.5 10q-50 0 -91 -36q-19 -16 -32 -50q-8 -30 -10 -49q0 -81 54 -140q6 -6 6 -13q0 -6 -5.5 -12t-16.5 -9q-5 0 -14 6q-64 70 -64 168q0 22 12 59.5t42 69.5q52 46 119 46q72 0 128 -50
q48 -47 48 -125q0 -49 -17 -92q-15 -43 -45 -76q-5 -6 -14 -6q-7 0 -14 6.5t-8 14.5q1 3 2 5.5t4 7.5z" />
    <glyph glyph-name="plus" unicode="+" 
d="M-247 -10v-260q0 -20 -20 -20h-85q-20 0 -20 20q1 3 1.5 5.5t4.5 8t14 6.5h65v240q0 7 6.5 13.5t13.5 6.5q3 -1 5.5 -1.5t8 -4.5t6.5 -14zM-147 -10v-240h65q6 0 14 -6l5 -14q0 -20 -19 -20h-85q-20 0 -20 20v260q0 7 6.5 13.5t13.5 6.5q3 -1 5.5 -1.5t8 -4.5t6.5 -14z
" />
    <glyph glyph-name="comma" unicode="," horiz-adv-x="752" 
d="M395 178q-9 102 -83 149l-10 3q-6 0 -14 -7l-5 -14q0 -7 9 -16q27 -15 45.5 -49t18.5 -72v-4v-7v-7v-11q0 -7 -2 -13l-6 -19l-12 -24q-18 -30 -48.5 -48.5t-66.5 -18.5q-35 0 -67 19.5t-50.5 52t-18.5 69.5q0 36 18 72t54 60q9 6 9 16l-6 14q-6 6 -14 7l-11 -3
q-42 -27 -66 -74.5t-24 -91.5q0 -12 1 -23.5t4.5 -26.5t17.5 -39q23 -40 64 -66t89 -26q28 0 48 7q23 6 44 20q41 26 63 69q13 -24 31 -44q51 -53 125 -53q68 0 121 51t53 126q0 72 -52 125q-25 26 -60.5 39t-79.5 13l-25 -5q-12 -5 -12 -18q0 -20 26 -20l16 3
q66 0 106.5 -39.5t40.5 -97.5q0 -57 -40 -97t-94 -40q-56 0 -97 41q-15 15 -29 43q-10 30 -10 58v9v5z" />
    <glyph glyph-name="hyphen" unicode="-" horiz-adv-x="155" 
d="M859 31v-174q0 -52 -35 -96q-18 -21 -49.5 -36t-64.5 -15h-497q-67 0 -108 43.5t-41 108.5v640q0 61 38 102q43 46 110 46h489q35 0 66 -18t50 -43q23 -34 23 -83v-11q0 -19 -20 -19t-20 19v11v16l-4 15q-5 22 -11 28q-9 15 -33.5 30t-50.5 15h-489q-51 0 -79.5 -31.5
t-28.5 -76.5v-640q0 -25 7 -42q6 -19 25 -39q31 -31 77 -31h497q24 0 48 12q22 9 36.5 28t19.5 32t5 35v174q0 19 17 19q16 0 23 -19z" />
    <glyph glyph-name="period" unicode="." horiz-adv-x="440" 
d="M297 307q41 -21 63.5 -62.5t22.5 -87.5q0 -26 -5 -46t-18 -41q-21 -40 -63.5 -65t-88.5 -25q-66 0 -113 34v-293q3 -26 -16 -26q-9 0 -15 6t-9 20v322q0 23 25 23l9 -1l6 -1q35 -44 113 -44q36 0 66.5 18.5t49.5 50t19 68.5q0 32 -16.5 65.5t-49.5 49.5q-32 18 -69 18
q-28 0 -59.5 -14.5t-45.5 -34.5q-8 -11 -25 -11q-22 0 -22 15q0 8 17 22q21 24 58 43q24 9 49 18q-8 4 -19 7q-20 7 -42.5 18t-36.5 26t-31 52q-5 9 -6 16t-1 16q1 17 1 24q0 17 8.5 38.5t19.5 40.5l21 28q11 13 29 23q31 20 69 20q43 0 75 -23q16 -10 38 -37t31 -47
q0 -7 -7 -7q-4 0 -15 3t-15 3q-12 0 -19 10l-9 15l-15 17q-9 11 -27.5 18.5t-36.5 7.5q-27 0 -46.5 -11.5t-35.5 -36t-19 -30.5q-6 -12 -8 -24t-2 -17q0 -10 4.5 -24t8.5 -27t15 -24t34 -24q1 -1 67 -29q26 -11 37 -18z" />
    <glyph glyph-name="slash" unicode="/" horiz-adv-x="440" 
d="M378 567q-35 -16 -56 -16q-29 0 -53 15q-17 13 -23 45q3 32 24 48l16 9q18 7 36 7q30 0 54 -18t30 -50q0 -63 -36 -99.5t-108 -48.5v16h11q6 0 14 2l32 15q26 15 42.5 36.5t16.5 38.5zM182 567q-34 -16 -56 -16q-29 0 -53 15q-17 13 -23 45q3 32 24 48l16 9q18 7 36 7
q29 0 53.5 -17.5t30.5 -50.5q0 -63 -36 -99.5t-108 -48.5v16h11q6 0 14 2l32 15q26 15 42.5 36.5t16.5 38.5z" />
    <glyph glyph-name="zero" unicode="0" horiz-adv-x="440" 
d="M219 330q46 0 85 -22.5t65 -64t26 -87.5q0 -47 -23 -86q-21 -40 -63.5 -65t-89.5 -25q-46 0 -85.5 23.5t-64 65t-24.5 87.5q0 49 23 89t63.5 62.5t87.5 22.5zM219 20q39 0 70 20t48.5 50t17.5 66q0 35 -18 64.5t-51 49.5q-16 10 -32.5 15t-34.5 5q-57 0 -95.5 -40
t-38.5 -94q0 -35 17.5 -65.5t49.5 -51.5q32 -19 67 -19z" />
    <glyph glyph-name="one" unicode="1" horiz-adv-x="418" 
d="M92 66q31 -46 106 -46q36 0 66.5 18.5t49.5 50t19 67.5q0 34 -17 64t-49 52q-32 19 -69 19q-28 0 -61 -15l-28 -17l-18 -18q-10 -10 -27 -13q-17 0 -17 15q0 10 14 24q23 26 60.5 45t76.5 19q46 0 88 -24q42 -22 64 -64q23 -40 23 -87t-23 -86q-21 -40 -63.5 -65
t-88.5 -25q-44 0 -79 17q-35 13 -59 45q-15 11 -15 25q0 6 4.5 10.5t14.5 7.5q15 0 28 -19z" />
    <glyph glyph-name="two" unicode="2" horiz-adv-x="368" 
d="M323 310v-445q0 -51 -21.5 -85t-54 -52t-62.5 -18h-12q-7 0 -13 2q-7 0 -25 7q-16 4 -40 19.5t-37 34t-13 39.5q0 8 9 16l16 5q15 0 15 -19q0 -22 35.5 -43t64.5 -21q30 0 64 29.5t34 85.5v445q0 6 6 13t14 7q9 -3 13 -6t7 -14z" />
    <glyph glyph-name="three" unicode="3" horiz-adv-x="418" 
d="M91 241q-6 -14 -20 -14q-5 0 -14 6q-5 5 -7 15q0 11 11 19q18 21 56.5 42.5t80.5 21.5q46 0 88 -24q42 -22 64 -64q23 -40 23 -87t-23 -86q-21 -40 -63.5 -65t-88.5 -25q-38 0 -76 13l168 -252l4 -12q0 -9 -7 -13q-6 -6 -15 -6q-7 0 -16 9l-208 312q0 36 23 36
q11 0 21 -7q28 -40 106 -40q36 0 66.5 18.5t49.5 50t19 67.5q0 34 -17 64t-49 52q-32 19 -69 19q-28 0 -61 -15l-28 -17z" />
    <glyph glyph-name="four" unicode="4" horiz-adv-x="418" 
d="M299 -6q-26 -14 -79 -14q-43 0 -88 24q-41 24 -64 65t-23 87q0 47 21.5 86t63.5 65q42 24 90 24q41 0 76.5 -18t60.5 -46q7 -7 7 -20q0 -7 -4 -12.5t-12 -8.5q-9 0 -21 15l-19 17l-28 18q-29 15 -60 15q-36 0 -68.5 -18t-49.5 -49.5t-17 -67.5t18 -66.5t49 -50.5
q17 -9 33.5 -14t34.5 -5q31 0 60.5 12t45.5 34l-2 -3q8 9 17 9q13 0 21 -10.5t8 -29.5l-208 -313q-6 -9 -16 -9q-7 0 -14.5 6.5t-7.5 13.5q0 6 4 11z" />
    <glyph glyph-name="five" unicode="5" horiz-adv-x="440" 
d="M147 128q8 8 11 27q0 17 -12 29q-9 11 -24 14q-14 0 -26 -6q-18 -11 -18 -29l2 -11l3 -8l3 -9l5 -7q10 -8 28 -11q17 0 28 11zM104 233l22 3q30 0 54 -24q18 -18 18 -56q0 -30 -23 -56q-23 -23 -56 -23q-30 0 -56 23q-24 24 -24 56q0 44 24 88q24 37 64.5 61.5t87.5 24.5
q43 0 83.5 -23.5t66 -64.5t25.5 -87v-270q0 -43 -23.5 -83.5t-64.5 -66t-87 -25.5t-85.5 21.5t-64.5 64t-25 89.5q0 19 20 19q6 0 12 -4t8 -15q0 -37 18 -68t51 -49q30 -18 66 -18q37 0 66 19q31 18 51 49q18 32 18 67v270q0 35 -18.5 65t-50.5 51q-33 19 -66 19
t-62.5 -15.5t-48.5 -41.5z" />
    <glyph glyph-name="six" unicode="6" horiz-adv-x="440" 
d="M235 281q-8 -8 -11 -27q0 -18 11 -29t29 -11q15 0 27 12t12 27q0 14 -10.5 26.5t-29.5 12.5q-17 0 -28 -11zM318 194l66 -23q6 -2 6 -16q0 -45 -24 -87q-24 -39 -63.5 -63.5t-87.5 -24.5q-45 0 -87 24q-39 24 -63.5 64.5t-24.5 86.5v270q0 45 23.5 85t64.5 66
q41 24 87 24t86 -23q39 -20 64 -63t25 -89q0 -19 -20 -19t-20 19q0 36 -18 68t-50 49q-30 18 -67 18q-32 0 -67 -18q-30 -18 -49 -50t-19 -67v-270q0 -34 18 -67q18 -28 50 -50q30 -18 67 -18q35 0 62.5 15t46.5 42.5t25 63.5l-95 33q-23 3 -50 27q-20 20 -20 52q0 30 23 56
q23 23 56 23t56.5 -23t23.5 -56t-25 -59z" />
    <glyph glyph-name="seven" unicode="7" horiz-adv-x="400" 
d="M358 -202q0 -19 -6.5 -34t-21.5 -27q-23 -23 -57 -23h-8q-18 0 -31 5q-13 3 -26 13q-39 24 -39 80v9q0 28 9 55l13 29q18 36 60 89q27 34 53 76l7 13l7 25q6 18 6 40l-1 34q0 11 -6.5 31t-28.5 43q-42 36 -92 36q-25 0 -45 -9.5t-45 -28.5q-26 -31 -38 -90
q-3 -23 -17 -26q-12 0 -19 22q0 75 46 122q21 24 54 37t64 13q74 0 120 -52q48 -44 48 -132q0 -51 -18 -87l-23 -38l-33 -43l-35 -44l-25 -39l-16 -40q-6 -23 -6 -45q0 -34 26 -50q13 -8 33 -8q48 0 48 48q0 10 5.5 16t13.5 6q15 0 24 -26z" />
    <glyph glyph-name="eight" unicode="8" horiz-adv-x="440" 
d="M102 226q49 -15 75 -56q27 -39 27 -107q0 -22 -5 -33q-3 -12 -12 -27q-13 -22 -38 -22l-8 1l-10 1q-41 24 -66 69t-25 97q0 48 22.5 89t63 66.5t89.5 25.5t87.5 -25t65.5 -66q23 -43 23 -90q0 -42 -24 -88t-66 -78l-11 -3q-6 0 -13 6.5t-7 14.5q0 7 9 16q8 5 15 11
t13.5 12.5t11.5 14t13 21.5q19 40 19 73q0 34 -18 70q-20 32 -51.5 51.5t-66.5 19.5q-21 0 -37 -5t-29 -13q-28 -13 -47 -46zM89 200q-9 -23 -9 -51q0 -37 22.5 -75t52.5 -57l3 3l9 15q5 10 5 38l-1 18l-3 27q-21 63 -79 82z" />
    <glyph glyph-name="nine" unicode="9" horiz-adv-x="440" 
d="M291 85q-8 8 -27 11h-6q-15 -3 -24.5 -12.5t-9.5 -27.5q0 -16 11 -27q10 -8 28 -11q14 0 27 12t13 27q0 13 -12 28zM254 136l95 33q-5 34 -23 61t-47 43.5t-64 16.5q-32 0 -67 -18q-30 -18 -49 -50t-19 -67v-270q0 -34 18 -66q18 -29 50 -50q33 -19 67 -19q52 0 93.5 39
t41.5 96q0 19 20 19q6 0 12 -4t8 -15q0 -46 -24 -88t-64.5 -64.5t-86.5 -22.5q-45 0 -87 24q-39 24 -63.5 63.5t-24.5 87.5v270q0 45 23.5 85t64.5 66q41 24 87 24q43 0 83.5 -23.5t66 -64.5t25.5 -87q0 -15 -13 -19l-60 -21q26 -24 26 -58q0 -29 -23.5 -54t-56.5 -25
t-56 23q-23 26 -23 56q0 33 21 54t49 25z" />
    <glyph glyph-name="colon" unicode=":" horiz-adv-x="690" 
d="M353 595l70 -224h238l-196 -140l77 -231l-189 140l-189 -140l70 231l-189 140h238z" />
    <glyph glyph-name="semicolon" unicode=";" horiz-adv-x="223" 
d="M106 330q27 0 47 -20q20 -18 20 -45q0 -29 -20 -49t-47 -20t-47 20q-19 22 -19 48q0 27 18.5 46.5t47.5 19.5zM106 236q9 0 18 9t9 18q0 11 -8 19l-9 6l-10 2q-26 0 -26 -26q0 -11 8 -20q6 -4 18 -8zM106 114q27 0 47 -20q20 -18 20 -45q0 -29 -20 -49t-47 -20t-47 20
q-19 22 -19 48l1 15q1 3 2 6.5t6.5 13t21.5 21.5q17 10 35 10zM106 20q9 0 18 9t9 18q0 11 -8 19l-9 6l-10 2q-12 0 -17.5 -5.5t-8.5 -20.5q0 -11 8 -20q6 -4 18 -8z" />
    <glyph glyph-name="less" unicode="&#x3c;" horiz-adv-x="250" 
d="M177 8q-34 -16 -56 -16q-29 0 -53 15q-17 13 -23 45q3 32 25 48t51 16t53.5 -17.5t30.5 -50.5q0 -39 -15.5 -69t-46 -50t-82.5 -29v16l25 3q11 2 32 14q26 15 42.5 35.5t16.5 39.5z" />
    <glyph glyph-name="equal" unicode="=" horiz-adv-x="440" 
d="M60 175h310q7 0 13.5 -6.5t6.5 -13.5q-1 -3 -1.5 -5.5t-4.5 -8t-14 -6.5h-310q-20 0 -20 20q0 7 4.5 12t15.5 8z" />
    <glyph glyph-name="greater" unicode="&#x3e;" horiz-adv-x="220" 
d="M89 330q-14 0 -32 17q-25 24 -29 26q-28 17 -50 51q-19 35 -19 70q0 38 19 70l21 28q11 13 29 23q15 10 32.5 14t38.5 4q16 0 39 -11t33 -25q2 -4 -4.5 -12.5t-11.5 -14.5q-1 -4 -4 -2q-11 8 -22 17q-6 4 -16.5 6.5t-15.5 2.5q-29 0 -47.5 -11t-34.5 -35.5t-16 -53.5
q0 -26 12 -48t34 -36t33 -20t19 -9l15 -3q4 -7 9 -12q-2 -9 0 -16q0 -5 -1 -9t-4 -9q9 -4 13 -6q13 -8 13 -18v-308q0 -12 -8 -16l-12 -4q-20 0 -20 20v290h-82q-9 0 -16 7l-4 13q0 20 20 20l58 3z" />
    <glyph glyph-name="question" unicode="?" horiz-adv-x="440" 
d="M77 568q35 16 56 16q31 0 51.5 -15.5t24.5 -44.5q0 -12 -6.5 -25t-18.5 -22q-23 -17 -51 -17q-29 0 -56 18q-24 18 -28 50q0 63 36.5 99.5t107.5 48.5v-16l-25 -3q-8 0 -32.5 -13.5t-41.5 -36t-17 -39.5zM273 568q34 16 56 16q31 0 51.5 -15.5t24.5 -44.5
q-3 -31 -25.5 -47.5t-50.5 -16.5q-29 0 -56 18q-24 18 -28 50q0 63 36.5 100.5t107.5 47.5v-16l-25 -3q-8 0 -32.5 -13.5t-41.5 -36t-17 -39.5z" />
    <glyph glyph-name="at" unicode="@" horiz-adv-x="440" 
d="M373 267q6 -6 7 -17q0 -18 -20 -18q-8 0 -17 9q-6 8 -16.5 16.5t-27 16.5t-30.5 12t-31 4q-39 0 -69 -17q-30 -15 -48 -48t-18 -68q0 -36 17.5 -66t49.5 -52q17 -9 33.5 -14t34.5 -5q32 0 60 12t44 35q2 5 15 8q6 0 12 -6t9 -15l-4 -11q-21 -30 -58 -46.5t-78 -16.5
q-43 0 -88 24q-41 24 -64 65t-23 88q0 48 23 88t63.5 62.5t88.5 22.5q42 0 77 -18.5t58 -44.5zM336 -80l-28 -14l-29 -10l-24 -6l-24 -2q-93 0 -154 52q-6 6 -7 14l6 14q6 6 14 7q8 0 13 -5q29 -24 57.5 -33t68.5 -9q27 0 42 8l53 24l25 13l11 3q8 0 12 -4l6 -17v-130
q0 -29 -5 -47q-4 -20 -22 -38q-15 -18 -37 -24t-51 -6h-132q-32 0 -49 20l-9 14q-7 16 -7 32q0 22 11 39q20 35 61 35q32 0 72 -22q9 -6 10 -16l-6 -14q-6 -6 -14 -7l-10 3q-32 17 -52 17q-17 0 -26 -15l-5 -26q0 -20 24 -20h132q25 0 36.5 3.5t21 12t15.5 23.5l1 47z" />
    <glyph glyph-name="A" unicode="A" horiz-adv-x="250" 
 />
    <glyph glyph-name="B" unicode="B" 
d="M-436 -248q-12 14 -12 24q0 18 20 18q12 0 20 -14q8 -8 34 -20l20 -7l23 -3q38 0 63.5 18.5t33.5 50.5v10q0 33 -28 58q-29 23 -69 23q-48 0 -74 -26q-14 -27 -30 -27q-17 0 -17 23q0 14 15 28q36 42 106 42q34 0 67 -15q29 -15 50 -43l7 10l13 13q44 35 95 35
q54 0 94.5 -34.5t40.5 -86.5q0 -49 -40 -84.5t-108 -35.5l-20 3q-9 9 -9 22q0 21 13 21l10 -5l9 -1q52 0 78 23q27 21 27 57q0 33 -27.5 56.5t-67.5 23.5q-36 0 -69 -24q-19 -16 -26 -56v-4v-4v-4l-1 -3l-1 -3q-8 -44 -47 -72q-20 -15 -40.5 -22t-47.5 -7q-63 0 -105 42z
" />
    <glyph glyph-name="C" unicode="C" horiz-adv-x="752" 
d="M146 330l-25 -3q-11 -3 -18 -17l18 -12l2 3q8 9 23 9l17 -1q8 0 20 -15q10 -15 9 -25q-3 -11 -15 -31q-4 -3 -18 -5q-17 0 -64 25q-18 9 -21 6q-12 -23 -20.5 -52.5t-8.5 -50.5q0 -12 1 -23.5t4.5 -26.5t17.5 -39q23 -40 64 -66t89 -26q28 0 48 7q23 6 44 20q41 26 63 69
q13 -24 31 -44q51 -53 125 -53q68 0 121 51t53 126q0 72 -52 125q-25 26 -60.5 39t-79.5 13l-25 -5q-12 -5 -12 -18q0 -20 26 -20l16 3q66 0 106.5 -39.5t40.5 -97.5q0 -57 -40 -97t-94 -40q-56 0 -97 41q-15 15 -29 43q-10 30 -10 58v9v5l-1 3q-9 102 -83 149l-10 3
q-6 0 -14 -7l-5 -14q0 -7 9 -16q27 -15 45.5 -49t18.5 -72v-4v-7v-7v-11q0 -7 -2 -13l-6 -19l-12 -24q-18 -30 -48.5 -48.5t-66.5 -18.5q-35 0 -67 19.5t-50.5 52t-18.5 69.5q0 36 18 72l18 -9q21 -8 37 -10h6l5 2l17 6l10 11l12 22l3 9l-4 21q-3 18 -22 33q-2 2 -3 2
q-6 3 -13 5z" />
    <glyph glyph-name="D" unicode="D" 
d="M-110 415q-39 -45 -100 -45q-39 0 -68 17.5t-51 51.5q-19 35 -19 70q0 36 18 69q16 33 48.5 52.5t71.5 19.5t69.5 -18.5t49.5 -51.5t19 -71q0 -48 -36 -92zM-125 462l9 17l4 30q0 27 -12.5 49.5t-36 37t-49.5 14.5t-47 -12t-36 -36t-15 -53q0 -26 11 -45q17 20 37 30.5
t45 10.5q53 0 90 -43zM-282 442q23 -32 72 -32q35 0 68 30q-32 42 -71 42t-69 -40z" />
    <glyph glyph-name="E" unicode="E" horiz-adv-x="440" 
d="M295 24q-17 42 -62 70q-39 24 -73 24l-10 -1q-15 0 -27 -6l-19 -16q-9 -9 -9 -29v-10q10 -15 36 -26q14 -3 28.5 -5t31.5 -2l44 1h6h54zM320 -14l-41 -4l-27 -1h-63q-66 0 -96 17q-30 15 -40 52l-2 19q0 30 27 56l27 19l21 7l27 2q55 0 105.5 -36.5t68.5 -84.5
q26 9 26 54q0 39 -45 66q-33 19 -90 28q-93 17 -93 71q0 25 24 52t75 27h10h7q31 0 49 -11q19 -9 29 -28l4 -15q0 -16 -15 -16q-6 0 -15 9q-6 9 -16 13l-27 8h-37q-45 0 -45 -35q0 -9 12 -23q7 -6 37 -14q87 -15 129 -42q48 -32 48 -90q0 -37 -11 -56q-9 -20 -29 -31
q6 -19 36 -34l4 -5l1 -5l-2 -4q-3 -5 -6 -8t-11 -3q-7 0 -17 5q-8 0 -23.5 15.5t-15.5 25.5z" />
    <glyph glyph-name="F" unicode="F" 
d="M-456 -267l279 260q8 6 14 6q9 0 15 -6t6 -15q0 -8 -7 -15l-244 -227h232q12 0 16 -7l4 -13q0 -20 -20 -20h-277q-24 0 -24 24q0 7 6 13z" />
    <glyph glyph-name="G" unicode="G" 
d="M-363 -202q33 56 73 117q14 21 37 55q8 14 14 14q11 -1 13 -2l13 -14q23 -36 36 -58q42 -68 66 -108q6 -13 7 -17q3 -9 0 -20q-1 -5 -13 -14.5t-27 -15.5q-10 -3 -19 -6.5t-36.5 -6t-42.5 -2.5q-18 0 -28 2.5t-21 4.5l-54 14q-11 2 -17 9.5t-8 10.5q-5 6 -5 10
q1 9 6 17.5t6 9.5zM-140 -233q5 3 1.5 10.5t-4.5 9.5l-87 153q-7 -11 -24 -35t-27 -41q-3 -5 -13.5 -21.5t-17.5 -31.5q-3 -11 -10 -25q-1 -3 -5 -8q3 -14 19 -20q6 -3 28.5 -5.5t37.5 -2.5q30 2 49 2q7 -1 25 4t28 11z" />
    <glyph glyph-name="H" unicode="H" 
d="M-213 540q28 0 47.5 -19.5t19.5 -46.5t-20 -47q-18 -21 -47 -21q-25 0 -45.5 20.5t-20.5 47.5q0 13 8 28t25 28q17 10 33 10zM-213 446q9 0 18 9t9 19q0 9 -6.5 16t-20.5 10q-12 0 -17.5 -5.5t-8.5 -20.5q0 -8 8.5 -18t17.5 -10z" />
    <glyph glyph-name="I" unicode="I" horiz-adv-x="215" 
d="M102 130q27 0 47 -20q20 -18 20 -46q0 -27 -20 -47q-8 -8 -28 -16q-20 -5 -36 -5q-11 0 -15 4l-13 16q-21 21 -21 48q0 15 8 29t24 27q17 10 34 10zM102 36q9 0 18 9t9 19q0 9 -6.5 16t-20.5 10q-12 0 -17.5 -5.5t-8.5 -20.5q0 -10 8.5 -19t17.5 -9z" />
    <glyph glyph-name="J" unicode="J" 
d="M-370 551l217 -215q6 -4 8 -15l-6 -14q-7 -7 -14 -7t-12 4l-217 215q-6 4 -8 15l6 14q7 7 14 7t12 -4z" />
    <glyph glyph-name="K" unicode="K" horiz-adv-x="190" 
d="M85 310v-560h85q6 0 13 -6t7 -14q-3 -9 -6 -13t-14 -7h-105q-20 0 -20 20v580q0 6 6 13t14 7q9 -3 13 -6t7 -14z" />
    <glyph glyph-name="L" unicode="L" horiz-adv-x="315" 
d="M205 310v-560h85q6 0 13 -6t7 -14q-3 -9 -6 -13t-14 -7h-105q-20 0 -20 20v580q0 6 6 13t14 7q9 -3 13 -6t7 -14zM85 310v-580q0 -7 -6.5 -13.5t-13.5 -6.5q-20 0 -20 20v580q0 6 6 13t14 7q9 -3 13 -6t7 -14z" />
    <glyph glyph-name="M" unicode="M" horiz-adv-x="440" 
d="M217 218q87 -15 129 -42q48 -32 48 -90q0 -36 -11 -54l-29 -32q-24 -18 -101 -18v-256q0 -7 -5 -11.5t-17 -7.5q-7 0 -14 7l-4 16v252l-12 -1h-12q-66 0 -96 17q-30 15 -40 52l-2 19q0 30 27 56q11 8 28 16q19 7 47 7q48 0 76 -32.5t28 -92.5h38q26 3 44 17q6 5 9 17
l5 29l1 6q0 33 -47 59q-34 18 -89 29q-93 17 -93 71q0 25 24 52t75 27h10h7q31 0 49 -11q19 -9 29 -28l4 -15q0 -16 -15 -16q-6 0 -15 9q-6 9 -16 13l-27 8h-37q-45 0 -45 -35q0 -9 12 -23q7 -6 37 -14zM211 23l1 22q0 30 -14 46.5t-47 16.5l-25 -3q-8 0 -19.5 -10
t-11.5 -34v-5q13 -19 23 -24l16 -4l23 -4zM357 -97q28 0 48 -19q19 -22 19 -48q0 -27 -20 -47t-47 -20q-26 0 -46 20t-20 47q0 28 19.5 47.5t46.5 19.5zM357 -191q7 0 19 9q5 5 8 18q0 11 -6.5 17.5t-20.5 9.5q-11 0 -18.5 -7.5t-7.5 -19.5q0 -9 8.5 -18t17.5 -9z" />
    <glyph glyph-name="N" unicode="N" 
d="M-167 -188h-25q-20 0 -20 20q1 3 1.5 5.5t4.5 8t14 6.5h20h5q7 0 20.5 8t14.5 20q-3 12 -24 26q-20 11 -55 11q-40 0 -57 -10q-15 -11 -19.5 -24.5t-18.5 -16.5q-21 0 -21 24q6 27 36 48q30 19 80 19q44 0 79 -18q27 -17 38 -49q0 -42 -21 -59q22 -19 22 -57
q-9 -35 -42 -48.5t-76 -13.5q-90 0 -114 57l-2 9q0 6 6 12l14 6q12 0 19.5 -13.5t24.5 -23.5l21 -5l31 -2q78 0 78 30q0 9 -10.5 19t-23.5 11z" />
    <glyph glyph-name="O" unicode="O" 
d="M-195 -10v-260q0 -20 -20 -20h-85q-20 0 -20 20q1 3 1.5 5.5t4.5 8t14 6.5h65v240q0 7 6.5 13.5t13.5 6.5q3 -1 5.5 -1.5t8 -4.5t6.5 -14zM-93 -92q28 0 48 -19q19 -22 19 -48q0 -27 -20 -47t-47 -20q-26 0 -46 20t-20 47q0 28 19.5 47.5t46.5 19.5zM-93 -186q7 0 19 9
q5 5 8 18q0 11 -6.5 17.5t-20.5 9.5q-11 0 -18.5 -7.5t-7.5 -19.5q0 -9 8.5 -18t17.5 -9z" />
    <glyph glyph-name="P" unicode="P" 
d="M-213 -38q40 0 68.5 -16.5t51.5 -47.5q18 -29 18 -63q0 -29 -18 -61q-19 -28 -51 -46t-69 -18q-57 0 -97.5 36.5t-40.5 88.5q0 33 17.5 62.5t51.5 47t69 17.5zM-257 -244l20 -7q8 -3 24 -3q40 0 69 26t29 63q0 24 -12 45q-12 18 -37 34q-23 12 -49 12q-23 0 -44 -10
q38 -40 38 -85q0 -46 -38 -75zM-314 -170q3 -28 10 -39q4 -10 25 -23q33 24 33 67q0 47 -37 66q-11 -11 -21 -29t-10 -36v-6z" />
    <glyph glyph-name="Q" unicode="Q" 
d="M-247 -155q33 0 64.5 -21t42.5 -50q24 24 24 56q0 17 -12 40q-13 19 -35 30l-23 7l-26 3q-47 0 -77 -31q-8 -9 -19 -9q-20 0 -20 16q0 10 11 21q43 43 105 43q57 0 96.5 -34.5t39.5 -85.5q0 -37 -19 -63q-18 -28 -50 -42.5t-67 -14.5q-42 0 -73 20q-32 17 -53 63l-2 9
l2 10q18 13 43 25q22 8 48 8zM-249 -178q-30 0 -56 -16q15 -26 42 -42q15 -9 27 -12l22 -4q13 0 26 4l27 9q-12 25 -35.5 43t-52.5 18z" />
    <glyph glyph-name="R" unicode="R" horiz-adv-x="295" 
d="M110 34v249h-93q-9 0 -16 7l-4 13q0 20 20 20h93q18 0 30 -3.5t13 -16.5v-269l8 -2h12h28q19 0 27 2q12 0 16 -8l4 -12q0 -9 -4 -12l-16 -2h-27l-37 -1h-26l-13 1q-2 1 -3 2q-4 4 -7 10.5t-5 21.5z" />
    <glyph glyph-name="S" unicode="S" 
d="M-195 -10v-260q0 -20 -20 -20h-85q-20 0 -20 20q1 3 1.5 5.5t4.5 8t14 6.5h65v240q0 7 6.5 13.5t13.5 6.5q3 -1 5.5 -1.5t8 -4.5t6.5 -14z" />
    <glyph glyph-name="T" unicode="T" horiz-adv-x="894" 
d="M469 360q38 0 71 -24q27 -20 43 -59t16 -77v-520q0 -9 -8 -14.5t-16 -5.5q-20 0 -20 20v520q0 22 -5.5 39.5t-18.5 43.5q-6 13 -16 22q-17 15 -46 15q-39 0 -69 18t-51 52q-18 32 -18 69q0 40 17 70l21 28q11 13 29 23q32 20 71 20q43 0 75 -23q33 -21 51 -60
q0 -25 -19 -25q-14 0 -20.5 13.5t-19.5 25.5q-9 10 -28 19.5t-39 9.5q-27 0 -46.5 -11.5t-35.5 -36t-16 -53.5q0 -27 13.5 -48.5t36 -36t48.5 -14.5z" />
    <glyph glyph-name="U" unicode="U" 
d="M-79 -272q5 -7 -1 -12q-23 -1 -64 -1.5t-55 -0.5h-30h-26h-22h-19h-16h-12h-30.5t-15.5 1q-7 7 -13 12q1 0 1 -1l138 252q7 12 12 12l7 -3l7 -8zM-130 -249l-100 189l-52 -87l-53 -102h205zM-23 -57q28 0 48 -19q19 -22 19 -48q0 -27 -20 -47t-47 -20q-26 0 -46 20
t-20 47q0 28 19.5 47.5t46.5 19.5zM-23 -151q7 0 19 9q5 5 8 18q0 11 -6.5 17.5t-20.5 9.5q-11 0 -18.5 -7.5t-7.5 -19.5q0 -9 8.5 -18t17.5 -9z" />
    <glyph glyph-name="V" unicode="V" horiz-adv-x="215" 
d="M-131 31v-237l134 -36v554q0 6 6 13t14 7q9 -3 13 -6t7 -14v-580q0 -19 -25 -19l-174 47q-9 0 -12 5.5t-3 13.5v252q0 7 6.5 13.5t13.5 6.5q3 -1 5.5 -1.5t8 -4.5t6.5 -14zM137 -77q28 0 48 -19q19 -22 19 -48q0 -27 -20 -47t-47 -20q-26 0 -46 20t-20 47q0 28 19.5 47.5
t46.5 19.5zM137 -171q7 0 19 9q5 5 8 18q0 11 -6.5 17.5t-20.5 9.5q-11 0 -18.5 -7.5t-7.5 -19.5q0 -9 8.5 -18t17.5 -9z" />
    <glyph glyph-name="W" unicode="W" 
d="M-495 -250q37 0 66.5 23.5t29.5 57.5q0 31 -28 56q-28 23 -68 23q-28 0 -49 -9.5t-35 -29.5l-7 -13q-6 -12 -6 -27q0 -35 28.5 -58t68.5 -23zM-378 -105l21 21q44 35 96 35t94.5 -35t42.5 -86q0 -50 -42.5 -85t-108.5 -35q-20 5 -20 18q0 9 6.5 15.5t15.5 6.5q54 0 82 25
t28 55q0 28 -28 56q-31 25 -71 25q-43 0 -70 -23t-27 -57q0 -36 -19 -62q-15 -27 -49 -43l-32 -12l-36 -4q-58 0 -96 35q-41 33 -41 86q0 29 18 61q20 27 50 43q32 15 69 15q32 0 67 -15q27 -14 50 -40z" />
    <glyph glyph-name="X" unicode="X" horiz-adv-x="220" 
d="M117 330q8 -3 12 -5q13 -8 13 -17v-308q0 -12 -8 -16l-12 -4q-20 0 -20 20v290h-82q-9 0 -16 7l-4 13q0 20 20 20h97z" />
    <glyph glyph-name="Y" unicode="Y" horiz-adv-x="418" 
d="M219 370q-39 0 -69 18t-51 52q-18 32 -18 69q0 40 17 70l21 28q11 13 29 23q32 20 71 20q43 0 75 -23q33 -21 51 -60q0 -25 -19 -25q-11 0 -20 12q-12 23 -36.5 39.5t-50.5 16.5q-27 0 -46.5 -11.5t-35.5 -36t-16 -53.5q0 -27 13.5 -48.5t36 -36t48.5 -14.5l8 2
q6 0 12.5 -6.5t6.5 -13.5q0 -14 -27 -22zM334 -179v115q-14 -19 -51 -31q-16 -5 -35.5 -8t-40.5 -3l-30 1q-14 0 -26.5 3t-20.5 5q-30 6 -51.5 21t-25.5 21q-8 14 -8 36v72q0 9 6 18t20 12q11 0 22 -18q14 -18 42 -33q29 -12 63 -12t66 18q15 9 28.5 21.5t22.5 29t14 33
t5 34.5q0 34 -18 65t-49.5 50t-68.5 19q-28 0 -59 -14t-47 -35q-14 -25 -33 -25q-17 0 -17 17t20 34q21 24 58.5 43.5t77.5 19.5q45 0 88 -24t65.5 -64t22.5 -86q0 -45 -24.5 -87t-65 -65.5t-86.5 -23.5q-25 0 -57 9t-56 29v-41q10 -15 49.5 -28.5t78.5 -13.5
q48 0 82.5 16.5t52.5 56.5l3 4l3 2q6 0 14 -14l6 -14v-165q0 -69 -28 -94q-19 -17 -60 -17h-182q-23 0 -43 18q-16 19 -16 43q0 23 13 40q14 15 43 21l43 3q32 0 41 -3t22 -13q4 -4 7 -15q0 -15 -14 -15l-9 2l-19 7l-28 2h-9q-17 0 -32 -4.5t-15 -23.5q0 -10 5.5 -15.5
t13.5 -6.5h132l33 -1l12 1q22 3 34 12q16 13 16 48v11z" />
    <glyph glyph-name="Z" unicode="Z" horiz-adv-x="432" 
d="M292 121h4q10 0 20 5l16 14l10 22v5l-6 19q-3 12 -13 19l-22 7h-6l-18 -3q-9 -3 -15 -11.5t-9 -26.5v-5l3 -18q3 -11 14 -18zM416 66q0 -6 -9 -12l-14 -5q-7 0 -10 12l3 13q0 26 -9 33.5t-25 7.5q-20 -23 -63 -23q-19 0 -35 12t-25 28l-7 33v7l3 17l10 19q9 18 29 25
q13 8 33 8l5 -1q9 0 24 -6l12 -7q-24 33 -50.5 48t-57.5 15h-8q-53 0 -90 -31q-19 -16 -35 -41q-12 -23 -12 -50l-1 -13q0 -47 31 -87q18 -24 41.5 -36t53.5 -12l9 -1h18l13 4l18 6l13 7q9 9 18 9q5 0 11.5 -5t9.5 -19q0 -15 -16 -22q-36 -21 -82 -21l-17 1
q-36 0 -66.5 16.5t-54.5 47.5q-40 49 -40 111l1 17q3 29 18 64q17 32 43 54q50 41 111 41l16 -1q70 -6 120 -59q11 -12 21 -39l7 -25l3 -27v-12l-1 -8l-3 -10q13 -2 21 -7q18 -11 18 -40l-2 -22z" />
    <glyph glyph-name="bracketleft" unicode="[" horiz-adv-x="752" 
d="M345 30q-56 -50 -129 -50q-69 0 -119 46q-27 26 -41 66l-8 34l-3 30q0 99 63 168q5 6 14 6q6 0 13.5 -6t8.5 -15q-1 -3 -1.5 -5.5t-4.5 -7.5q-53 -56 -53 -140q0 -21 9 -51t31 -49q38 -36 92 -36q59 0 102 40q21 18 28 47q9 29 9 49q0 39 -15.5 77t-39.5 63l-5 13
q0 9 6 15t16 6l5 -2l8 -4q25 -28 47 -76q6 13 28 33q53 53 124 53q72 0 123 -52q26 -26 39 -58l9 -32l4 -35q0 -72 -52 -124.5t-139 -52.5l-16 3q-6 0 -11 4q-12 3 -12 15q0 6 7 14q5 4 21 7l16 -3q66 0 106 40t40 96q0 57 -39.5 97.5t-95.5 40.5q-55 0 -96 -41
q-16 -16 -28 -47q-4 -13 -7 -29.5t-3 -32.5q0 -29 -12.5 -58t-38.5 -56z" />
    <glyph glyph-name="backslash" unicode="\" horiz-adv-x="1034" 
d="M682 172l4 -31q0 -12 2 -17l6 -20q6 -25 26 -42q41 -41 96 -41q52 0 93 39t41 99q0 57 -39 96t-106 39l-18 -3q-26 0 -26 20q0 12 12 18l27 5l19 1q34 0 64.5 -12.5t56.5 -40.5q50 -53 50 -124q0 -74 -51.5 -125.5t-122.5 -51.5t-124 53q-14 14 -29 41q-12 -24 -32 -44
q-52 -52 -123 -52q-69 0 -122 51q-18 18 -32 46q-21 -43 -64 -69.5t-91 -26.5q-44 0 -78 17q-34 15 -59 46q-8 9 -11 27q0 16 15 19q15 0 29 -23q34 -46 104 -46q33 0 64 18t52 51q19 33 19 68q0 33 -18 65.5t-49.5 50t-67.5 17.5q-28 0 -61 -15q-31 -16 -45 -34.5
t-29 -21.5q-14 0 -14 18q0 17 13 30q21 24 58.5 43.5t77.5 19.5q51 0 87 -20q38 -18 60 -54q11 -17 19 -39.5t8 -40.5q0 -23 2 -31l10 -38q7 -24 27 -47q41 -41 96 -41q52 0 93 39t41 99q0 57 -39 96t-106 39l-18 -3q-26 0 -26 20q0 12 12 18l27 5l19 1l30 -3
q10 -2 17.5 -4.5t15.5 -6.5q32 -12 57 -38t37 -50q8 -20 14 -59z" />
    <glyph glyph-name="bracketright" unicode="]" horiz-adv-x="440" 
d="M60 235h310q7 0 13.5 -6.5t6.5 -13.5q-1 -3 -1.5 -5.5t-4.5 -8t-14 -6.5h-310q-20 0 -20 20q0 7 4.5 12t15.5 8zM60 115h310q7 0 13.5 -6.5t6.5 -13.5q-1 -3 -1.5 -5.5t-4.5 -8t-14 -6.5h-310q-20 0 -20 20q0 7 4.5 12t15.5 8z" />
    <glyph glyph-name="asciicircum" unicode="^" horiz-adv-x="440" 
d="M98 67q35 -47 105 -47q33 0 64 18t52 51q19 33 19 68q0 36 -16.5 66.5t-49 48.5t-69.5 18q-30 0 -60.5 -15.5t-45.5 -33.5q-5 -10 -13 -17.5t-16 -9.5q-16 0 -16 21q0 14 15 32q19 23 57 43t79 20q12 0 24 -1t26.5 -4.5t38.5 -17.5q41 -21 63.5 -62.5t22.5 -87.5
q0 -45 -23.5 -86t-64.5 -67q-41 -24 -87 -24q-43 0 -80 17l-17 8l-16 11v-191l2 -36q3 -12 11 -20t25 -15l37 -4h468q12 0 15 5.5t4 11.5t1 21q0 23 20 23q14 0 20 -17l2 -16q0 -28 -17 -48t-45 -20h-468q-25 0 -49 6q-22 3 -38 21t-24 42l-4 46v219q3 12 12 25t20 13
q8 0 16 -15z" />
    <glyph glyph-name="underscore" unicode="_" horiz-adv-x="116" 
d="M508 34v-173q0 -62 -38 -103q-41 -48 -115 -48h-161q-65 0 -105 43q-45 44 -45 111v630q0 71 37 111q42 45 111 45h77q7 0 13.5 -6.5t6.5 -13.5q-1 -3 -1.5 -5.5t-4.5 -8t-14 -6.5h-74q-54 0 -84 -33q-6 -7 -19 -33q-8 -22 -8 -50v-630q0 -30 7.5 -46t25.5 -37
q15 -15 33 -25l18 -4l26 -2h161q32 0 50.5 8t34.5 26l14 18l7 17q7 21 7 42v173q0 19 20 19q7 0 13 -5q6 -3 7 -14z" />
    <glyph glyph-name="grave" unicode="`" 
d="M-148 -52q31 -15 53 -49q19 -35 19 -66q0 -33 -18 -63t-48.5 -45t-69.5 -15q-58 0 -96 35q-41 33 -41 88q0 34 18.5 63t52.5 51l11 3q5 0 14 -6l5 -15q0 -9 -10 -16q-21 -12 -36 -36t-15 -44q0 -32 27 -59q30 -24 70 -24q42 0 69 24t27 59q0 22 -12 44t-38 35
q-11 5 -11 17q0 6 4 12.5t15 9.5z" />
    <glyph glyph-name="a" unicode="a" horiz-adv-x="424" 
d="M231 146q25 7 48 7q40 0 67 -17q29 -15 29 -49l-3 -22l-17 -23q-20 -24 -56.5 -43t-77.5 -19q-45 0 -87 24q-39 24 -63.5 64.5t-24.5 86.5q0 47 21.5 86t63.5 65q42 24 90 24q33 0 75 -18q33 -17 50 -34l29 -37l4 -13q0 -8 -5.5 -14.5t-16.5 -9.5q-10 0 -13 15
q-19 33 -60 56q-30 15 -63 15q-36 0 -69 -18l-21 -13q-11 -8 -28 -36l-14 -34q-3 -14 -3 -34q0 -57 43 -97q12 24 38.5 50t63.5 38zM239 116q-30 -9 -59 -36q-17 -19 -25 -40q32 -20 66 -20q31 0 58 14l24 14l21 19l16 24l3 8l-5 5q-6 6 -16 11q-21 9 -45 9q-17 0 -21 -2z
" />
    <glyph glyph-name="b" unicode="b" horiz-adv-x="724" 
d="M354 238q9 19 30 40q53 53 123 53q69 0 122 -51.5t53 -126.5q0 -72 -52 -124t-119 -52l-20 1l-27 6q-12 6 -12 18q0 8 5.5 14t13.5 6l9 -2l16 -2q64 0 105 39t41 96q0 55 -41.5 96.5t-94.5 41.5t-92.5 -39.5t-39.5 -104.5q0 -22 -6 -43l-18 -41q-21 -36 -60 -60
q-19 -11 -41 -17t-47 -6q-45 0 -80.5 19t-59.5 44l-7 16q0 17 19 17q11 0 18 -7q14 -17 44 -33l30 -12l32 -4q36 0 66 16t51 49q9 17 14 33.5t5 34.5q0 39 -20 69q-18 30 -50 49t-66 19q-37 0 -63.5 -12.5t-40.5 -32.5l-7 -8l-3 -4q-3 -11 -18 -14q-20 0 -20 24l8 17l6 7
q21 30 60 46.5t78 16.5q49 0 90.5 -24.5t65.5 -67.5z" />
    <glyph glyph-name="c" unicode="c" horiz-adv-x="434" 
d="M279 40q-6 25 -29 45l-23 16l-28 13q-29 9 -57 9q-35 0 -59 -15q4 -8 10.5 -18.5t15.5 -21.5q17 -20 47 -35l31 -11l26 -2q36 0 66 20zM305 58q43 40 43 97q0 36 -16.5 65.5t-49 49.5t-69.5 20q-27 0 -59 -15l-29 -17l-18 -18l-11 -15l-3 -7q-7 -10 -19 -10q-6 0 -13 4.5
t-8 14.5l6 14l4 9l5 7l8 11q25 23 61 43q38 19 76 19q46 0 88 -24q42 -22 64 -64q23 -40 23 -87q0 -45 -24 -87q-24 -39 -63.5 -63.5t-87.5 -24.5q-38 0 -74.5 17.5t-59.5 44.5l-16 22l-3 6l-6 10q-5 7 -8 23q0 13 2 16l3 7q34 26 93 26q49 0 93.5 -23t67.5 -71z" />
    <glyph glyph-name="d" unicode="d" 
d="M-217 650q39 0 69.5 -18.5t49.5 -51.5t19 -71q0 -57 -41 -98t-97 -41q-40 0 -68.5 17.5t-50.5 51.5q-19 36 -19 70q0 38 18.5 70.5t51 51.5t68.5 19zM-217 410l25 3q13 4 24 11q21 14 36 36q13 24 13 49q0 27 -12.5 49.5t-36 37t-49.5 14.5t-47 -12t-36 -36t-15 -53
q0 -27 12.5 -48.5t36 -36t49.5 -14.5z" />
    <glyph glyph-name="e" unicode="e" horiz-adv-x="440" 
d="M217 218q87 -15 129 -42q48 -32 48 -90q0 -36 -11 -54l-29 -32q-24 -18 -101 -18v-256q0 -7 -5 -11.5t-17 -7.5q-7 0 -14 7l-4 16v252l-12 -1h-12q-66 0 -96 17q-30 15 -40 52l-2 19q0 30 27 56q11 8 28 16q19 7 47 7q48 0 76 -32.5t28 -92.5h38q26 3 44 17q6 5 9 17
l5 29l1 6q0 33 -47 59q-34 18 -89 29q-93 17 -93 71q0 25 24 52t75 27h10h7q31 0 49 -11q19 -9 29 -28l4 -15q0 -16 -15 -16q-6 0 -15 9q-6 9 -16 13l-27 8h-37q-45 0 -45 -35q0 -9 12 -23q7 -6 37 -14zM211 23l1 22q0 30 -14 46.5t-47 16.5l-25 -3q-8 0 -19.5 -10
t-11.5 -34v-5q13 -19 23 -24l16 -4l23 -4z" />
    <glyph glyph-name="f" unicode="f" 
d="M-184 370q-37 0 -67 17.5t-52 51.5q-19 35 -19 70q0 38 19 70q9 15 21 27.5t29 23.5q31 20 69 20q43 0 75 -23q33 -21 51 -60q0 -25 -19 -25q-12 0 -19 10l-9 15l-15 17q-11 11 -28.5 18.5t-35.5 7.5q-26 0 -47 -12t-36 -36t-15 -53q0 -27 12.5 -48.5t36 -36t49.5 -14.5
l8 2q7 0 14 -7l5 -13q0 -14 -27 -22z" />
    <glyph glyph-name="g" unicode="g" horiz-adv-x="180" 
d="M60 0v546q0 22 -24.5 43t-53.5 21q-27 0 -53.5 -20t-26.5 -44q0 -19 -20 -19t-20 19q0 26 18 51t48 40q12 5 27.5 9t26.5 4q28 0 53.5 -12.5t46.5 -36.5q18 -26 18 -55v-546q0 -7 -6.5 -13.5t-13.5 -6.5q-20 0 -20 20z" />
    <glyph glyph-name="h" unicode="h" 
d="M-223 -77q28 0 48 -19q19 -22 19 -48q0 -27 -20 -47t-47 -20q-26 0 -46 20t-20 47q0 28 19.5 47.5t46.5 19.5zM-223 -171q7 0 19 9q5 5 8 18q0 11 -6.5 17.5t-20.5 9.5q-11 0 -18.5 -7.5t-7.5 -19.5q0 -9 8.5 -18t17.5 -9z" />
    <glyph glyph-name="i" unicode="i" horiz-adv-x="408" 
d="M358 260l5 -21q-2 -15 -15 -15q-11 0 -22 12q-14 20 -43 36l-30 13l-15 3l-15 2h-8q-33 0 -63.5 -15t-50.5 -46.5t-20 -65.5v-7q0 -30 15 -61t46 -52.5t67 -21.5l10 -1q29 0 55.5 10.5t41.5 29.5l9 12q3 12 17 13q21 0 21 -23l-8 -18l-7 -9q-24 -28 -60.5 -41.5
t-69.5 -13.5h-11h-11q-7 0 -13 2q-6 0 -23 7l-12 4q-11 5 -27 16q-39 24 -59.5 64t-20.5 82v11q0 46 24.5 83t69.5 63q38 18 79 18h11q18 0 39 -6q18 -3 38 -16q29 -18 56 -48z" />
    <glyph glyph-name="j" unicode="j" horiz-adv-x="115" 
d="M508 42v-181q0 -62 -38 -103q-41 -48 -115 -48h-161q-65 0 -105 43q-45 44 -45 111v630q0 71 37 111q42 45 111 45h179q40 0 70 -20q27 -16 47 -43l15 -27q5 -13 5 -29v-11q0 -19 -20 -19t-20 19v11l-5 17l-7 15q-35 47 -85 47h-179q-51 0 -81 -33q-6 -7 -19 -33
q-8 -22 -8 -50v-630q0 -30 7.5 -46t25.5 -37q15 -15 33 -25l18 -4l26 -2h161q32 0 50.5 8t34.5 26l14 18l7 17q7 21 7 42v181q0 19 20 19q7 0 13 -5q6 -3 7 -14z" />
    <glyph glyph-name="k" unicode="k" 
d="M-194 -20v-230h65q6 0 14 -6l5 -14q0 -20 -19 -20h-85q-20 0 -20 20v250q0 19 20 19q7 0 13 -4.5t7 -14.5z" />
    <glyph glyph-name="l" unicode="l" 
d="M-144 -10v-240h65q6 0 14 -6l5 -14q0 -20 -19 -20h-85q-20 0 -20 20v260q0 7 6.5 13.5t13.5 6.5q3 -1 5.5 -1.5t8 -4.5t6.5 -14zM-244 -10v-260q0 -6 -6 -13t-14 -7q-20 0 -20 20v260q0 7 6.5 13.5t13.5 6.5q3 -1 5.5 -1.5t8 -4.5t6.5 -14z" />
    <glyph glyph-name="m" unicode="m" horiz-adv-x="356" 
d="M160 330q0 -3 7.5 -3t21 -2t39.5 -17q35 -17 62 -55q31 -47 31 -98q0 -44 -19 -81t-56 -63q-24 -14 -50 -24t-55 -10q-24 0 -41.5 6t-23.5 11q-9 3 -9 14q0 8 6 15t14 7q6 0 13 -4l13 -5q8 -3 27 -3q45 0 84 27q27 20 42 48q14 31 14 62q0 43 -23 76q-17 26 -47.5 41
t-60.5 15q-41 0 -78 -25t-78 -98l-7 -2q-6 0 -10 7.5t-7 23.5q0 10 4 15l22 34q6 9 24 29l10 10l19 15q14 10 19 11.5t27 4.5q-9 1 -16 7q-13 10 -18 13q-16 10 -39.5 33.5t-34.5 41.5q-19 35 -19 70q0 38 19 70l21 28q5 6 24.5 17t32.5 16.5t30 9.5t35 4q43 0 75 -23
q33 -21 51 -60q0 -11 -15.5 -20t-27.5 -9q0 2 1 4q7 6 4 10l-9 15l-15 17q-9 11 -27.5 18.5t-36.5 7.5q-27 0 -47 -11.5t-39 -21.5q-14 -10 -21 -19q-15 -24 -15 -53q0 -26 12 -49q7 -12 14 -22q3 -4 17 -22q10 -12 54 -33t56 -21z" />
    <glyph glyph-name="n" unicode="n" horiz-adv-x="726" 
d="M619 -290h-459q-25 0 -49 6q-22 3 -38 21t-24 42l-4 46v219q0 9 6.5 21.5t19.5 15.5q7 0 17 -16q15 -18 45 -33q30 -12 65 -12q33 0 64 18t52 51q19 33 19 68q0 36 -16.5 66.5t-49 48.5t-69.5 18q-30 0 -60.5 -15.5t-45.5 -33.5q-7 -11 -18 -14q-7 0 -14 7l-5 17
q0 9 7 16q19 23 57 43t79 20q12 0 24 -1t26.5 -4.5t38.5 -17.5q41 -21 63.5 -62.5t22.5 -87.5q0 -55 39.5 -96t94.5 -41q52 0 93 39t41 98q0 57 -39 96t-105 39l-17 -2l-9 -2q-9 0 -13 7q-6 6 -6 14q0 9 12 17l28 6l19 1q67 0 120 -53q23 -23 36.5 -54.5t13.5 -68.5
q0 -71 -51.5 -124t-122.5 -53t-124 53q-19 19 -32 45q-21 -45 -62.5 -71.5t-90.5 -26.5q-63 0 -113 35v-190l2 -36q3 -12 11 -20t25 -15l37 -4h444q35 0 35 38q0 23 20 23q16 0 20 -17q0 -38 -14.5 -61t-45.5 -23z" />
    <glyph glyph-name="o" unicode="o" horiz-adv-x="726" 
d="M333 176q-6 48 -45 81q-36 33 -89 33q-28 0 -59 -14t-47 -35q-5 -18 -22 -18q-21 0 -21 19q0 12 13 25q21 24 58.5 43.5t77.5 19.5q44 0 83 -20q39 -18 63 -53.5t30 -80.5q0 -75 36 -111q46 -46 97 -46q52 0 93 39t41 99q0 57 -39 96t-106 39l-18 -3q-26 0 -26 20
q0 12 12 18l27 5l19 1l30 -3q10 -2 17.5 -4.5t15.5 -6.5q31 -12 58 -39q50 -52 50 -124q0 -74 -51.5 -125.5t-122.5 -51.5q-66 0 -125 57q-7 7 -29 43q-11 -22 -39 -50q-21 -18 -52 -33.5t-64 -15.5q-44 0 -78 17q-34 15 -59 46l-8 7l-8 17q0 23 17 23q12 0 21 -13l11 -11
q34 -46 104 -46l25 1q13 2 30 11t42 35q37 43 37 109z" />
    <glyph glyph-name="p" unicode="p" horiz-adv-x="440" 
d="M96 279q51 51 124 51q72 0 123 -52q26 -26 39 -56t13 -68q0 -71 -51.5 -122.5t-125.5 -51.5q-68 0 -120 51t-52 125q0 73 50 123zM167 32q26 -12 51 -12q58 0 97.5 39t39.5 95q0 52 -39 94t-96 42q-31 0 -51 -10q30 -24 49 -56t19 -68q0 -37 -18 -67.5t-52 -56.5zM137 50
q29 18 46 47q18 27 18 57q0 37 -15.5 63.5t-46.5 44.5q-31 -25 -42 -50t-11 -56l3 -27l10 -28q14 -31 38 -51z" />
    <glyph glyph-name="q" unicode="q" horiz-adv-x="738" 
d="M516 20q35 0 65 17.5t52 51.5q19 35 19 67q0 54 -39.5 94.5t-96.5 40.5q-54 0 -92.5 -40t-38.5 -96q0 -37 16 -65t48 -51q33 -19 67 -19zM266 33q-6 36 -38 62l-34 20l-18 6l-20 2q-48 0 -71 -33l10 -12l10 -10q17 -19 47 -35l31 -11l26 -2q31 0 57 13zM295 51
q48 38 48 103q0 37 -17 67q-15 30 -48 51q-32 18 -69 18q-28 0 -59 -14t-47 -35q-22 -28 -39 -28q-10 0 -13 15q0 18 22 39q21 24 58.5 43.5t77.5 19.5q48 0 92 -24q40 -25 64 -63q15 24 38 44t53 33q30 11 60 11q47 0 88 -25q40 -22 64 -64q24 -39 24 -86q0 -26 -5 -46
t-18 -41q-21 -37 -65 -65q-41 -24 -88 -24q-90 0 -153 90q-21 -38 -65 -64t-89 -26q-38 0 -74.5 17.5t-59.5 44.5l-28 40q9 30 38 50q16 10 32.5 15.5t34.5 5.5q24 0 49.5 -9t45.5 -25q36 -27 48 -68z" />
    <glyph glyph-name="r" unicode="r" horiz-adv-x="440" 
d="M98 103q47 63 123 63q37 0 71 -20q35 -18 51 -45l8 24q5 20 5 36q0 40 -19 75q-18 37 -53 57q-9 5 -9 15q0 9 6 15t14 7l9 -3q28 -18 48 -42.5t32 -58.5t12 -65q0 -41 -14 -70q-12 -31 -36.5 -57t-55.5 -39q-32 -15 -69 -15q-47 0 -86.5 23.5t-66.5 67.5q-23 43 -23 90
q0 42 24 89.5t66 76.5l11 3q6 0 12.5 -6.5t7.5 -14.5q0 -7 -9 -16q-21 -13 -30 -26q-6 -6 -10 -12q-8 -13 -13 -21q-19 -40 -19 -73q0 -38 13 -58zM113 76q41 -56 108 -56q30 0 61 16q23 12 47 40q-18 29 -47.5 45.5t-61.5 16.5t-59 -15q-25 -16 -48 -47z" />
    <glyph glyph-name="s" unicode="s" horiz-adv-x="114" 
d="M-96 31v-237l134 -36v554q0 6 6 13t14 7q9 -3 13 -6t7 -14v-580q0 -19 -25 -19l-174 47q-9 0 -12 5.5t-3 13.5v252q0 7 6.5 13.5t13.5 6.5q3 -1 5.5 -1.5t8 -4.5t6.5 -14z" />
    <glyph glyph-name="t" unicode="t" horiz-adv-x="710" 
d="M483 101q-17 -9 -37 -36q-17 -26 -17 -44l26 -6l15 -1q42 0 72 21t61 70l-22 8q-20 6 -39 6q-30 0 -59 -18zM384 300q27 12 48.5 19t45.5 7q41 0 84 -24q16 -8 31.5 -23t29.5 -34.5t18.5 -42t4.5 -52.5q0 -41 -19 -79q-14 -24 -39 -44q-18 -14 -48 -31q-21 -11 -38 -15.5
t-42 -4.5l-24 8h-16q-7 0 -12 6l-16 15q0 22 20.5 56.5t52.5 51.5q35 22 71 22q33 0 68 -16l3 33q0 39 -25 78q-20 30 -47.5 47t-60.5 17q-22 0 -42 -6t-28 -14l-28 -27q-3 -3 -9.5 -11t-7 -10t0 -5.5t-8 -4t-18.5 -0.5q-4 5 -10 14q-14 20 -18 18q-26 -12 -47 -34
q-26 -28 -29 -58q0 -17 23 -51t43 -51q9 -8 21.5 3.5t21.5 38.5q2 3 10 3t16.5 -2t7.5 -5q-7 -26 -14.5 -40t-42.5 -50q-14 -15 -41.5 -21.5t-55.5 -6.5q-24 0 -56.5 7.5t-50.5 18t-33.5 36.5t-28.5 50q0 -1 9 -2t12 -1h15t12 1q4 0 10 -13q15 -34 27.5 -41.5t37 -14.5
t41.5 -7q15 0 38 10q7 3 20 10q-1 4 -25 30q-14 15 -25.5 35t-12.5 23q-6 14 -6 28q0 8 2 19.5t10 26t17 28.5q8 16 22 25t22 25q-8 3 -12 4q-31 12 -45 12q-57 0 -96 -40q-14 -14 -18.5 -24t-8.5 -32q-2 -5 -19 -5q-11 0 -21.5 3t-9.5 8q3 13 8 22q9 14 14 22
q23 41 63.5 63.5t87.5 22.5q46 0 86 -23q20 -11 34 -31q3 -4 24 12q7 5 22 18z" />
    <glyph glyph-name="u" unicode="u" horiz-adv-x="752" 
d="M376 237q9 24 31 46q51 53 125 53q69 0 122 -52q26 -26 39 -57.5t13 -66.5q0 -74 -52 -126q-25 -25 -60.5 -38.5t-79.5 -13.5l-25 5q-13 7 -13 19q0 7 4 13t15 8l8 -2l16 -3q66 0 106.5 42t40.5 96q0 57 -40 96.5t-94 39.5q-56 0 -97 -41q-17 -17 -29 -50
q-10 -33 -10 -60q0 -43 -21.5 -87.5t-62.5 -69.5l-10 -3q-6 0 -11 5t-8 15q0 9 9 17q29 18 46.5 53.5t17.5 78.5q0 36 -18 69t-49 52.5t-68 19.5q-36 0 -67 -18.5t-50 -53t-19 -69.5q0 -36 18 -72t54 -60q9 -6 9 -15q0 -5 -6 -13t-15 -9l-10 3q-42 29 -67 74q-11 22 -17 45
t-6 47q0 12 1 24t4.5 26.5t17.5 38.5q23 41 64 66.5t89 25.5t89.5 -26t65.5 -72z" />
    <glyph glyph-name="v" unicode="v" horiz-adv-x="746" 
d="M392 171q0 -30 10.5 -60.5t30.5 -50.5q43 -41 95 -41q54 0 94 40t40 97q0 54 -40 95q-19 20 -45.5 30t-58.5 10l-17 -3l-9 -2q-5 0 -13 6l-5 14q0 11 10.5 16t28.5 9q84 0 136.5 -52t52.5 -123q0 -72 -52 -124.5t-122 -52.5q-67 0 -122.5 54.5t-55.5 138.5q-6 48 -36 80
q-41 41 -95 41t-93.5 -39.5t-39.5 -97.5q0 -57 39 -96t105 -39l16 3l9 2q5 0 14 -6l5 -15q0 -9 -12 -17l-27 -7l-19 -1q-35 0 -63 14q-30 12 -57 39q-50 50 -50 123q0 36 13 69t38 56q52 52 122 52t123 -53q36 -36 50 -109z" />
    <glyph glyph-name="w" unicode="w" horiz-adv-x="710" 
d="M202 20q36 0 65.5 18t49.5 51q9 17 14 33.5t5 34.5q0 54 -40 93.5t-94 39.5q-60 0 -98.5 -38.5t-38.5 -94.5q0 -36 18 -69q18 -28 50 -50q32 -18 69 -18zM375 146q0 -43 -26 -82q-21 -34 -66 -62q-42 -22 -87 -22q-47 0 -86 23q-37 24 -62 65q-23 43 -23 89
q0 72 51.5 122.5t125.5 50.5q51 0 90 -26q40 -24 65 -68q14 26 32 44q51 51 124 51q69 0 125 -51q26 -26 39 -57.5t13 -66.5q0 -72 -52 -124t-142 -52q-40 0 -40 20q0 9 7.5 16.5t19.5 7.5q8 0 15 -4q28 0 57.5 9t53.5 31q41 41 41 96q0 54 -39.5 94.5t-97.5 40.5
q-57 0 -98 -41q-19 -19 -29.5 -45.5t-10.5 -58.5z" />
    <glyph glyph-name="x" unicode="x" horiz-adv-x="746" 
d="M352 132v13l-1 11l2 20v4q-6 33 -27 57q-17 23 -46.5 38t-60.5 15q-35 0 -66.5 -17t-49.5 -49t-18 -68q0 -35 17.5 -65.5t49.5 -51.5q32 -19 67 -19q48 0 87 33t46 79zM372 240q21 38 63.5 64t90.5 26q44 0 85.5 -23t65.5 -65q24 -39 24 -86q0 -46 -23 -86t-64 -66
q-41 -24 -88 -24q-48 0 -90 24q-39 24 -63 67q-24 -39 -65.5 -65t-88.5 -26q-46 0 -85.5 23.5t-64 65t-24.5 87.5q0 45 22 86q20 34 63 65q41 23 89 23q49 0 90 -24.5t63 -65.5zM394 132q5 -30 23 -54.5t49 -42.5q29 -15 60 -15q36 0 67 18.5t49.5 49.5t18.5 68t-18.5 66.5
t-50 48.5t-66.5 19q-51 0 -87.5 -30.5t-45.5 -78.5l2 -25v-12z" />
    <glyph glyph-name="y" unicode="y" horiz-adv-x="440" 
d="M303 327q42 -24 67 -71.5t25 -95.5q0 -49 -23 -88q-21 -39 -62.5 -65.5t-89.5 -26.5q-45 0 -89 24q-39 24 -64 67q-23 43 -23 89q0 43 24 90.5t66 76.5l11 3q6 0 12.5 -6.5t7.5 -14.5q0 -7 -9 -16q-21 -13 -30 -26q-6 -6 -10 -12q-8 -13 -13 -21q-19 -40 -19 -74
q0 -36 18 -69q18 -28 51 -53q30 -18 67 -18q36 0 66 18t51 52q18 33 18 70q0 40 -18.5 75.5t-53.5 57.5q-9 5 -9 15q0 9 6 15t14 7z" />
    <glyph glyph-name="z" unicode="z" horiz-adv-x="440" 
d="M344 108l8 27l3 26q0 36 -19 74l-21 34q-13 16 -28 27l-16 -35l-7 -42q0 -33 23 -66t57 -45zM328 80l-14 6l-13 10l-28 25q-24 21 -34 47l-5 25l-2 26q0 24 5 41t13 32q17 35 53 35q28 -18 48 -42.5t32 -58.5t12 -65q0 -41 -14 -70q-12 -31 -36.5 -57t-55.5 -39
q-32 -15 -69 -15q-47 0 -86.5 23.5t-66.5 67.5q-23 43 -23 90q0 27 5 45q4 20 18 46q23 45 66 75l11 3q6 0 12.5 -6.5t7.5 -14.5q0 -7 -9 -16q-31 -20 -52 -60q-19 -40 -19 -72q0 -36 17.5 -68t51.5 -54q33 -19 67 -19q69 0 108 60z" />
    <glyph glyph-name="braceleft" unicode="{" horiz-adv-x="428" 
d="M215 134l20 8q17 5 36 5q36 0 67.5 -15.5t44.5 -43.5q0 -6 -9 -23.5t-25 -30.5q-21 -24 -57 -39t-77 -15q-44 0 -86 24q-37 24 -62 65q-8 17 -16 41q-6 23 -6 47q0 23 5 39q5 22 8 27l13 21q24 41 64.5 63.5t88.5 22.5q60 0 102 -33t57 -89q-18 -24 -49.5 -35.5
t-64.5 -11.5h-12h-8q-5 2 -7 2l-20 4q-54 15 -85 95q-52 -40 -52 -107q0 -58 48 -103q9 30 34 52q18 18 48 30zM225 110q-65 -33 -65 -78q23 -12 55 -12q44 0 75 16q12 7 26 21t27 33q-4 4 -14 10.5t-16 9.5l-22 7l-19 2q-18 0 -47 -9zM227 194q21 -6 41 -6q21 0 42 6t33 16
q-7 24 -33 50q-21 23 -51 30l-30 3q-46 0 -66 -17q6 -26 21 -48t43 -34z" />
    <glyph glyph-name="bar" unicode="|" horiz-adv-x="114" 
d="M-212 -248l25 3q13 4 24 11q19 11 34 35t15 50q0 28 -12.5 49.5t-36.5 38.5q-26 13 -49 13q-41 0 -69.5 -28.5t-28.5 -72.5q0 -40 29 -69.5t69 -29.5zM-115 -248l-28 -21q-33 -19 -69 -19q-40 0 -70 20q-30 16 -49 49t-19 70q0 38 16.5 69t50.5 53q35 19 71 19
q38 0 69 -18t50 -52.5t19 -70.5q0 -33 -16 -65l108 -28v554q0 6 6 13t14 7q9 -3 13 -6t7 -14v-580q0 -19 -25 -19z" />
    <glyph glyph-name="braceright" unicode="}" horiz-adv-x="155" 
d="M859 48v-191q0 -52 -35 -96q-20 -23 -50 -36q-30 -15 -64 -15h-497q-67 0 -108 43.5t-41 108.5v640q0 61 38 102q43 46 110 46h257h77q9 0 15 -7l5 -13q-1 -3 -1.5 -5.5t-4.5 -8t-14 -6.5h-77h-257q-51 0 -79.5 -31.5t-28.5 -76.5v-640q0 -27 7.5 -44.5t24.5 -36.5
q31 -31 77 -31h497q22 0 47 11t36 26q16 22 21 35t5 35v191q0 19 20 19t20 -19z" />
    <glyph glyph-name="asciitilde" unicode="~" 
d="M-159 -255q37 34 37 84q0 8 -6 28q-3 15 -19 28q-29 23 -72 23q-38 0 -67 -21q-11 -8 -18 -24.5t-10 -33.5q0 -49 38 -84q6 -5 6 -14q-1 -3 -2 -5.5t-4 -7.5q-6 -9 -15 -9q-3 1 -5.5 1.5t-7.5 4.5q-50 47 -50 114q0 24 12 48.5t32 41.5q38 29 90 29q57 0 98 -32
q40 -37 40 -87q0 -69 -49 -114l-13 -5q-6 0 -12.5 6t-8.5 16q1 3 1.5 5.5t4.5 7.5z" />
    <glyph glyph-name="c128" 
d="M-370 551l217 -215q6 -4 8 -15l-6 -14q-7 -7 -14 -7t-12 4l-217 215q-6 4 -8 15l6 14q7 7 14 7t12 -4z" />
    <glyph glyph-name="c129" horiz-adv-x="220" 
d="M117 330q8 -3 12 -5q13 -8 13 -17v-308q0 -12 -8 -16l-12 -4q-20 0 -20 20v290h-82q-9 0 -16 7l-4 13q0 20 20 20h97z" />
    <glyph glyph-name="quotesinglbase" unicode="&#x201a;" horiz-adv-x="418" 
d="M373 23v-311q0 -18 -4 -26.5t-13 -11.5q-5 0 -14 9q-5 10 -5 27v306l-15 -15l-21 -11q-40 -17 -80 -17q-44 0 -88 24q-39 24 -63.5 64.5t-24.5 87.5q0 49 21.5 87t65.5 64t89 26q47 0 81 -20q36 -18 58 -43q5 -7 8 -23q0 -15 -16 -15q-15 0 -21 12q-15 15 -48 33
q-30 18 -62 18q-54 0 -94 -41t-40 -98q0 -25 11 -49.5t28 -43.5q19 -19 45 -30t50 -11q74 0 110 46q4 5 16 8q12 0 19 -14t7 -32z" />
    <glyph glyph-name="florin" unicode="&#x192;" horiz-adv-x="5" 
d="M-449 -46q12 12 33 12t41 -13q18 -14 18 -37q0 -17 -9 -27t-27 -13.5t-26 -10.5q-8 -3 -9 -16q0 -36 26 -56t62 -20q39 0 72 20.5t33 59.5q0 58 -59 71q-6 0 -11 8q-6 6 -6 13q0 17 38 17l33 -18l24 -20q19 -22 19 -71q0 -36 32 -59q32 -21 64 -21h5q29 0 58.5 17
t33.5 50q0 44 -36 70q-37 23 -90 23q-9 0 -12 3l-9 14q0 12 13 16q86 0 129 -30t43 -96q-6 -48 -44 -77l-18 -12l-28 -12q-19 -8 -45 -8q-31 0 -66 15.5t-51 43.5q-12 -26 -45 -43q-18 -8 -35.5 -12t-41.5 -4q-19 0 -52 12t-55.5 40t-22.5 66q3 27 18 36l40 13q23 6 26 18
q0 21 -30 21q-20 0 -29 -13l-6 3l-4 7l-3 7q0 5 9 13z" />
    <glyph glyph-name="quotedblbase" unicode="&#x201e;" horiz-adv-x="5" 
d="M-338 -61q17 17 38 17q22 0 38.5 -13.5t16.5 -36.5q0 -25 -8 -31.5t-34 -13t-30 -23.5q0 -36 25 -55q29 -24 64 -24q37 0 67.5 19t37.5 60q0 57 -59 76q-2 1 -4.5 2t-6.5 5l-4 6l-2 4q0 15 38 21l23 -13l27 -21l18 -30q3 -12 5 -22t2 -23q0 -38 -21 -68q-12 -26 -45 -39
q-33 -15 -76 -15q-19 0 -51 12t-56 39.5t-24 65.5q5 27 19 36l37 13q27 6 28 19q0 16 -29 16q-17 0 -34 -12q-8 0 -8 17q0 7 8 12z" />
    <glyph glyph-name="ellipsis" unicode="&#x2026;" horiz-adv-x="5" 
d="M-119 -148q0 17 -34 17q-29 0 -38 -21q0 -6 4 -11l13 -6l17 -4l31 8q6 3 7 17zM-220 -161q0 34 20 45q23 10 55 10l-9 6l-12 6l-18 5l-28 4q-27 0 -42.5 -4.5t-30.5 -18.5q-24 -23 -27 -57q0 -45 26 -62q22 -16 66 -22q45 0 71 25l10 4q6 0 10 -4q9 -8 9 -21
q0 -11 -9 -17t-19.5 -11.5t-18.5 -7.5l-24 -5l-29 -1q-36 0 -65 12.5t-48 40.5q-21 27 -21 65q0 29 17 59q15 30 50.5 48.5t79.5 18.5l25 -3l28 -9q25 -9 43 -25.5t25 -38.5q40 0 58 -36l5 -16l1 -23v-15q-3 -15 -17 -16q-14 0 -15 13v29l-1 12q0 5 -11 11l-20 2
q-8 -40 -64 -40h-7q-51 0 -63 37z" />
    <glyph glyph-name="dagger" unicode="&#x2020;" horiz-adv-x="5" 
d="M-476 -239q29 -8 29 -21q0 -5 -7 -11l-18 -6q-60 0 -103.5 30.5t-43.5 82.5q0 23 2 27q0 6 8.5 25.5t26.5 33.5l24 18q31 22 77 22q48 0 78 -18q27 -18 43 -49q14 -31 14 -59t17 -45l21 -18l19 -10l21 -4l18 -1q17 0 34 6l22 10l12 9q29 21 29 57q0 21 -5 30l-29 32
q-23 21 -56 21l-20 -2l-29 -5v4q-8 0 -14 3l-7 14q0 9 9 17q5 1 27 4.5t27 3.5q58 0 96.5 -35.5t38.5 -86.5q0 -30 -10 -50t-31 -38q-20 -15 -43 -24t-51 -9q-54 0 -94 36t-40 85q0 25 -16 42q-12 18 -38 28l-21 7l-22 3q-36 0 -66 -21t-30 -59q0 -35 29.5 -57t71.5 -22z
" />
    <glyph glyph-name="daggerdbl" unicode="&#x2021;" 
d="M-330 -145h108v117q0 8 6 14l14 6q6 0 14 -5q6 -6 6 -15v-137q0 -20 -20 -20h-128q-7 0 -13.5 5.5t-9.5 14.5q0 20 23 20z" />
    <glyph glyph-name="circumflex" unicode="&#x2c6;" 
d="M-258 -249q38 0 67.5 23.5t29.5 57.5q0 30 -27 56q-28 23 -70 23l-25 -3l-14 -3l-11 -5q-21 -9 -33 -28l-7 -13q-6 -12 -6 -27q0 -33 27.5 -57t68.5 -24zM-491 -250q40 0 68.5 23t28.5 58q0 30 -27 56q-28 23 -70 23q-40 0 -67.5 -23t-27.5 -56t27.5 -57t67.5 -24z
M-372 -234q-50 -56 -119 -56q-55 0 -94 35q-41 33 -41 86q0 30 18 60q18 25 50 44q30 15 67 15q33 0 65 -16q30 -17 51 -42q18 24 50.5 41.5t66.5 17.5l35 -3q7 -1 15 -4t17 -7q30 -14 51 -42q19 -30 19 -63q0 -36 -19 -62q-15 -27 -49.5 -43t-68.5 -16q-36 0 -64 14
q-30 13 -50 41z" />
    <glyph glyph-name="perthousand" unicode="&#x2030;" 
d="M-145 -221q-20 6 -37 23q-17 15 -27 39l-3 25q0 30 12.5 58t32.5 28l11 -4q35 -20 54 -49q19 -33 19 -65q0 -33 -18 -63q-20 -29 -51.5 -45t-66.5 -16q-37 0 -67.5 15.5t-50.5 44.5t-20 64q0 30 18 62q18 29 52 51l11 3q5 0 14 -6l5 -15q0 -9 -10 -16
q-23 -14 -36.5 -38.5t-13.5 -40.5q0 -33 28.5 -58.5t69.5 -25.5q51 0 74 29zM-188 -146q9 -21 28 -40q12 -11 28 -17q10 22 10 42q0 25 -12.5 44t-38.5 32q-15 -15 -15 -61z" />
    <glyph glyph-name="Scaron" unicode="&#x160;" 
d="M-154 -53q34 -15 54 -47t20 -67q0 -33 -18 -63t-48.5 -45t-69.5 -15q-36 0 -67.5 15.5t-50.5 44t-19 63.5q0 33 17.5 65.5t50.5 48.5l10 3q6 0 14 -7q2 -2 5 -15q0 -13 11 -26t28 -16q14 0 23 12t12 30q0 21 17 21zM-217 -154q-23 0 -42 12.5t-30 35.5q-24 -27 -24 -61
q0 -33 27 -59q27 -24 70 -24q42 0 69 24t27 59q0 36 -27 63q-9 -23 -28 -36.5t-42 -13.5z" />
    <glyph glyph-name="guilsinglleft" unicode="&#x2039;" horiz-adv-x="62" 
d="M-29 -75q27 0 47 -19.5t20 -46.5q0 -24 -20.5 -46t-46.5 -22q-30 0 -48 20.5t-18 52.5q0 27 20 44t46 17zM-29 -169q9 0 18 9t9 19t-8 18t-19 8q-5 0 -16 -6q-8 -6 -10 -15q0 -16 8 -24q6 -9 18 -9z" />
    <glyph glyph-name="OE" unicode="&#x152;" horiz-adv-x="160" 
d="M71 -76q27 0 47 -19.5t20 -47.5q0 -27 -20 -47t-47 -20t-46.5 20.5t-19.5 46.5q0 28 19 48q22 19 47 19zM71 -170q9 0 18 9t9 18q0 11 -6.5 17.5t-20.5 9.5q-26 0 -26 -27q0 -10 8 -19q6 -4 18 -8z" />
    <glyph glyph-name="c141" 
d="M-363 -202q33 56 73 117q14 21 37 55q8 14 14 14q11 -1 13 -2l13 -14q23 -36 36 -58q42 -68 66 -108q6 -13 7 -17q3 -9 0 -20q-1 -5 -13 -14.5t-27 -15.5q-10 -3 -19 -6.5t-36.5 -6t-42.5 -2.5q-18 0 -28 2.5t-21 4.5l-54 14q-11 2 -17 9.5t-8 10.5q-5 6 -5 10
q1 9 6 17.5t6 9.5zM-140 -233q5 3 1.5 10.5t-4.5 9.5l-87 153q-7 -11 -24 -35t-27 -41q-3 -5 -13.5 -21.5t-17.5 -31.5q-3 -11 -10 -25q-1 -3 -5 -8q3 -14 19 -20q6 -3 28.5 -5.5t37.5 -2.5q30 2 49 2q7 -1 25 4t28 11z" />
    <glyph glyph-name="quoteleft" unicode="&#x2018;" horiz-adv-x="240" 
d="M73 548q34 16 56 16q31 0 51.5 -15.5t24.5 -44.5q-3 -31 -25.5 -47.5t-50.5 -16.5q-29 0 -56 18q-24 18 -28 50q0 63 36.5 99.5t107.5 48.5v-16l-25 -3q-8 0 -32.5 -13.5t-41.5 -36t-17 -39.5z" />
    <glyph glyph-name="quoteright" unicode="&#x2019;" horiz-adv-x="240" 
d="M177 547q-34 -16 -56 -16q-29 0 -53 15q-17 13 -23 45q3 32 25 48t51 16q30 0 57 -18q24 -20 27 -50q0 -63 -36 -99.5t-108 -48.5v16h11q6 0 14 2l32 15q26 15 42.5 36.5t16.5 38.5z" />
    <glyph glyph-name="quotedblleft" unicode="&#x201c;" horiz-adv-x="440" 
d="M77 568q35 16 56 16q31 0 51.5 -15.5t24.5 -44.5q0 -12 -6.5 -25t-18.5 -22q-23 -17 -51 -17q-29 0 -56 18q-24 18 -28 50q0 63 36.5 99.5t107.5 48.5v-16l-25 -3q-8 0 -32.5 -13.5t-41.5 -36t-17 -39.5zM273 568q34 16 56 16q31 0 51.5 -15.5t24.5 -44.5
q-3 -31 -25.5 -47.5t-50.5 -16.5q-29 0 -56 18q-24 18 -28 50q0 63 36.5 100.5t107.5 47.5v-16l-25 -3q-8 0 -32.5 -13.5t-41.5 -36t-17 -39.5z" />
    <glyph glyph-name="quotedblright" unicode="&#x201d;" horiz-adv-x="440" 
d="M378 567q-35 -16 -56 -16q-29 0 -53 15q-17 13 -23 45q3 32 24 48l16 9q18 7 36 7q30 0 54 -18t30 -50q0 -63 -36 -99.5t-108 -48.5v16h11q6 0 14 2l32 15q26 15 42.5 36.5t16.5 38.5zM182 567q-34 -16 -56 -16q-29 0 -53 15q-17 13 -23 45q3 32 24 48l16 9q18 7 36 7
q29 0 53.5 -17.5t30.5 -50.5q0 -63 -36 -99.5t-108 -48.5v16h11q6 0 14 2l32 15q26 15 42.5 36.5t16.5 38.5z" />
    <glyph glyph-name="bullet" unicode="&#x2022;" horiz-adv-x="345" 
d="M171 291q58 0 97.5 -38t39.5 -93q0 -57 -36.5 -96.5t-94.5 -39.5q-56 0 -96.5 37.5t-40.5 92.5q0 58 38 97.5t93 39.5z" />
    <glyph glyph-name="endash" unicode="&#x2013;" horiz-adv-x="560" 
d="M79 175h410q8 0 17 -5.5t9 -14.5q0 -6 -6.5 -13t-19.5 -7h-410q-26 0 -26 20q0 6 7 13q7 5 19 7z" />
    <glyph glyph-name="emdash" unicode="&#x2014;" horiz-adv-x="770" 
d="M65 175h637q7 0 13.5 -6.5t6.5 -13.5q-1 -3 -1.5 -5.5t-4.5 -8t-14 -6.5h-637q-20 0 -20 20q0 7 4.5 12t15.5 8z" />
    <glyph glyph-name="tilde" unicode="&#x2dc;" horiz-adv-x="250" 
d="M177 8q-34 -16 -56 -16q-29 0 -53 15q-17 13 -23 45q3 32 25 48t51 16t53.5 -17.5t30.5 -50.5q0 -39 -15.5 -69t-46 -50t-82.5 -29v16l25 3q11 2 32 14q26 15 42.5 35.5t16.5 39.5z" />
    <glyph glyph-name="trademark" unicode="&#x2122;" horiz-adv-x="635" 
d="M525 337v180l-90 -220h-5l-95 220v-185q0 -11 5 -16l25 -4v-15h-75v15q30 0 30 20v180q0 11 -2.5 14.5t-12.5 5.5h-10v15h65l80 -190l80 190h70v-15h-15q-15 0 -15 -10v-185q0 -15 3 -21q4 -4 22 -4h5v-15h-95v15h5q18 0 21.5 4t3.5 21zM130 337v190h-25
q-29 0 -39.5 -7.5t-10.5 -32.5h-10v60h205v-60h-15q0 22 -8.5 31t-36.5 9h-25v-190q0 -20 5 -25h35v-15h-115v15h35q5 5 5 25z" />
    <glyph glyph-name="scaron" unicode="&#x161;" horiz-adv-x="440" 
d="M200 185v135q0 6 6 13t14 7q9 -3 13 -6t7 -14v-135h135q7 0 13.5 -6.5t6.5 -13.5q-1 -3 -1.5 -5.5t-4.5 -8t-14 -6.5h-135v-135q0 -7 -6.5 -13.5t-13.5 -6.5q-20 0 -20 20v135h-135q-20 0 -20 20q0 7 4.5 12t15.5 8h135z" />
    <glyph glyph-name="guilsinglright" unicode="&#x203a;" horiz-adv-x="5" 
d="M-358 -69q28 0 48 -19q19 -22 19 -47q0 -27 -20.5 -47.5t-46.5 -20.5q-24 0 -45 20.5t-21 47.5q0 14 8.5 30t24 26t33.5 10zM-358 -163q9 0 18 9t9 19q0 9 -6.5 16t-20.5 10q-12 0 -19 -7t-7 -19q0 -7 9 -17t17 -11z" />
    <glyph glyph-name="oe" unicode="&#x153;" horiz-adv-x="5" 
d="M-329 -250q37 0 66.5 23.5t29.5 57.5q0 31 -28 56q-28 23 -68 23q-28 0 -49 -9.5t-35 -29.5l-7 -13q-6 -12 -6 -27q0 -35 28.5 -58t68.5 -23zM-109 -290q-24 8 -24 22q0 6 8 13l18 5q54 0 82 25t28 55q0 28 -28 56q-31 25 -71 25t-69 -25q-21 -17 -29 -66
q-6 -48 -40.5 -79t-94.5 -31q-58 0 -97.5 34.5t-39.5 86.5q0 29 18 61q20 27 50 43q32 15 69 15t68.5 -15t50.5 -44l7 11l12 14q44 35 96 35q51 0 94 -35t43 -86q0 -49 -41.5 -84.5t-109.5 -35.5z" />
    <glyph glyph-name="c157" horiz-adv-x="440" 
d="M497 137q-17 -9 -37 -36q-17 -26 -17 -44l26 -6l15 -1q42 0 72 21t61 70l-22 8q-20 6 -39 6q-30 0 -59 -18zM387 329q47 33 102 33q43 0 79 -20q35 -17 63.5 -58t28.5 -96q0 -43 -19 -81q-33 -56 -84 -85q-40 -20 -89 -20l-23 1q-15 0 -26 14l-13 24q0 22 20.5 56.5
t52.5 51.5q35 22 71 22q33 0 68 -16l3 33q0 39 -24 77q-39 57 -107 57q-43 0 -81 -26l-25 -19q-3 -3 -9.5 -11t-7 -10t0 -5.5t-8 -4t-18.5 -0.5q-4 5 -10 14q-14 20 -18 18q-26 -12 -47 -34q-26 -28 -29 -58q0 -17 23 -51t43 -51q9 -8 21.5 3.5t21.5 38.5q2 5 13 5
q6 0 10.5 -1t3.5 -4q-10 -38 -18.5 -54t-31.5 -40q-14 -15 -41.5 -21.5t-55.5 -6.5q-24 0 -56.5 7.5t-50.5 18t-33.5 36.5t-28.5 50q0 -1 9 -2t12 -1h15t12 1q4 0 10 -13q15 -34 27.5 -41.5t37 -14.5t41.5 -7q15 0 38 10q7 3 20 10q-1 4 -25 30q-14 15 -25.5 35t-12.5 23
q-6 14 -6 28q0 8 2 19.5t10 26t17 28.5q8 16 22 25t22 25q-8 3 -12 4q-31 12 -45 12q-57 0 -96 -40q-14 -14 -18.5 -24t-8.5 -32q-2 -5 -19 -5q-11 0 -21.5 3t-9.5 8q3 13 8 22q9 14 14 22q23 41 63.5 63.5t87.5 22.5q46 0 86 -23q20 -11 34 -31q3 -4 22 12q6 5 19 17z" />
    <glyph glyph-name="Ydieresis" unicode="&#x178;" 
d="M-242 -206q4 41 5.5 89.5t1.5 87.5v13.5v5.5q0 7 6.5 13.5t13.5 6.5q3 -1 5.5 -1.5t8.5 -5t6 -13.5l-1 -189q0 -12 -4.5 -30.5t-16.5 -33.5q-8 -9 -18 -14q-5 -2 -16.5 -6t-24.5 -5t-24 -2q-20 -3 -20 20q1 3 1.5 5.5t4.5 8t14 6.5q11 -3 16 -3q10 0 15 3.5t7 4.5t12 11
q8 15 8 28z" />
    <glyph glyph-name="nonbreakingspace" unicode="&#xa0;" horiz-adv-x="500" 
 />
    <glyph glyph-name="exclamdown" unicode="&#xa1;" horiz-adv-x="254" 
d="M182 -290h-142v942h144q13 0 22 -5q9 -3 10 -17q0 -22 -32 -22h-104v-856h102q33 0 33 -21t-33 -21z" />
    <glyph glyph-name="cent" unicode="&#xa2;" horiz-adv-x="254" 
d="M74 650h142v-942h-144q-31 0 -31 22t31 22h104v856h-102q-33 0 -33 21t33 21z" />
    <glyph glyph-name="sterling" unicode="&#xa3;" horiz-adv-x="462" 
d="M337 299v-40l-60 5l-84 2q0 -53 -19 -101q-10 -25 -23.5 -47.5t-35.5 -48.5l45 3l39 3l80 -3l85 -3q12 0 17 4l9 22l6 39h21v-111q-17 -17 -33 -20l-69 3l-82 10q-16 5 -35.5 8.5t-40 6.5t-34 3.5t-21.5 0.5l-33 -32h-20v32q24 27 40 27q5 2 13 21.5t18 66.5l5 42l2 48
v26q-57 0 -78 -7l6 40h72v85q0 14 5 28l9 31q18 48 105 98q35 27 99 27q36 0 78 -21q-6 -32 -6 -110h-27q0 43 -11 62q-9 20 -42 30h-32q-60 0 -87 -48q-11 -24 -18 -53q-3 -16 -5 -31t-2 -32v-73l57 5z" />
    <glyph glyph-name="currency" unicode="&#xa4;" horiz-adv-x="442" 
d="M203 25v218l-41 3l-18 4l-20 7q-31 9 -52.5 37.5t-21.5 75.5q0 64 41.5 106t111.5 54v51h33q0 -30 -6 -51q79 0 134 -32q-13 -36 -13 -96h-25v32v26q-3 21 -35 34l-30 8l-31 3v-205q34 0 67 -9q31 -7 56 -22q43 -28 43 -96q0 -53 -21.5 -89.5t-61.5 -58.5
q-32 -17 -83 -26q6 -26 6 -78h-33v78q-38 0 -69.5 5t-45.5 8.5t-38 12.5q13 78 13 114h25v-44v-26q9 -15 46 -31q42 -13 69 -13zM230 237v-212q40 0 73 36q29 32 29 78q0 50 -26 70q-22 19 -76 28zM203 306v199q-40 0 -67 -33q-22 -31 -22 -76q0 -43 22 -65q19 -16 67 -25z
" />
    <glyph glyph-name="yen" unicode="&#xa5;" horiz-adv-x="476" 
d="M304 296h96v-26h-109q-8 -16 -10.5 -28t-2.5 -24v-26h122v-31h-122v-63q0 -48 6 -65q0 -6 26 -6l31 -6v-20h-94h-90v20l31 6q23 0 27.5 10t4.5 61v63h-120v31h120v14q0 15 -6 26l-12 38h-102v26h83l-58 127q-12 38 -30 60q-15 23 -47 23v26l71 11q38 0 38 -25l3 -5l8 -16
l15 -29l77 -198l57 120l15 41l20 55l21 57h58v-11q-53 -62 -102 -179z" />
    <glyph glyph-name="brokenbar" unicode="&#xa6;" horiz-adv-x="702" 
d="M151 243v-152q0 -47 7 -56t22 -12h30v-25l-44 3l-38 4l-44 -4l-44 -3v25h26q18 0 28 13l2 18l3 37v338l-3 35l-2 21q-4 7 -28 7l-26 5v25l44 -3l44 -3l38 3l44 3v-25l-30 -5q-16 0 -22.5 -6.5t-6.5 -56.5v-162l160 199l19 31v25l26 -3l27 -3l22 3l22 3v-25h-25
q-25 -9 -44 -31l-154 -180l188 -231q22 -29 38 -32h10v-25l-17 3l-21 4l-18 -4l-26 -3l-196 256zM455 110h19v-30q0 -33 22.5 -47.5t49.5 -14.5q28 0 51 17q21 18 21 45q0 17 -8 33t-20 17l-42 14l-45 17q-26 17 -36 34q-12 17 -12 48q0 34 14.5 59.5t39 38.5t51.5 13
q41 0 78 -19v-13v-11q0 -19 -1 -35t-4 -29h-15v20q0 23 -21 42.5t-45 19.5q-33 0 -45.5 -18.5t-12.5 -43.5q0 -45 62 -57q34 -8 59 -21q21 -9 31 -29l8 -21q3 -12 3 -29q0 -40 -16 -65.5t-48 -44.5q-29 -15 -61 -15h-22q-11 3 -22.5 5t-37.5 15q5 42 5 105z" />
    <glyph glyph-name="section" unicode="&#xa7;" horiz-adv-x="394" 
d="M28 -106l264 630q6 12 17 12q7 0 15 -5q6 -6 6 -15l-2 -8l-264 -630q-6 -12 -17 -12q-5 0 -12.5 4.5t-8.5 15.5z" />
    <glyph glyph-name="dieresis" unicode="&#xa8;" horiz-adv-x="486" 
d="M235 512v81h25v-80h24q54 0 91 -24t37 -79q0 -47 -33.5 -77t-88.5 -44q41 0 76.5 -12.5t55.5 -38t20 -65.5q0 -36 -18 -72t-58 -64q-39 -24 -106 -33v-84h-25v82h-11l-37 4l-42 4h-14l-25 -4l-41 -4v19l19 6q18 8 18 48v348q0 48 -6 54t-31 6l-24 6v24l56 -3l48 -3z
M260 36q49 6 79.5 40t30.5 85q0 93 -110 108v-233zM235 270h-11h-49v-231l21 -4l34 -1h5v236zM260 298q38 9 61.5 35t23.5 66q0 69 -85 82v-183zM235 483h-5q-34 0 -55 -6v-176q14 -7 49 -7h11v189z" />
    <glyph glyph-name="copyright" unicode="&#xa9;" horiz-adv-x="540" 
d="M269 625q60 0 111 -30.5t86 -81.5q30 -53 30 -111q0 -60 -30.5 -112.5t-83.5 -81.5q-27 -13 -54 -21q-13 -3 -27.5 -5t-31.5 -2q-58 0 -105.5 29t-81.5 81q-15 26 -23 53.5t-8 58.5q0 58 28.5 109t81 82.5t108.5 31.5zM269 600q-52 0 -96 -27.5t-70.5 -74.5t-26.5 -96
q0 -51 25.5 -96.5t70.5 -73t97 -27.5q56 0 99.5 25.5t70.5 71.5t27 100q0 51 -24.5 96.5t-71.5 73.5t-101 28zM365 513v-65h-15q0 29 -18.5 47t-47.5 18q-42 0 -66.5 -32t-24.5 -79q0 -39 24 -77q25 -34 67 -34q47 0 76 51l10 -10q-9 -22 -37 -41q-29 -15 -59 -15
q-57 0 -88 34q-33 33 -33 87q0 59 35 95t91 36q45 0 86 -15z" />
    <glyph glyph-name="ordfeminine" unicode="&#xaa;" horiz-adv-x="5" 
d="M-289 -20v-252q0 -16 -20 -16h-52q-16 0 -16 20q0 15 16 16h32v232q0 6 6.5 13t13.5 7q10 0 15 -5q2 -2 5 -15zM-104 -20v-232h40q9 0 14 -4l6 -12q0 -20 -20 -20h-56q-9 0 -14 3l-6 13v252q0 20 20 20q6 0 10 -4zM-196 -268q0 -9 -3.5 -13t-14.5 -7q-18 0 -18 20v248
q0 9 3.5 13t14.5 7q18 0 18 -20v-248z" />
    <glyph glyph-name="guillemotleft" unicode="&#xab;" horiz-adv-x="124" 
d="M521 -16v-231h63q21 0 21 -21t-21 -21h-84q-21 0 -21 21v252q0 9 6 15t15 6q8 0 14 -5.5t7 -15.5zM408 -20v-123q0 -69 -30 -113q-14 -17 -43 -29l-25 -7l-33 -4l-86 -2h4q-64 0 -109 42q-42 48 -42 113v118v516q0 67 38 114q42 42 109 42h223q72 0 117 -63
q21 -30 21 -55v-12q0 -17 -21 -17t-21 17v12l-5 18l-7 16q-34 46 -84 46h-223q-28 0 -50 -11q-22 -9 -30 -23q-29 -29 -29 -84v-121v-513q0 -27 6 -44l13 -24l14 -16l24 -18l22 -8q12 -3 34 -3l-4 -4h13l42 1q23 0 40 4q20 0 34.5 6t24.5 18l10 19l7 21l3 19l1 29v123
q0 9 7.5 15t13.5 6q21 0 21 -21z" />
    <glyph glyph-name="logicalnot" unicode="&#xac;" horiz-adv-x="98" 
d="M743 -16v-224h64q9 0 14.5 -5t5.5 -11q0 -20 -20 -20h-84q-9 0 -12.5 3.5t-3.5 16.5v240q0 20 20 20q2 -1 4.5 -2t6.5 -4zM632 -18v-118q0 -39 -36 -92q-18 -21 -49.5 -34.5t-58.5 -13.5h-296q-66 0 -100 44h-4q-40 46 -40 104v124v512q0 43 36 100q49 40 108 40h468
q37 0 67 -17q30 -15 45 -39q20 -29 20 -80v-12q0 -15 -16 -16q-17 0 -20 16v12q0 18 -5 32q-3 17 -11 24q-13 17 -35 30.5t-45 13.5h-468q-51 0 -76 -32q-28 -28 -28 -72v-148v-488q0 -24 6 -42.5t20 -33.5t34 -25q21 -7 44 -7h296q41 0 80 36h-4q28 28 28 64v118q0 5 6 14
q6 6 14 6q9 0 14.5 -5.5t5.5 -14.5z" />
    <glyph glyph-name="minus" unicode="&#xad;" horiz-adv-x="144" 
d="M528 -18v-231h25q21 0 21 -17q0 -21 -21 -21h-46q-21 0 -21 17v252q0 9 7.5 15t13.5 6q21 0 21 -21zM415 -18v-121q0 -35 -6 -61q-3 -21 -23 -41q-15 -21 -50.5 -34t-98.5 -13l-41 1q-63 0 -110 42q-42 50 -42 114v117v517q0 66 38 113l17 13l26 16q31 13 66 13h75
q27 0 28 -16q0 -20 -32 -20l-71 -1q-28 0 -49 -9.5t-30 -24.5q-30 -30 -30 -84v-122v-512q0 -19 1 -27t6.5 -19.5t13 -21.5t13.5 -16q21 -18 35 -25q18 -5 45 -5h39l63 2q22 3 29 8q9 3 23 17q14 17 18.5 30.5t4.5 48.5v121q0 8 7.5 14.5t13.5 6.5q9 0 15 -6t6 -15z" />
    <glyph glyph-name="registered" unicode="&#xae;" horiz-adv-x="600" 
d="M234 638q62 0 112 -29t83 -84t33 -115q0 -59 -30.5 -111t-82.5 -81.5t-115 -29.5q-41 0 -81 15t-75 51l-28 33l-11 18l-10 20q-17 43 -17 85q0 58 30.5 111.5t82.5 85t109 31.5zM234 608q-52 0 -96 -27.5t-70 -74t-26 -96.5q0 -51 24.5 -96.5t70 -73t97.5 -27.5
q51 0 95 26t75 72q28 47 28 99q0 50 -27 96.5t-72.5 74t-98.5 27.5zM133 543h96q97 0 97 -62q0 -27 -21 -45q-21 -15 -51 -21q33 -3 57 -65l5 -11l7 -17l8 -8q9 -9 20 -10v-10h-15q-24 0 -35 10q-8 5 -12 13l-10 17l-8 16q-9 30 -27 50q-10 10 -35 10h-10v-81l2 -19
q3 -6 13 -6h10v-10h-91v10h10q21 0 21 20v187l-3 10l-10 7l-8 3h-10v12zM199 501v-81h15q77 0 77 56q0 50 -62 50h-15q-9 0 -13 -5z" />
    <glyph glyph-name="macron" unicode="&#xaf;" horiz-adv-x="140" 
d="M840 -22v-235h33q8 0 13 -5q5 -3 8 -12q0 -21 -21 -21h-54q-9 0 -12.5 3.5t-4.5 17.5v252q0 21 21 21q2 -1 4.5 -2t7.5 -5.5t5 -13.5zM738 -21v-127q0 -43 -38 -97q-21 -21 -51 -36q-34 -14 -63 -14h-389q-71 0 -105 46h-4q-42 51 -42 109v131v512q0 49 38 105
q50 42 113 42h280q14 0 27 -5.5t13 -12.5q0 -20 -41 -20h-279q-50 0 -79.5 -32.5t-29.5 -76.5v-130v-513q0 -26 6 -46.5t23 -37.5q29 -29 80 -29h389q20 0 46 12q24 9 38 26h-4q30 30 30 67v127q0 9 6 15t15 6q10 0 15.5 -5.5t5.5 -15.5z" />
    <glyph glyph-name="degree" unicode="&#xb0;" horiz-adv-x="144" 
d="M528 -18v-231h25q21 0 21 -17q0 -21 -21 -21h-46q-21 0 -21 17v252q0 9 7.5 15t13.5 6q21 0 21 -21zM415 -18v-121q0 -35 -6 -61q-3 -21 -23 -41q-15 -21 -50.5 -34t-98.5 -13l-41 1q-63 0 -110 42q-42 50 -42 114v117v517q0 66 38 113l17 13l26 16q31 13 66 13h75
q27 0 28 -16q0 -20 -32 -20l-71 -1q-28 0 -49 -9.5t-30 -24.5q-30 -30 -30 -84v-122v-512q0 -19 1 -27t6.5 -19.5t13 -21.5t13.5 -16q21 -18 35 -25q18 -5 45 -5h39l63 2q22 3 29 8q9 3 23 17q14 17 18.5 30.5t4.5 48.5v121q0 8 7.5 14.5t13.5 6.5q9 0 15 -6t6 -15z" />
    <glyph glyph-name="plusminus" unicode="&#xb1;" horiz-adv-x="438" 
d="M85 153q0 -52 40 -92q25 -25 44 -33l24 -8l23 -2q0 67 -31 102q-10 11 -38.5 22t-61.5 11zM88 177q80 0 119 -41t39 -98q0 -22 -6 -39.5t-20 -18.5q-39 0 -66 11.5t-57 41.5q-51 51 -51 123t51.5 123.5t122.5 51.5t123 -52q15 -13 24 -29l16 -33q4 -15 7 -35.5t3 -41.5
v-285q0 -7 -6.5 -13.5t-13.5 -6.5q-20 0 -20 20v285l-1 27q0 16 -7 36q-6 25 -27.5 46t-45.5 31.5t-52 10.5q-54 0 -95 -40q-30 -30 -37 -74z" />
    <glyph glyph-name="twosuperior" unicode="&#xb2;" horiz-adv-x="183" 
d="M91 112q27 0 47 -20q20 -18 20 -46t-20 -48t-47 -20q-24 0 -47 21q-19 22 -19 47q0 27 19.5 46.5t46.5 19.5zM91 18q9 0 18 9t9 19q0 9 -6.5 16t-20.5 10q-26 0 -26 -26q0 -11 8 -20q6 -4 18 -8z" />
    <glyph glyph-name="threesuperior" unicode="&#xb3;" horiz-adv-x="183" 
d="M89 221q27 0 47 -20q20 -18 20 -46q0 -27 -20.5 -47.5t-46.5 -20.5q-23 0 -47 21q-19 22 -19 47q0 27 18.5 46.5t47.5 19.5zM89 127q9 0 18 9t9 19q0 11 -8 18q-4 5 -19 8q-26 0 -26 -26q0 -10 8.5 -19t17.5 -9z" />
    <glyph glyph-name="acute" unicode="&#xb4;" horiz-adv-x="556" 
d="M250 164q0 -30 -15 -30q-11 0 -19 30q0 57 12 88t56 72l57 56q41 46 41 94v6q0 58 -38 97t-110 39q-75 0 -119 -56q-36 -47 -36 -109l1 -13l1 -8q0 -24 -16 -24q-6 0 -13 8q-5 8 -5 25l-1 18q0 44 14 80q16 37 53 69q25 20 56 30.5t66 10.5q74 0 124 -44q54 -48 54 -130
q0 -39 -18 -74q-12 -24 -61 -73l-62 -64q-8 -14 -15 -39t-7 -59zM241 65q27 0 47 -20t20 -46q0 -28 -20 -48t-47 -20t-46.5 20.5t-19.5 47.5l1 15q1 3 2 6.5t6.5 13t21.5 21.5q17 10 35 10zM241 -29q9 0 18 9t9 19t-8 18l-9 6l-10 2q-12 0 -19 -7t-7 -19q0 -10 7.5 -17.5
t18.5 -10.5z" />
    <glyph glyph-name="mu" unicode="&#xb5;" horiz-adv-x="590" 
d="M463 134q39 0 57.5 -21.5t18.5 -57.5q0 -66 -38 -122q-42 -63 -104 -63q-45 0 -65.5 28t-20.5 69q0 59 47 113t105 54zM449 480l-346 -620h-34l321 572l-36 -14l-40 -4l-27 1l-20 6q6 -20 6 -32q0 -59 -39 -119q-44 -65 -107 -65q-30 0 -54 21q-30 27 -30 75
q0 57 46.5 113t106.5 56q24 0 33 -5q11 -3 21 -15q13 -10 21 -12.5t18 -4.5t22 -2q41 0 70 16q13 6 41 33h27zM472 111q-43 0 -80 -71q-28 -61 -28 -94q0 -26 12 -40.5t35 -14.5q42 0 78 57q32 52 32 102q0 26 -14 43q-12 18 -35 18zM141 229q39 0 76 51t37 113q0 12 -6 33
q-24 6 -35 14q-9 9 -14 9q-30 0 -68 -60q-34 -63 -34 -107q0 -53 44 -53z" />
    <glyph glyph-name="paragraph" unicode="&#xb6;" horiz-adv-x="400" 
d="M358 -202q0 -19 -6.5 -34t-21.5 -27q-23 -23 -57 -23h-8q-18 0 -31 5q-13 3 -26 13q-39 24 -39 80v9q0 28 9 55l13 29q18 36 60 89q27 34 53 76l7 13l7 25q6 18 6 40l-1 34q0 11 -6.5 31t-28.5 43q-42 36 -92 36q-25 0 -45 -9.5t-45 -28.5q-26 -31 -38 -90
q-3 -23 -17 -26q-12 0 -19 22q0 75 46 122q21 24 54 37t64 13q74 0 120 -52q48 -44 48 -132q0 -51 -18 -87l-23 -38l-33 -43l-35 -44l-25 -39l-16 -40q-6 -23 -6 -45q0 -34 26 -50q13 -8 33 -8q48 0 48 48q0 10 5.5 16t13.5 6q15 0 24 -26z" />
    <glyph glyph-name="periodcentered" unicode="&#xb7;" horiz-adv-x="386" 
d="M183 182v4q0 20 -12 53l-9 18l-9 20l-3 11q0 16 12 28t33 12q18 0 24 -12q12 -6 12 -28q0 -18 -16 -41q-5 -9 -16 -57l1 -7l3 -1q12 0 20 8l6 6l8 5l4 5l2 5l29 40q6 12 32 12q8 0 21 -11t16 -29q0 -14 -8 -25l-21 -12l-10 -3l-22 -1h-20q-11 0 -26.5 -6.5t-18.5 -13.5
l8 -6l16 -6l37 -8l2 2l2 2h8q15 0 34 -11.5t19 -29.5l-1 -11l-7 -17q-20 -12 -29 -12q-25 0 -32 16l-24 32l-10 12l-11 13q-18 12 -24 12l-4 -8q8 -46 16 -57l10 -18q6 -11 6 -26q0 -18 -8 -29l-28 -12q-13 0 -28 8q-11 12 -13 28q1 3 1.5 8t3.5 11l12 30q12 36 12 53v8
l-12 -8l-25 -21l-3 -6l-5 -6q-9 -9 -14.5 -21t-17.5 -19l-20 -4q-32 0 -41 40q0 15 20 29q12 12 37 12h24l32 8l13 8l4 4q0 6 -13 12l-36 8h-20q-5 0 -9.5 1t-15.5 7q-16 0 -24 8q-12 15 -12 25q0 6 6 18l6 10q15 15 29 16l9 -2l11 -5l8 -5q17 -17 24 -28l7 -16l13 -17
q6 -12 21 -12h4z" />
    <glyph glyph-name="periodcentered" unicode="&#x2219;" horiz-adv-x="386" 
d="M183 182v4q0 20 -12 53l-9 18l-9 20l-3 11q0 16 12 28t33 12q18 0 24 -12q12 -6 12 -28q0 -18 -16 -41q-5 -9 -16 -57l1 -7l3 -1q12 0 20 8l6 6l8 5l4 5l2 5l29 40q6 12 32 12q8 0 21 -11t16 -29q0 -14 -8 -25l-21 -12l-10 -3l-22 -1h-20q-11 0 -26.5 -6.5t-18.5 -13.5
l8 -6l16 -6l37 -8l2 2l2 2h8q15 0 34 -11.5t19 -29.5l-1 -11l-7 -17q-20 -12 -29 -12q-25 0 -32 16l-24 32l-10 12l-11 13q-18 12 -24 12l-4 -8q8 -46 16 -57l10 -18q6 -11 6 -26q0 -18 -8 -29l-28 -12q-13 0 -28 8q-11 12 -13 28q1 3 1.5 8t3.5 11l12 30q12 36 12 53v8
l-12 -8l-25 -21l-3 -6l-5 -6q-9 -9 -14.5 -21t-17.5 -19l-20 -4q-32 0 -41 40q0 15 20 29q12 12 37 12h24l32 8l13 8l4 4q0 6 -13 12l-36 8h-20q-5 0 -9.5 1t-15.5 7q-16 0 -24 8q-12 15 -12 25q0 6 6 18l6 10q15 15 29 16l9 -2l11 -5l8 -5q17 -17 24 -28l7 -16l13 -17
q6 -12 21 -12h4z" />
    <glyph glyph-name="cedilla" unicode="&#xb8;" horiz-adv-x="5" 
d="M-216 -250l25 3q13 4 24 11q19 11 34 35t15 50q0 28 -12.5 49.5t-36.5 38.5q-26 13 -49 13q-41 0 -69.5 -28.5t-28.5 -72.5q0 -40 29 -69.5t69 -29.5zM-432 -136h24l32 3q15 3 34 38q14 36 49.5 60.5t76.5 24.5q38 0 69 -18t50 -52.5t19 -70.5q0 -33 -18 -68
q-20 -32 -51.5 -51.5t-68.5 -19.5q-39 0 -66 17q-27 13 -50 48l-17 30q-5 13 -5 29q-3 -9 -10 -12l-14 -4h-8h-44q-12 0 -20 8q-9 6 -9 17q0 21 27 21z" />
    <glyph glyph-name="onesuperior" unicode="&#xb9;" horiz-adv-x="115" 
d="M260 -252q29 -6 32 -22q0 -18 -32 -18l-66 2q-65 0 -105 43q-45 44 -45 111v630q0 71 37 111q42 45 111 45h179q40 0 70 -20q27 -16 47 -43l15 -27q5 -13 5 -29v-11q0 -19 -20 -19t-20 19v11l-5 17l-7 15q-35 47 -85 47h-179q-51 0 -81 -33q-6 -7 -19 -33q-8 -22 -8 -50
v-630q0 -30 7.5 -46t25.5 -37q15 -15 33 -25l18 -4l26 -2z" />
    <glyph glyph-name="ordmasculine" unicode="&#xba;" horiz-adv-x="155" 
d="M572 -250q19 0 19 -19q0 -7 -4.5 -12.5t-14.5 -8.5h-359q-67 0 -108 43.5t-41 108.5v640q0 61 38 102q43 46 110 46h489q35 0 66 -18t50 -43q23 -34 23 -83v-11q0 -19 -20 -19t-20 19v11v16l-4 15q-5 22 -11 28q-9 15 -33.5 30t-50.5 15h-489q-51 0 -79.5 -31.5
t-28.5 -76.5v-640q0 -25 7 -42q6 -19 25 -39q31 -31 77 -31h359z" />
    <glyph glyph-name="guillemotright" unicode="&#xbb;" horiz-adv-x="440" 
d="M183 160l-96 96q-6 6 -6 14t4 12t16 9q6 0 14 -7l96 -95l95 95q6 6 14 7q7 0 13 -6q4 -2 8 -14q0 -9 -6 -15l-96 -96l96 -95q6 -6 6 -14t-6.5 -14.5t-14.5 -6.5q-6 0 -14 7l-95 95l-96 -95q-7 -7 -14 -7t-13 5l-7 16q0 5 6 14z" />
    <glyph glyph-name="onequarter" unicode="&#xbc;" horiz-adv-x="272" 
d="M60 359q19 -28 69 -28q25 0 42.5 10.5t31 30t13.5 41.5q0 19 -12 40q-9 20 -30 30q-19 11 -45 11q-17 0 -40 -9l-20 -12l-11 -10q-4 -4 -16 -7q-9 0 -11 9q1 4 3 7t6 8q9 11 35.5 24.5t53.5 13.5q31 0 58 -14q25 -15 40 -39t15 -52q0 -27 -16 -53q-12 -24 -40 -38.5
t-57 -14.5q-23 0 -48.5 9t-41.5 28q-7 5 -10 15l5 9l8 2q10 0 18 -11zM59 279h156l8 -6l2 -14l-2 -14l-5 -5l-3 -1h-156q-10 0 -10 20l3 14l3 3zM194 -4q-19 -8 -51 -8t-56.5 14.5t-42.5 38.5q-15 24 -15 53q0 25 15 52q6 13 17 22l24 17q28 14 58 14l27 -3q10 0 24 -9
q16 -8 38 -27l5 -12l-4 -9l-7 -3q-3 1 -6 3t-7 6q-8 9 -31 19q-20 11 -39 11q-28 0 -46 -11q-18 -9 -30 -30q-12 -18 -12 -40q0 -21 13 -41q9 -17 31 -30l21 -8l23 -3q24 0 41 7q15 8 28 21l10 3q3 -1 5.5 -2t7 -5t6.5 -17l-136 -188q-6 -4 -10 -5q-6 0 -10 5l-4 7v4l2 3z
" />
    <glyph glyph-name="onehalf" unicode="&#xbd;" horiz-adv-x="272" 
d="M60 358q19 -28 69 -28q25 0 42.5 10.5t31 30t13.5 41.5q0 19 -12 40q-9 20 -30 30q-19 11 -45 11q-17 0 -40 -9l-20 -12l-11 -10q-4 -4 -16 -7q-9 0 -11 9q1 4 3 7t6 8q9 11 35.5 24.5t53.5 13.5q31 0 58 -14q25 -15 40 -39t15 -52q0 -27 -16 -53q-12 -24 -40 -38.5
t-57 -14.5q-23 0 -48.5 9t-41.5 28q-7 5 -10 15l5 9l8 2q10 0 18 -11zM59 278h156l8 -6l2 -14l-2 -14l-5 -5l-3 -1h-156q-10 0 -10 20l3 14l3 3zM226 186v-267q0 -30 -13.5 -50t-36.5 -31.5t-40 -11.5q-18 0 -32.5 5t-27.5 13q-27 15 -31 44l2 5l5 4l10 3q9 0 9 -12
q0 -11 22.5 -24.5t42.5 -13.5q19 0 41.5 17.5t22.5 51.5v267q0 6 2 8l5 2l6 2l9 -3z" />
    <glyph glyph-name="threequarters" unicode="&#xbe;" horiz-adv-x="840" 
d="M388 248v-30q16 -30 16 -67q0 -43 -16 -75v-17q0 -14 12 -29q12 -11 25 -13q14 0 26 12t12 30v17q-17 37 -17 79v-4l2 22l7 24l8 26v25q0 16 -11 28q-9 14 -27 14q-12 0 -24.5 -12.5t-12.5 -29.5zM183 -11q-31 0 -64.5 27t-47.5 55q-20 43 -20 80q0 54 34 101
q24 34 62 56q40 20 81 20q54 0 101 -34l26 -18q3 13 17 28q23 24 53 24q33 0 55 -23q12 -14 18 -28l24 17q57 34 105 34q45 0 81 -20q37 -18 62 -56q29 -41 29 -101q0 -43 -19 -82q-18 -48 -69 -72q-44 -19 -91 -19q-29 0 -43 5q-12 6 -13 13q0 25 25 25h13q41 0 62 3
q18 0 41 13q31 18 41 50q15 32 15 64q0 42 -25 80q-37 55 -109 55q-42 0 -80 -26l-20 -15l-9 -8l-13 -19v-4q-2 -10 -4 -12l-8 -21q-2 -8 -3 -15t-2 -15q0 -26 13 -59l4 -12v-21q0 -31 -23 -55.5t-57 -24.5q-33 0 -55 23q-20 25 -20 57v21v12q17 31 17 59t-17 55v6l-4 6
l-11 18l-8 9l-19 15q-38 26 -80 26q-68 0 -113 -55h4q-11 -18 -18 -39.5t-7 -40.5q0 -31 14.5 -59t43.5 -46v-4q42 -21 114 -21q25 -6 25 -21q0 -8 -13 -17q-60 0 -95 6zM220 -281q-21 14 -36.5 38t-18.5 54q0 51 42.5 86.5t96.5 35.5q35 0 66 -16l12 -6l16 -11
q9 -7 20.5 -23t17.5 -32t6 -34q0 -20 -5 -34q-3 -18 -15 -33h33l8 8q6 8 11 23l2 36q0 28 -17 55q0 29 21 29h139v17q0 9 7.5 15t13.5 6q9 0 15 -6t6 -15v-38q0 -21 -21 -21h-131q5 -18 5 -42q0 -54 -21 -84l-13 -13q-3 -5 -17 -8h-84q-17 0 -17 17v8l1 12l8 5q29 23 29 63
q0 30 -29 56q-29 24 -67 24q-40 0 -68.5 -22.5t-28.5 -57.5q0 -15 12 -36t22 -27q6 -5 6 -12q0 -22 -17 -22z" />
    <glyph glyph-name="questiondown" unicode="&#xbf;" horiz-adv-x="838" 
d="M380 249v-30q16 -30 16 -67q0 -43 -16 -75v-17q0 -14 12 -29q12 -11 25 -13q14 0 26 12t12 30v17q-17 37 -17 79v-4l2 22l7 25l8 25v25q0 16 -11 28q-9 14 -27 14q-12 0 -24.5 -12.5t-12.5 -29.5zM434 -293h-164q-45 0 -71 17q-21 21 -21 63v80q3 30 21 48q18 15 42 15
q41 0 67 -26q0 -14 -5.5 -21.5t-23.5 -7.5q-17 17 -34 17q-11 0 -20 -6q-6 -6 -9 -19v-80q0 -21 13 -31.5t41 -10.5l126 -1q-8 10 -14 32l-2 36q0 19 5 32l7 17l10 14q18 27 52 43l32 12l36 4q37 0 66 -16q31 -15 51 -43q18 -29 18 -63q0 -29 -16 -52q-14 -24 -35 -40
l-18 -5q-19 0 -19 18q0 10 12 16q10 7 23 29q8 13 11 34q0 33 -28 56.5t-65 23.5q-36 0 -69 -24q-31 -25 -31 -56l1 -17q0 -6 7 -17q6 -16 21.5 -25t15.5 -23q0 -8 -8 -14.5t-25 -8.5zM86 152q0 -31 14.5 -59t43.5 -46v-4q42 -21 114 -21q25 -6 25 -21q0 -8 -13 -17l-55 3
l-40 3q-27 0 -63 24q-33 24 -49 58q-19 40 -19 80q0 53 33 101q26 38 64.5 57t78.5 19q51 0 101 -34l26 -18q3 13 17 28q23 24 53 24q33 0 55 -23q12 -14 18 -28l24 17q57 34 105 34q42 0 80 -18.5t63 -57.5q29 -41 29 -101q0 -43 -19 -82q-12 -23 -45 -52q-19 -16 -38 -24
t-36 -8l-36 -3l-48 1q-12 6 -13 13q0 25 25 25h13q41 0 62 3q10 0 19 4l20 10q28 18 43 51.5t15 61.5q0 42 -25 80q-15 25 -46 40t-63 15q-42 0 -80 -26l-20 -15l-9 -8l-13 -19v-4q-2 -10 -4 -12l-8 -21q-2 -8 -3 -15t-2 -15q0 -26 13 -59l4 -12v-21q0 -31 -23 -55.5
t-57 -24.5q-33 0 -55 23q-20 25 -20 57v21v12q17 31 17 59q0 25 -17 55v6l-4 6l-11 18l-8 9l-19 15q-18 12 -38 19l-18 5l-19 2h-5q-51 0 -89 -27q-45 -35 -45 -108z" />
    <glyph glyph-name="Agrave" unicode="&#xc0;" horiz-adv-x="838" 
d="M385 248v-30q17 -28 17 -67q0 -44 -17 -75v-17q0 -14 12 -29q12 -12 26 -13q14 0 26 12t12 30v17q-17 34 -17 79v-4l4 28q3 19 13 44v25q0 15 -11 27q-10 14 -27 15q-12 0 -25 -13t-13 -29zM402 -113v-17q13 -23 13 -42q0 -31 -13 -51v-12q3 -9 7 -13.5t14 -7.5
q9 0 16 6.5t9 14.5v8q-12 17 -12 55q0 21 12 42v17q0 6 -6 12t-19 9q-9 0 -15 -7.5t-6 -13.5zM486 -235q0 -26 -19 -42.5t-44 -16.5q-24 0 -43.5 16.5t-19.5 42.5v17l4 8q9 29 9 38q-6 33 -12.5 42.5t-31.5 21t-53 11.5q-54 0 -80 -33q-12 -20 -12 -42q0 -43 33 -67
q33 -13 84 -13q25 -6 25 -21q0 -8 -12 -17l-66 3q-17 2 -26 5l-26 9q-54 35 -54 101q0 29 21 67q44 50 113 50q38 0 76 -21l16 -8l11 13l14 9q12 5 30 7q27 0 45 -15l12 -16l14 10q42 21 80 21q70 0 114 -50q21 -38 21 -67q0 -67 -59 -105q-42 -13 -114 -13q-16 6 -16 17
q0 5 5.5 11.5t19.5 9.5q59 0 84 13q38 26 38 67q0 22 -13 42q-23 33 -80 33q-30 0 -59 -12q-19 -12 -32 -29q-9 -18 -9 -40l1 -19l6 -19zM125 8q-36 26 -57 63q-19 40 -19 80q0 54 34 101q24 35 62 55.5t81 20.5q54 0 100 -34l26 -18q3 13 17 28q23 24 54 24q29 0 55 -24
q12 -12 18 -27l24 17q54 34 105 34q43 0 79.5 -19t62.5 -57q30 -42 30 -101q0 -44 -19 -83q-27 -46 -75 -70q-39 -18 -89 -18l-40 3q-12 6 -12 13q0 25 25 25h13q39 0 62 3l19 3q10 3 19 11q27 18 43 49l12 31l4 33q0 42 -25 80q-37 55 -109 55q-42 0 -80 -26l-20 -15
l-10 -8l-12 -19v-4q-2 -10 -4 -12q-2 -5 -7.5 -21t-5.5 -30q0 -29 13 -59l4 -12v-21q0 -22 -11 -39q-8 -15 -28 -28t-41 -13q-33 0 -54.5 23.5t-21.5 56.5v21v12q17 29 17 59q0 28 -17 55v6l-4 6l-11 20l-7 7l-20 15q-37 26 -79 26q-48 0 -83 -28q-42 -36 -52 -107
q0 -32 15 -60.5t44 -44.5v-4q41 -21 113 -21q26 -6 26 -21q0 -7 -13 -17h-25h-12q-39 0 -57 3q-38 6 -57 22z" />
    <glyph glyph-name="Aacute" unicode="&#xc1;" horiz-adv-x="780" 
d="M402 159v-4v-4v-63q0 -17 -21 -17l-14 6q-4 4 -7 15l3 13l1 11v24l-4 11l2 28q-3 24 -16 47q-17 32 -49.5 52t-70.5 20q-33 0 -64.5 -18.5t-51.5 -52.5q-19 -36 -19 -72q0 -35 18 -71.5t54 -62.5q0 -20 -2.5 -25.5t-18.5 -8.5q-40 28 -66.5 76.5t-26.5 91.5q0 44 24 88.5
t65 70.5t88 26q23 0 42 -5t26 -8.5t21 -12.5q37 -23 65 -69l3 -6q24 40 66.5 66.5t91.5 26.5q51 0 90 -26q41 -24 63 -67q23 -41 23 -88q0 -46 -21 -92t-63 -76q-29 0 -29 17q0 12 8 17q30 18 46.5 55t16.5 79q0 35 -17.5 66.5t-48.5 54.5q-16 10 -33 16t-35 6
q-37 0 -68.5 -18.5t-51.5 -54.5l-11 -21q-8 -19 -8 -41zM364 -154l-4 11l2 22q-5 20 -23 34q-26 20 -71 20q-43 0 -72 -20t-29 -52q0 -16 6 -36.5t15 -34.5q0 -34 -17 -34q-5 0 -17 9q-25 39 -25 96q0 49 40 83q43 31 99 31q18 0 34.5 -3t32.5 -11q31 -14 48 -38
q21 24 51 36t69 12q51 0 84.5 -27.5t49.5 -77.5q0 -32 -6 -75t-15 -43h30h63q8 0 13 -4t8 -13q0 -9 -6 -15t-15 -6h-63h-30q-29 18 -29 51l6 47l6 45q-12 37 -31.5 53.5t-64.5 22.5q-45 0 -74 -20q-27 -21 -27 -48v-4v-33q0 -17 -21 -17l-14 6q-4 4 -7 15l3 6l1 6v6z" />
    <glyph glyph-name="Acircumflex" unicode="&#xc2;" horiz-adv-x="830" 
d="M376 251v-29l7 -21l8 -25l2 -22v-22q-3 -11 -4 -16t-3.5 -14.5t-9.5 -22.5v-21q0 -15 10.5 -28.5t27.5 -13.5q12 0 24.5 13t12.5 29v17q-8 19 -12 36.5t-4 42.5q0 39 16 68v29q0 9 -12 26q-14 12 -25 12q-14 0 -26 -12q-9 -12 -12 -26zM725 -97l2 -8q0 -9 -12 -12
q-17 0 -22 8q-6 39 -77 49q-86 0 -86 -51q0 -50 84 -50l25 4q21 3 45 16q3 -1 8 -3t10 -6q12 -9 13 -16v-76h21q9 0 13 -5l3 -8l2 -6q0 -13 -17 -13h-34q-21 8 -21 25v67l-35 -8l-28 -4q-47 0 -86.5 15t-39.5 69q0 35 35.5 59.5t90.5 24.5q32 -5 56 -16.5t36 -26.5
q5 -7 8.5 -14t5.5 -14zM489 217v-4v-8q-17 -29 -17 -51v-4q0 -31 17 -59v-8v-25q0 -33 -20.5 -56.5t-54.5 -23.5q-33 0 -56.5 24.5t-23.5 55.5v25l4 8q6 8 11 27l2 36q0 19 -13 51l-4 8v4l-14 21l-7 8l-21 18q-41 25 -80 25q-30 0 -62 -15q-28 -18 -47 -44q-21 -33 -21 -76
q0 -68 54 -109q32 -20 80 -20h17l16 1q26 -6 26 -27l-6 -10l-7 -3h-14h-11q-42 0 -68 5.5t-54 20.5q-33 20 -56 61q-19 41 -19 81q0 56 29 97q52 76 139 76q50 0 105 -34l24 -14l3 -2q3 11 19.5 30.5t54.5 23.5q30 -3 53 -26q14 -12 18 -30l25 18q46 34 105 34q43 0 79 -20
q39 -18 64 -56q29 -41 29 -101q0 -42 -18 -78t-58.5 -65t-95.5 -29l-17 -1l-18 -1l-17 2q-15 6 -15 29q0 13 25 13l65 3q22 3 49 18q27 18 45 48t18 65q0 38 -26 76q-45 59 -109 59q-39 0 -80 -25l-22 -19l-9 -9l-11 -19h-4z" />
    <glyph glyph-name="Atilde" unicode="&#xc3;" horiz-adv-x="490" 
d="M248 -170q0 -14 -22 -14q-8 26 -55 26q-56 0 -56 -28q0 -18 20 -25t41 -7q25 0 45 10l15 -7l12 -7l2 -2v-42l3 1h6q11 0 11 -21q0 -5 -13 -8h-25l-5 4l-7 6l-2 6v35l-23 -6l-20 -2l-31 3q-16 4 -31 11q-30 14 -30 53q3 16 13 29q10 9 32 20q28 7 48 7q30 -3 53 -15
q16 -12 19 -27zM341 243q-7 -7 -19 -10l-5 3l-1 3q-7 10 -16 18l-28 18q-32 15 -61 15q-36 0 -71 -18q-33 -21 -50.5 -52t-17.5 -65q0 -37 17.5 -67t51.5 -52q35 -19 70 -19q66 0 105 46l4 7l4 6q17 0 24 -3t10 -18l-5 -10l-3 -7q-48 -59 -139 -59q-44 0 -89 24
q-39 24 -63.5 64.5t-24.5 87.5q0 49 21.5 87t65.5 64t90 26q78 0 139 -67l5 -4l-5 -11zM354 -63v-189h59q21 0 21 -21q0 -6 -3.5 -12t-17.5 -9h-80q-21 0 -21 21v173l-20 -9l-27 -9q-20 -4 -54 -4q-44 0 -77 10q-21 5 -36 13l-34 19q-4 7 -4 17q0 9 5 14q5 3 20 3l30 -18
l29 -12l30 -6l37 -2q65 0 88 21l21 17l6 2q6 0 15.5 -5.5t12.5 -13.5z" />
    <glyph glyph-name="Adieresis" unicode="&#xc4;" horiz-adv-x="490" 
d="M95 11l-1 -42l18 -14q23 -18 84 -18l34 3q13 0 16 2l19 6q20 5 46 22q29 0 29 -25v-197h63q21 0 21 -21q-1 -3 -2 -5.5t-4.5 -7.5t-14.5 -8h-84q-17 0 -17 21v196q-21 -12 -48 -18l-28 -5l-31 -2q-73 0 -110 23l-25 15l-6 4l-2 2l-2 12v101q0 16 17 16h8h5q9 0 16 -4
q40 -46 105 -46q33 0 68 18l28 21q13 11 23 29q20 32 20 66q0 57 -39.5 96t-99.5 39q-30 0 -60.5 -15.5t-44.5 -35.5q-24 0 -28 4l-4 9l-3 6l-1 6l7 5q19 22 56.5 42.5t77.5 20.5q49 0 90.5 -24.5t63.5 -64.5q9 -15 16 -38.5t7 -49.5q0 -44 -24 -86q-24 -39 -64 -64
q-19 -12 -44 -19l-22 -5l-23 -2h-11l-10 -1q-29 0 -40.5 5t-27.5 16zM80 -138q41 27 70 27q40 0 64 -17t24 -42q0 -26 -22 -42t-67 -16l-22 3l-21 5v-10v-8q9 -6 40 -12l34 2l27 6l13 4v-32h18q8 0 8 -18q0 -6 -7 -6h-38l-5 1l-3 3v22q-20 -6 -48 -6t-59 20l-9 7l-2 16v25
l7 5l22 13q18 -10 46 -10q57 0 57 24q0 29 -59 29l-18 -4l-17 -7l-10 -5l-8 -2q-12 0 -15 25z" />
    <glyph glyph-name="Aring" unicode="&#xc5;" horiz-adv-x="450" 
d="M283 -11l-1 -211l3 -18l6 -11l4 -4h18l-1 -18h-42q-10 0 -21 11q-9 12 -9 32v210l-16 -1q-17 0 -39.5 5.5t-42.5 16.5q-40 22 -66 53q-25 34 -25 61v5v5l1 3q3 29 16 48l17 21l23 10q19 6 27 16h5q21 21 21 33q0 15 -21 30q-18 0 -32.5 -5t-14.5 -12q0 -17 -21 -17
t-21 17q6 30 30 42t75 12q47 -27 47 -67q-9 -43 -42 -67l-29 -17l-22 -8l-3 -3l-7 -9q-7 -11 -7 -26l-1 -9l5 -15l11 -16q18 -26 50 -46q35 -19 66 -19l16 1v6q-28 0 -47.5 16.5t-21.5 25.5v34l9 8l8 8q16 -16 47 -16q24 3 33 11q8 5 11 20q0 33 -44 40q-20 -3 -25 -7
l-15 -22q-8 -9 -16 -9q-11 0 -17 17q11 23 26 36q15 15 42 15q35 0 59 -17t24 -49q0 -69 -87 -69l-23 7v-10l5 -5l17 -10l25 -8l33 -3v-7q20 11 38 29q41 41 41 101q0 40 -17 73q-15 35 -50 57q0 17 3 24t18 10q40 -22 64 -68.5t24 -95.5q0 -45 -24 -92q-8 -18 -26.5 -37
t-38.5 -31z" />
    <glyph glyph-name="AE" unicode="&#xc6;" horiz-adv-x="127" 
d="M-98 -166l4 -29l134 -38v559q0 9 6 15t15 6q5 0 10 -6l7 -15v-584q0 -12 -3.5 -15t-21.5 -6l-172 46q-26 -26 -50 -36l-31 -10l-33 -4q-24 4 -38.5 8t-28.5 12q-26 12 -46.5 41t-20.5 73q0 20 16 46q11 19 30.5 35.5t44.5 24.5l25 5l27 2q61 -6 94 -42q15 -18 23.5 -39
t8.5 -45v-4zM-300 -103q-7 -3 -16 -22t-9 -37q0 -29 25 -54q18 3 30 21t12 38q0 17 -10.5 32.5t-31.5 21.5zM-132 -166q0 38 -27 67q-28 25 -66 25q-16 0 -29 -4q38 -38 38 -84q0 -37 -38 -75l31 -4q36 0 60.5 19.5t30.5 55.5z" />
    <glyph glyph-name="Ccedilla" unicode="&#xc7;" horiz-adv-x="117" 
d="M-104 -206l4 -16l134 -38v558q0 21 21 21q5 0 10 -6l7 -15v-583q0 -12 -3.5 -15t-21.5 -6l-172 50l-8 8l-9 9v33h38zM-377 -155q0 33 16 60.5t50 48.5q32 17 76 17q42 0 78 -22t48 -54q72 0 72 -96q0 -6 -4 -10l-9 -3q-7 0 -17 13q0 24 -6 41q-7 13 -27 13
q-9 -17 -31 -24q-23 -9 -49 -9q-25 0 -42.5 9.5t-20.5 27.5q0 21 22.5 34t53.5 13q-21 18 -68 29q-90 0 -100 -80q0 -47 24.5 -63.5t67.5 -20.5q24 0 38 3l17 7l16 11q15 0 19 -5l2 -28q-29 -17 -45 -21q-17 -6 -51 -9q-22 0 -45.5 8.5t-43.5 25.5t-30.5 37t-10.5 47z
M-142 -134q0 9 -12 15t-26 6q-12 0 -21.5 -5.5t-12.5 -15.5q0 -21 34 -21l18 4l15 5z" />
    <glyph glyph-name="Egrave" unicode="&#xc8;" horiz-adv-x="450" 
d="M372 -294l-53 -1q-21 0 -21 20v180q-48 -25 -101 -25h-11q-39 0 -59 3.5t-52 21.5l-21 17l-7 9l-1 12v105q0 9 16 21l18 8q9 0 12 -12q38 -51 105 -51q35 0 66 18.5t52 51.5t21 69q0 55 -39.5 94t-99.5 39q-26 0 -57.5 -14t-47.5 -35q-12 -31 -33 -31q-18 0 -18 19
q0 18 22 40q20 24 56.5 43.5t77.5 19.5q12 0 24 -1t26.5 -4.5t38.5 -17.5q38 -22 62 -63.5t24 -88.5q0 -44 -24 -89q-24 -41 -64 -63l-42 -16l-45 -8l-13 -1q-25 0 -52 9.5t-47 26.5l-1 -60l16 -13q18 -12 40 -18q20 -3 57 -3q35 3 56 11q22 6 52 27l25 -2q6 -2 6 -11v-197
h36q17 0 17 -20t-17 -20z" />
    <glyph glyph-name="Eacute" unicode="&#xc9;" horiz-adv-x="440" 
d="M356 265q8 -10 11 -23q0 -12 -16 -12q-15 0 -24 9l-12 13l-15 11q-8 5 -16.5 9t-26.5 11t-36 7q-39 0 -70 -18.5t-49.5 -49.5t-18.5 -66q0 -37 19 -71q19 -31 49.5 -49.5t69.5 -18.5q67 0 105 47l5 6l4 6q21 0 27 -3t6 -18l-8 -17h-4q-43 -58 -135 -58q-46 0 -86 22.5
t-66 64.5q-24 42 -24 89q0 48 22 87.5t64 64t90 24.5q43 0 79 -20q36 -18 56 -47zM396 -250q19 0 19 -19q0 -10 -5 -16q-3 -6 -14 -7l-53 -1q-21 0 -21 21l1 174l-15 -6l-29 -10q-11 -3 -24.5 -5t-33.5 -2q-47 0 -78 10l-35 13q-18 6 -38 19q0 20 3 28q5 5 22 5
q25 -18 59 -29l30 -6l37 -2q27 0 56 8.5t42 20.5q12 16 30 19q16 0 16 -20l-1 -7v-189z" />
    <glyph glyph-name="Ecircumflex" unicode="&#xca;" horiz-adv-x="440" 
d="M103 83q18 -27 49 -46q31 -17 63 -17q39 0 68 17.5t50.5 51t21.5 72.5q0 36 -17 72.5t-52 59.5q-9 5 -9 15q0 9 6 15t14 7l9 -3q43 -24 66 -70.5t23 -95.5q0 -48 -24 -90t-65 -66.5t-91 -24.5q-37 0 -77 20.5t-67 55.5q-18 26 -24 54l-2 8l1 18l1 4l1 5l1 3l1 5l1 4l9 19
l2 2l18 19l24 11l25 12q24 18 24 36q0 16 -23 29l-12 3q-8 0 -22 -6q-8 -5 -11 -14q0 -19 -21 -19q-19 0 -19 19q3 27 22.5 43.5t47.5 16.5q20 0 33 -7q45 -24 45 -67q0 -40 -41 -66l-27 -16l-21 -7q-19 -16 -19 -41q3 -17 18 -41z" />
    <glyph glyph-name="Edieresis" unicode="&#xcb;" horiz-adv-x="440" 
d="M398 -290h-45q-20 0 -20 20v92q-21 -9 -51 -15l-31 -5l-28 -2h-8h-13q-11 0 -17 2q-9 0 -40 10q-33 9 -71 32q-9 6 -9 17v101q0 9 5 14l16 6q5 0 14 -6q24 -27 54 -39t67 -12q20 0 53.5 12t56.5 33v46q-20 -18 -46.5 -27t-56.5 -9h-7q-46 0 -86 22.5t-66 64.5
q-24 42 -24 89q0 45 21.5 84.5t65 64.5t89.5 25q39 0 78 -18q35 -18 58 -45q6 -9 6 -16q0 -18 -20 -18q-11 0 -16 8q-15 18 -45.5 33.5t-60.5 15.5q-36 0 -69 -18q-30 -18 -48.5 -48.5t-18.5 -67.5q0 -33 18 -68q18 -28 50 -50q32 -18 68 -18q66 0 106 46q12 12 25 13
q21 0 21 -26v-91q0 -9 -8 -16l-23 -17q-62 -44 -121 -44l-36 1q-12 0 -33 8q-19 5 -47 24v-45l28 -15l27 -10l28 -6l35 -2q12 0 23.5 2t35.5 9q42 9 65 25l7 2q6 0 14 -8l5 -9v-111h27q12 0 12 -17q0 -20 -14 -23z" />
    <glyph glyph-name="Igrave" unicode="&#xcc;" horiz-adv-x="420" 
d="M148 -80q40 34 92 34q49 0 80 -34q34 -34 34 -80q0 -39 -38 -71q-29 -29 -84 -29q-49 0 -84 29q-34 34 -34 76q0 48 34 75zM240 -230q34 0 55 24l17 24l4 18q0 32 -21 59q-26 29 -59 29q-19 0 -36 -11q33 -29 33 -66q0 -32 -33 -68q20 -9 40 -9zM174 -211q24 21 24 57
t-22 46l-3 5l-8 -7l-7 -11q-8 -17 -10 -34q0 -36 26 -56zM85 12v-193q0 -30 2.5 -37t14.5 -21q17 -17 59 -17h63q15 0 24.5 -5.5t12.5 -15.5l-3 -5l-10 -7l-24 -5h-63l-24 1h-16l-22 5q-11 2 -27 19q-15 19 -21 38l-4 50v219q0 14 8.5 23t19.5 10q11 0 18 -8q34 -46 105 -46
q34 0 66 18q29 18 50 50q19 33 19 66q0 37 -17 67q-14 30 -48 49t-70 19q-30 0 -60 -15q-10 -4 -26 -15l-19 -17q-8 -15 -31 -15q-15 0 -15 12q0 9 18 30t56 43q20 9 38 14t39 5q49 0 90.5 -24.5t63.5 -64.5q9 -15 16 -38.5t7 -49.5q0 -44 -23 -84t-66 -67
q-20 -11 -42.5 -18t-45.5 -7q-20 0 -30 1t-36 8t-47 28z" />
    <glyph glyph-name="Iacute" unicode="&#xcd;" horiz-adv-x="430" 
d="M113 -138q0 39 27 69q28 28 78 28q30 0 56 -16t32 -43q42 0 42 -75q0 -12 -8 -13l-8 3l-5 10l-2 33q-2 9 -10 9q-23 -30 -59 -30q-15 0 -27.5 9t-18.5 25q0 15 18 29q18 9 36 9q-17 17 -50 21q-59 0 -71 -63q0 -34 17.5 -48.5t49.5 -19.5q33 0 50 17q8 0 14 -6
q3 -6 3 -19q-28 -19 -67 -25q-19 0 -34 6l-19 9l-17 13q-10 8 -20 29q-7 21 -7 39zM285 -121q0 13 -25 13q-22 0 -29 -17q0 -17 25 -17l15 4l10 5zM88 24v-195q0 -20 3 -33.5t14 -25.5q17 -17 63 -17h63q33 0 33 -21l-4 -5l-8 -7q-2 -2 -21 -5h-63l-27 1q-14 0 -29 5
q-16 3 -37 20q-25 34 -25 88v218l-1 7q0 15 8 26q9 9 22 12q15 0 22 -20q12 -20 41 -35l29 -8l35 -3q31 0 64 18q15 9 28.5 21.5t22.5 28.5q19 35 19 67q0 53 -39.5 93.5t-94.5 40.5q-16 0 -30 -3t-31 -11q-30 -13 -44 -32q-14 -27 -34 -27q-12 0 -13 14q0 15 17 38
q21 24 57 43.5t78 19.5q48 0 89.5 -24.5t64 -64.5t22.5 -87q0 -44 -24 -89q-24 -41 -65 -64q-17 -9 -39.5 -15t-47.5 -9l-12 -1q-17 0 -29 2t-28 9q-26 9 -49 30z" />
    <glyph glyph-name="Icircumflex" unicode="&#xce;" horiz-adv-x="752" 
d="M629 250q0 60 -21 90t-64 30q-39 0 -69 18t-51 52q-18 32 -18 69q0 40 17 70l21 28q11 13 29 23q32 20 71 20q43 0 75 -23q33 -21 51 -60q0 -25 -19 -25q-11 0 -20 12q-13 24 -35.5 40t-51.5 16q-41 0 -69.5 -28.5t-28.5 -72.5q0 -27 13.5 -48.5t36 -36t48.5 -14.5
q62 0 93 -38q15 -18 23.5 -48t8.5 -74v-250q0 -7 -6.5 -13.5t-13.5 -6.5q-20 0 -20 20v250zM196 274q14 -42 45 -66q31 -22 68 -22q41 0 68 27q-33 77 -116 77q-33 0 -65 -16zM199 33q11 -5 25.5 -9t27.5 -4q63 0 104 40l12 14l9 15q0 7 -21 19t-48 12q-34 0 -62.5 -19.5
t-46.5 -67.5zM174 48q27 72 92 90l21 5l22 2q58 0 102 -47l4 -16q0 -19 -29 -48q-21 -24 -57 -39t-77 -15q-42 0 -86 24q-37 24 -62 65q-8 17 -16 41q-6 23 -6 47q0 23 5 39q5 22 8 27l13 21q24 41 64.5 63.5t88.5 22.5q54 0 96 -30q32 32 77 32q105 0 105 -136v-196
q0 -7 -6.5 -13.5t-13.5 -6.5q-20 0 -20 20v196q0 43 -15.5 69.5t-48.5 26.5l-29 -3q-10 -2 -19 -11q10 -9 19.5 -27.5t9.5 -31.5q0 -9 -4 -14q-47 -47 -105 -47q-24 0 -48 9q-64 21 -86 92q-51 -42 -51 -104q0 -64 52 -107z" />
    <glyph glyph-name="Idieresis" unicode="&#xcf;" 
d="M-189 -149v-9l1 -10l-2 -19q6 -25 32.5 -43t62.5 -18q40 0 68.5 23t28.5 57q0 33 -28 58q-28 22 -69 22q-37 0 -61 -17t-33 -44zM-258 -228q15 6 27 41l-1 9v10l1 18q-6 23 -33 44q-26 17 -62 17q-20 0 -44 -9l-18 -9l-14 -12q-8 -8 -18 -9q-17 0 -17 19q0 11 7 18
q17 17 44 29.5t60 12.5t64.5 -13.5t51.5 -40.5q15 23 46.5 39t68.5 16q32 0 65.5 -15t52.5 -43.5t19 -61.5q0 -36 -19 -62q-18 -29 -51 -42q-17 -8 -32.5 -12t-34.5 -4q-36 0 -64 14q-32 12 -51 40q-19 -24 -52 -41q-14 -5 -32 -9t-32 -4q-62 0 -103 41l-13 15l-4 6l-3 5
q-7 5 -7 13q0 6 9 15q37 31 78 31q20 0 38 -7q48 -9 73 -59zM-282 -240q-8 27 -30 42q-26 13 -49 13q-34 0 -57 -19q36 -44 92 -44l25 1q6 0 19 7z" />
    <glyph glyph-name="Eth" unicode="&#xd0;" horiz-adv-x="705" 
d="M350 623l127 -142l-127 -126l-128 126zM661 312l-142 -128l-128 134l128 128zM350 0l-128 142l128 134l127 -134zM45 318l134 128l128 -128l-128 -134z" />
    <glyph glyph-name="Ntilde" unicode="&#xd1;" horiz-adv-x="622" 
d="M316 610l88 -153h173l-85 -151l85 -150h-173l-88 -156l-93 156h-174l85 150l-85 151h174zM245 426l-71 -120l71 -122h142l70 122l-70 120h-142zM316 550l-57 -93h110zM421 426l54 -89l50 89h-104zM475 273l-54 -89h104zM369 156h-104l51 -91zM208 184l-51 89l-55 -89h106
zM157 337l48 89h-103z" />
    <glyph glyph-name="Ograve" unicode="&#xd2;" horiz-adv-x="685" 
d="M640 0h-595v602h595v-602z" />
    <glyph glyph-name="Oacute" unicode="&#xd3;" horiz-adv-x="645" 
d="M599 0h-554v562h554v-562zM559 37v478h-471v-479z" />
    <glyph glyph-name="Ocircumflex" unicode="&#xd4;" horiz-adv-x="670" 
d="M521 581l102 -98v-483h-480l-98 98v483h476zM518 553h-449v-448h449v448z" />
    <glyph glyph-name="Otilde" unicode="&#xd5;" horiz-adv-x="713" 
d="M45 312q0 79 42 152t115 116q37 21 75 32t79 11q81 0 153 -42.5t115.5 -115.5t43.5 -153q0 -84 -42.5 -154t-114.5 -115q-17 -10 -35 -17.5t-40 -14.5q-39 -11 -80 -11q-83 0 -153.5 40.5t-114 114t-43.5 157.5z" />
    <glyph glyph-name="Odieresis" unicode="&#xd6;" horiz-adv-x="713" 
d="M668 276q0 -64 -24.5 -116.5t-66 -86t-101.5 -54.5q-29 -9 -60 -14t-63 -5q-83 0 -153 33t-112.5 96.5t-42.5 146.5q0 85 42 150.5t114 99.5t152 34q86 0 158 -33.5t114.5 -99.5t42.5 -151zM574 276q0 69 -33.5 126t-93 92t-126.5 35q-63 0 -123.5 -33t-94.5 -92
t-34 -128q0 -67 33 -124.5t91.5 -92.5t127.5 -35q70 0 126.5 33t91.5 92.5t35 126.5z" />
    <glyph glyph-name="multiply" unicode="&#xd7;" horiz-adv-x="665" 
d="M335 579q78 0 143.5 -39.5t102.5 -106.5q18 -31 28 -68q4 -16 7 -36t3 -38q0 -81 -36.5 -147.5t-103.5 -105t-144 -38.5q-81 0 -147 38.5t-104.5 105.5t-38.5 147q0 76 36 141t107 106t147 41zM335 548q-24 0 -35.5 -1t-36 -7.5t-59.5 -26.5q-58 -33 -96.5 -95
t-38.5 -127q0 -72 36 -132q9 -15 18 -26t24 -27q24 -23 56 -40q63 -34 132 -34q70 0 129 34.5t94 95t35 129.5q0 35 -8 64t-27 61q-35 61 -95 96.5t-128 35.5z" />
    <glyph glyph-name="Oslash" unicode="&#xd8;" horiz-adv-x="770" 
d="M596 17h-423q-18 0 -18 9l-5 35l-3 27l61 159l10 24l7 12l17 20l25 26l1 10l1 16v17q-51 0 -61 -34q-35 -9 -118 -9h-52q0 32 8 48l12 35q9 18 50 31q107 36 277 36q146 0 255 -28q47 -18 67 -42q12 -20 22 -80h-53q-77 0 -124 9q0 34 -52 34v-26v-17l7 -11l10 -15
l15 -13l12 -15l8 -20l61 -167v-62q0 -9 -17 -9zM685 273l-54 12q-58 0 -70 27l107 -9l61 9q-6 -22 -16 -30q-8 -9 -28 -9zM286 382l20 -44h8l71 8l78 -8l19 44l-53 3l-44 5l-49 -5zM29 312l61 -9l118 9q-9 -27 -79 -27h-47q-23 0 -32.5 4.5t-20.5 22.5zM491 203q0 35 -33 70
q-35 30 -73 30q-39 0 -73 -31t-34 -69q0 -43 30 -76q31 -31 77 -31q41 0 73.5 31.5t32.5 75.5z" />
    <glyph glyph-name="Ugrave" unicode="&#xd9;" horiz-adv-x="690" 
d="M353 595l70 -224h238l-196 -140l77 -231l-189 140l-189 -140l70 231l-189 140h238z" />
    <glyph glyph-name="Uacute" unicode="&#xda;" horiz-adv-x="690" 
d="M353 595l70 -224h238l-196 -140l77 -231l-189 140l-189 -140l70 231l-189 140h238zM356 513l-57 -170h-177l146 -107l-56 -164l141 105l140 -109l-63 173l150 105h-180z" />
    <glyph glyph-name="Ucircumflex" unicode="&#xdb;" horiz-adv-x="690" 
d="M311 588q126 0 196 -35q70 -30 119 -133h-84q-31 41 -61.5 62.5t-85.5 35.5v-182h259q0 -230 -182 -322v84q78 54 105 154h-182v-259h-34q-16 3 -34.5 5t-49.5 12q-62 17 -113 59q-55 42 -84 113h77q27 -46 61 -70q35 -22 93 -42v182h-252l-5 32v15q0 69 46 146
q27 47 52 73q30 30 68 49l7 -84q-77 -53 -98 -147h182v252z" />
    <glyph glyph-name="Udieresis" unicode="&#xdc;" horiz-adv-x="690" 
d="M285 592h360v-112h-240v-120h240v-360h-120v233h-120v-233h-360v120h240v113h-240v359h120v-232h120v232z" />
    <glyph glyph-name="Yacute" unicode="&#xdd;" horiz-adv-x="900" 
d="M793 390l-558 -557l194 31l-5 -74l-274 -43l-52 52l37 274l74 6l-25 -195l557 557z" />
    <glyph glyph-name="Thorn" unicode="&#xde;" horiz-adv-x="560" 
d="M309 621v-788l115 159l48 -56l-163 -224h-73l-168 220l48 56l120 -155v788h73z" />
    <glyph glyph-name="germandbls" unicode="&#xdf;" horiz-adv-x="900" 
d="M152 471l557 -558l-31 194l74 -5l43 -274l-52 -52l-274 37l-6 74l195 -25l-557 557z" />
    <glyph glyph-name="agrave" unicode="&#xe0;" horiz-adv-x="1080" 
d="M994 171h-788l159 -115l-56 -48l-224 163v73l220 168l56 -48l-155 -120h788v-73z" />
    <glyph glyph-name="aacute" unicode="&#xe1;" 
d="M-210 -246l25 3q13 4 24 11q19 11 34 35t15 50q0 28 -12.5 49.5t-36.5 38.5q-26 13 -49 13q-41 0 -69.5 -28.5t-28.5 -72.5q0 -27 12.5 -49.5t36 -36t49.5 -13.5zM-418 -246q24 0 48 28q22 28 22 71q0 23 5 36q2 10 15 35q9 15 21.5 28.5t28.5 22.5q32 19 68 19
q38 0 69 -18t50 -52.5t19 -70.5q0 -57 -41 -98t-97 -41q-30 0 -62 15q-22 11 -30 19q-17 15 -24 34q-3 -29 -28 -48.5t-46 -19.5h-66q-8 0 -14.5 5.5t-8.5 15.5q0 19 29 19h42z" />
    <glyph glyph-name="acircumflex" unicode="&#xe2;" horiz-adv-x="1080" 
d="M75 229h788l-159 115l56 48l224 -163v-73l-220 -168l-56 48l155 120h-788v73z" />
    <glyph glyph-name="atilde" unicode="&#xe3;" horiz-adv-x="900" 
d="M731 -199l-557 558l31 -194l-74 5l-43 274l52 52l274 -37l6 -74l-195 25l557 -557z" />
    <glyph glyph-name="adieresis" unicode="&#xe4;" horiz-adv-x="560" 
d="M231 -257v788l-115 -159l-48 56l163 224h73l168 -220l-48 -56l-120 155v-788h-73z" />
    <glyph glyph-name="aring" unicode="&#xe5;" horiz-adv-x="850" 
d="M73 -159l558 557l-194 -31l5 74l274 43l52 -52l-37 -274l-74 -6l25 195l-557 -557z" />
    <glyph glyph-name="ae" unicode="&#xe6;" horiz-adv-x="633" 
d="M110 65q27 0 47 -20q20 -18 20 -46t-20 -48t-47 -20q-22 0 -44 20.5t-22 47.5q0 17 8 30t24 26q17 10 34 10zM110 -29q9 0 18 9t9 19q0 9 -6.5 16t-20.5 10q-12 0 -19 -7t-7 -19q0 -7 9 -17t17 -11zM314 65q27 0 47 -20q20 -18 20 -46q0 -27 -20 -47q-18 -21 -47 -21
q-22 0 -44 20.5t-22 47.5q0 17 8 30t24 26q17 10 34 10zM314 -29q9 0 18 9t9 19q0 9 -6.5 16t-20.5 10q-12 0 -19 -7t-7 -19q0 -10 8.5 -19t17.5 -9zM518 65q27 0 47 -20q20 -18 20 -46t-20 -48t-47 -20q-26 0 -46 20t-20 48q0 14 9 32q6 15 22.5 24.5t34.5 9.5zM518 -29
q9 0 18 9t9 19q0 9 -6.5 16t-20.5 10q-12 0 -19 -7t-7 -19q0 -7 9 -17t17 -11z" />
    <glyph glyph-name="ccedilla" unicode="&#xe7;" horiz-adv-x="714" 
d="M117 135q27 0 47 -20q20 -18 20 -46t-20 -48t-47 -20t-47 20q-19 22 -19 48q0 27 19.5 46.5t46.5 19.5zM117 41q9 0 18 9t9 19t-8 18l-9 6l-10 2q-12 0 -19 -7t-7 -19q0 -10 8.5 -19t17.5 -9zM601 135q27 0 47 -20q20 -18 20 -46t-20 -48t-47 -20q-23 0 -47 21
q-19 22 -19 47l1 15q1 3 2 6.5t6 11.5q6 13 22.5 23t34.5 10zM601 41q9 0 18 9t9 19q0 9 -6.5 16t-20.5 10q-12 0 -17.5 -5.5t-8.5 -20.5q0 -11 8 -20q6 -4 18 -8zM361 527q27 0 47 -20q20 -18 20 -46q0 -27 -20.5 -47.5t-46.5 -20.5q-23 0 -47 21q-19 22 -19 47
q0 27 18.5 46.5t47.5 19.5zM361 433q9 0 18 9t9 19q0 9 -6.5 16t-20.5 10q-26 0 -26 -26q0 -11 8 -20q6 -4 18 -8z" />
    <glyph glyph-name="egrave" unicode="&#xe8;" horiz-adv-x="714" 
d="M605 389q-28 0 -48 19q-19 22 -19 47q0 28 20 48t47 20q25 0 45.5 -20.5t20.5 -47.5t-19.5 -46.5t-46.5 -19.5zM605 483q-9 0 -18 -9.5t-9 -18.5t6.5 -16t20.5 -10q12 0 17.5 5.5t8.5 20.5q0 8 -8.5 18t-17.5 10zM121 389q-28 0 -48 19q-19 22 -19 47q0 28 20 48t47 20
q23 0 47 -21q19 -22 19 -47q0 -27 -19.5 -46.5t-46.5 -19.5zM121 483q-9 0 -18 -9t-9 -19q0 -9 6.5 -16t20.5 -10q12 0 17.5 5.5t8.5 20.5q0 8 -8.5 18t-17.5 10zM361 -3q-28 0 -48 19q-19 22 -19 47q0 28 20 48t47 20q25 0 45.5 -20.5t20.5 -47.5t-19.5 -46.5t-46.5 -19.5z
M361 91q-9 0 -18 -9t-9 -19q0 -9 6.5 -16t20.5 -10q12 0 19 7t7 19q0 9 -9 18q-6 9 -17 10z" />
    <glyph glyph-name="eacute" unicode="&#xe9;" horiz-adv-x="150" 
d="M-64 -176q0 -28 -13 -58l59 -16l66 -20l1 583q0 9 7 14.5t15 7.5q22 0 22 -22v-613q0 -22 -26 -22l-171 49q-45 -39 -110 -49q-43 0 -93 35q-13 -16 -26.5 -24t-27.5 -9l-42 -2q-18 0 -18 13q0 14 18 22q35 0 44 4q9 0 26 23q-10 21 -16 42t-10 50q0 59 39 98t111 48
q34 0 58 -11.5t44 -33.5q32 -38 43 -109zM-214 -66q-42 0 -73.5 -30.5t-31.5 -75.5q0 -44 31 -75t74 -31q25 0 50.5 13.5t40.5 40.5q15 24 15 52t-14.5 52.5t-39.5 39t-52 14.5z" />
    <glyph glyph-name="ecircumflex" unicode="&#xea;" 
d="M-233 -10v-260q0 -20 -20 -20h-85q-20 0 -20 20q1 3 1.5 5.5t4.5 8t14 6.5h65v240q0 7 6.5 13.5t13.5 6.5q3 -1 5.5 -1.5t8 -4.5t6.5 -14z" />
    <glyph glyph-name="edieresis" unicode="&#xeb;" 
d="M-227 -12l14 -13l26 -28l25 -26l36 -46q28 -40 28 -57q0 -46 -26 -78t-103 -32q-135 0 -135 110q0 19 30 58q24 30 67 74zM-227 -71l-35 -33l-40 -44q-12 -17 -12 -34q0 -70 87 -70q50 0 70 18q16 19 16 51q-5 17 -16 34l-31 36z" />
    <glyph glyph-name="igrave" unicode="&#xec;" 
d="M-223 -72l-34 -33l-18.5 -18.5t-21 -23t-10.5 -18.5l-4 -18q0 -71 88 -71q51 0 68.5 19t17.5 50q-3 14 -17 35l-41 48zM-346 -238l-16 -27q-6 -9 -17 -16q-18 -12 -58 -12q-10 0 -20 5.5t-13 13.5q0 5 12 12.5t32 7.5q16 0 18 2q5 1 6 2l8 6q5 2 14 16l8 13l10 21l6 26
q3 11 33 50l65 69l35 35l25 -25l45 -49l42 -55q14 -22 17 -41q0 -46 -26 -78t-103 -32q-55 0 -81.5 12.5t-41.5 43.5z" />
    <glyph glyph-name="iacute" unicode="&#xed;" horiz-adv-x="115" 
d="M-225 -66l-33 -33q-24 -22 -41 -45l-10 -17l-3 -18q0 -71 87 -71q51 0 68.5 19t17.5 50q-5 18 -17 35l-31 38zM-116 -253q-31 -37 -109 -37q-135 0 -135 110q0 22 29 57l31 37l36 37l39 39l40 -41l32 -35l30 -37q27 -38 27 -57l-2 -32l122 -32v554q0 6 6 13t14 7
q9 -3 13 -6t7 -14v-580q0 -19 -25 -19z" />
    <glyph glyph-name="icircumflex" unicode="&#xee;" horiz-adv-x="115" 
d="M-223 -68l-36 -35l-18 -18l-20 -24l-11 -18l-3 -18q0 -69 88 -69q51 0 70 19q16 19 16 52q-5 19 -16 33l-40 46zM-114 -253q-31 -37 -109 -37q-98 0 -127 63q-8 -17 -17.5 -28.5t-28.5 -24.5l-22 -7l-28 -2h-23q-16 0 -24.5 5t-8.5 12t8 12l25 6h14l19 2q12 0 21 6
q8 3 15 13l13 17l30 45q3 16 24 43l20 25l19 21l45 45l26 27l14 -13l26 -28l32 -35l30 -37q27 -38 27 -57l-2 -38l122 -26v554q0 6 6 13t14 7q9 -3 13 -6t7 -14v-580q0 -19 -25 -19z" />
    <glyph glyph-name="idieresis" unicode="&#xef;" 
d="M-287 -219q28 -31 76 -31q45 0 76 31q-26 34 -75 34t-77 -34zM-302 -196q29 40 91 40q31 0 57.5 -13.5t33.5 -25.5q5 13 5 29q0 24 -12 44.5t-38 33.5q-11 5 -11 17q0 6 4 12.5t15 9.5l10 -3q30 -16 53 -49q19 -33 19 -65q0 -33 -18 -63q-20 -29 -51.5 -45t-66.5 -16
q-39 0 -69 17q-30 15 -49 43.5t-19 63.5q0 33 18.5 62.5t52.5 50.5l11 3q7 0 13 -6l6 -15q0 -9 -10 -16q-23 -12 -37 -36t-14 -43q0 -15 6 -30z" />
    <glyph glyph-name="eth" unicode="&#xf0;" horiz-adv-x="124" 
d="M521 -16v-231h63q21 0 21 -21t-21 -21h-84q-21 0 -21 21v252q0 9 6 15t15 6q8 0 14 -5.5t7 -15.5zM408 -20v-123q0 -69 -30 -113q-14 -17 -43 -29l-25 -7l-33 -4l-86 -2h4q-64 0 -109 42q-42 48 -42 113v118v516q0 67 38 114q42 42 109 42h223q72 0 117 -63
q21 -30 21 -55v-12q0 -17 -21 -17t-21 17v12l-5 18l-7 16q-34 46 -84 46h-223q-28 0 -50 -11q-22 -9 -30 -23q-29 -29 -29 -84v-121v-513q0 -27 6 -44l13 -24l14 -16l24 -18l22 -8q12 -3 34 -3l-4 -4h13l42 1q23 0 40 4q20 0 34.5 6t24.5 18l10 19l7 21l3 19l1 29v123
q0 9 7.5 15t13.5 6q21 0 21 -21z" />
    <glyph glyph-name="ntilde" unicode="&#xf1;" horiz-adv-x="98" 
d="M743 -16v-224h64q9 0 14.5 -5t5.5 -11q0 -20 -20 -20h-84q-9 0 -12.5 3.5t-3.5 16.5v240q0 20 20 20q2 -1 4.5 -2t6.5 -4zM632 -18v-118q0 -39 -36 -92q-18 -21 -49.5 -34.5t-58.5 -13.5h-296q-66 0 -100 44h-4q-40 46 -40 104v124v512q0 43 36 100q49 40 108 40h468
q37 0 67 -17q30 -15 45 -39q20 -29 20 -80v-12q0 -15 -16 -16q-17 0 -20 16v12q0 18 -5 32q-3 17 -11 24q-13 17 -35 30.5t-45 13.5h-468q-51 0 -76 -32q-28 -28 -28 -72v-148v-488q0 -24 6 -42.5t20 -33.5t34 -25q21 -7 44 -7h296q41 0 80 36h-4q28 28 28 64v118q0 5 6 14
q6 6 14 6q9 0 14.5 -5.5t5.5 -14.5z" />
    <glyph glyph-name="ograve" unicode="&#xf2;" horiz-adv-x="144" 
d="M528 -18v-231h25q21 0 21 -17q0 -21 -21 -21h-46q-21 0 -21 17v252q0 9 7.5 15t13.5 6q21 0 21 -21zM415 -18v-121q0 -35 -6 -61q-3 -21 -23 -41q-15 -21 -50.5 -34t-98.5 -13l-41 1q-63 0 -110 42q-42 50 -42 114v117v517q0 66 38 113l17 13l26 16q31 13 66 13h75
q27 0 28 -16q0 -20 -32 -20l-71 -1q-28 0 -49 -9.5t-30 -24.5q-30 -30 -30 -84v-122v-512q0 -19 1 -27t6.5 -19.5t13 -21.5t13.5 -16q21 -18 35 -25q18 -5 45 -5h39l63 2q22 3 29 8q9 3 23 17q14 17 18.5 30.5t4.5 48.5v121q0 8 7.5 14.5t13.5 6.5q9 0 15 -6t6 -15z" />
    <glyph glyph-name="oacute" unicode="&#xf3;" horiz-adv-x="140" 
d="M840 -22v-235h33q8 0 13 -5q5 -3 8 -12q0 -21 -21 -21h-54q-9 0 -12.5 3.5t-4.5 17.5v252q0 21 21 21q2 -1 4.5 -2t7.5 -5.5t5 -13.5zM738 -21v-127q0 -43 -38 -97q-21 -21 -51 -36q-34 -14 -63 -14h-389q-71 0 -105 46h-4q-42 51 -42 109v131v512q0 49 38 105
q50 42 113 42h280q14 0 27 -5.5t13 -12.5q0 -20 -41 -20h-279q-50 0 -79.5 -32.5t-29.5 -76.5v-130v-513q0 -26 6 -46.5t23 -37.5q29 -29 80 -29h389q20 0 46 12q24 9 38 26h-4q30 30 30 67v127q0 9 6 15t15 6q10 0 15.5 -5.5t5.5 -15.5z" />
    <glyph glyph-name="ocircumflex" unicode="&#xf4;" 
d="M-173 650q39 0 69.5 -18.5t49.5 -51.5t19 -71q0 -57 -41 -98t-97 -41q-36 0 -66 17.5t-52 51.5q-20 34 -20 70q0 39 19 70q17 32 49 51.5t70 19.5zM-84 468q9 17 9 41q0 27 -12.5 49.5t-36 37t-49.5 14.5t-47 -12t-36 -36t-15 -53q0 -21 9 -42q13 13 38 25.5t46 12.5
q51 0 94 -37zM-248 445q30 -35 75 -35q43 0 74 34q-38 35 -75 35q-36 0 -74 -34zM-423 511q-23 0 -35 -11.5t-12 -30.5q0 -24 15 -36t33 -12q29 0 33 16q7 10 17 10q8 0 16 -5q6 -6 6 -14l-3 -9q-23 -38 -67 -38q-33 0 -60 21q-30 26 -30 66q0 33 23 59l12 9l-7 7
q-14 20 -14 43q0 20 15 43q21 24 51 24q35 0 57 -25l5 -12q0 -5 -6 -14q-7 -7 -15 -7q-6 0 -14 7.5t-26 10.5q-15 0 -20 -8q-7 -7 -7 -19q0 -7 6 -16l16 -13l19 -5q16 0 30 -7l5 -3q13 -6 22 -17l3 -11q0 -6 -6 -17q-6 -6 -14 -6q-6 0 -11 6q-2 5 -15 11l-5 1l-4 1z" />
    <glyph glyph-name="otilde" unicode="&#xf5;" 
d="M-152 648q40 0 71 -20q28 -16 50 -51q17 -32 17 -70q0 -57 -41 -98t-97 -41q-40 0 -68.5 17.5t-50.5 51.5q-19 36 -19 70q0 38 18.5 70.5t51 51.5t68.5 19zM-152 408q27 0 48.5 13.5t36.5 35.5q2 4 7.5 19.5t5.5 30.5q0 28 -13.5 51t-36 36.5t-48.5 13.5q-41 0 -69 -29
q-29 -27 -29 -72q0 -27 12.5 -48.5t36 -36t49.5 -14.5zM-402 509q-24 0 -36 -12q-11 -9 -11 -30q0 -24 15 -36t33 -12q29 0 33 16q7 10 17 10q8 0 16 -5q6 -6 6 -14l-3 -9q-23 -38 -67 -38q-33 0 -60 21q-30 26 -30 66q0 33 23 59l12 9l-7 7q-14 22 -14 43q0 20 15 43
q21 24 51 24q35 0 57 -25l5 -12q0 -5 -6 -14q-7 -7 -15 -7q-6 0 -14.5 9t-25.5 9q-15 0 -20 -8q-7 -7 -7 -19q0 -7 6 -16l16 -13l19 -5q17 -2 29 -7l8 -4l20 -16l3 -11q0 -6 -6 -17q-6 -6 -14 -6q-6 0 -11 6q-2 5 -15 11l-4 1l-5 1z" />
    <glyph glyph-name="odieresis" unicode="&#xf6;" horiz-adv-x="60" 
d="M-237 650q40 0 71 -20q28 -16 50 -51q17 -32 17 -70q0 -57 -41 -98t-97 -41q-39 0 -68 17.5t-51 51.5q-19 35 -19 70q0 36 18 69q16 33 48.5 52.5t71.5 19.5zM-237 410l25 3q13 4 24 11q21 14 36 36q13 24 13 49q0 28 -13.5 51t-36 36.5t-48.5 13.5q-41 0 -69 -29
q-29 -27 -29 -72q0 -27 12.5 -48.5t36 -36t49.5 -14.5zM27 540q27 0 47 -20q20 -18 20 -46q0 -27 -20.5 -47.5t-46.5 -20.5q-23 0 -47 21q-19 22 -19 47l1 15q1 3 2 6.5t6 13t22 21.5q17 10 35 10zM27 446q9 0 18 9t9 19q0 9 -6.5 16t-20.5 10q-12 0 -17.5 -5.5t-8.5 -20.5
q0 -11 8 -20q6 -4 18 -8z" />
    <glyph glyph-name="divide" unicode="&#xf7;" horiz-adv-x="560" 
d="M79 175h410q8 0 17 -5.5t9 -14.5q0 -6 -6.5 -13t-19.5 -7h-410q-26 0 -26 20q0 6 7 13q7 5 19 7zM282 381q27 0 47 -20q20 -18 20 -46q0 -27 -20.5 -47.5t-46.5 -20.5q-27 0 -47 20q-19 22 -19 48l1 15q1 3 2 6.5t6 11.5q6 13 22.5 23t34.5 10zM282 287q9 0 18 9t9 19
q0 9 -6.5 16t-20.5 10q-12 0 -19 -7t-7 -19q0 -10 8.5 -19t17.5 -9zM281 56q27 0 46 -20q20 -18 20 -46q0 -26 -20 -46q-18 -21 -46 -21q-25 0 -47 22q-20 22 -20 45q0 15 8 29t24 27q17 10 35 10zM281 -38q7 0 16.5 9.5t9.5 18.5q0 10 -8 18.5t-18 8.5q-12 0 -19.5 -7.5
t-7.5 -19.5q0 -9 8 -17t19 -11z" />
    <glyph glyph-name="oslash" unicode="&#xf8;" 
d="M-227 548q-8 9 -23 9q-12 0 -17 -7.5t-5 -15.5q0 -7 4 -14t57 -20l3 -18q0 -24 -22 -24l-18 2l-16 2q-7 0 -11 -7q-9 -8 -9 -25q0 -19 13 -31q13 -10 29 -10q24 0 27 13q6 11 17 11q6 0 12.5 -4.5t9.5 -14.5l-3 -10q-20 -35 -62 -35q-30 0 -54 18q-29 26 -29 63
q0 27 21 53l11 5l-3 4l-4 4q-4 5 -7 13q-6 13 -6 26q0 22 14 40q19 22 48 22q30 0 53 -23l5 -13q0 -5 -6 -14q-6 -6 -15 -6q-6 0 -14 7zM-39 540q27 0 47 -20q20 -18 20 -46q0 -27 -20.5 -47.5t-46.5 -20.5t-46 21.5t-20 46.5l1 15q1 3 2 6.5t6 13t22 21.5q17 10 35 10z
M-39 446q9 0 18 9t9 19q0 9 -6.5 16t-20.5 10q-12 0 -17.5 -5.5t-8.5 -20.5q0 -8 9 -20q5 -5 17 -8z" />
    <glyph glyph-name="ugrave" unicode="&#xf9;" 
d="M-175 590q-3 8 -18 19l-15 6l-16 2q-18 0 -30 -9t-12 -28q0 -12 13 -24q13 -10 35 -10q45 0 78 -27l4 -11q0 -9 -5.5 -14.5t-17.5 -8.5q-19 25 -62 25q-23 0 -42.5 -12.5t-19.5 -37.5q0 -22 20 -36t47 -14q19 0 40 9q18 6 24 23q20 0 20 -20l-2 -9q-26 -38 -81 -38
q-36 0 -72 21q-35 27 -35 66q0 32 28 59l17 11q-11 3 -20 19l-9 29q0 24 19 43q24 24 61 24q39 0 68 -25l3 -4l3 -3l1 -5q0 -24 -11 -25z" />
    <glyph glyph-name="uacute" unicode="&#xfa;" horiz-adv-x="440" 
d="M72 15h310q9 0 15 -7l5 -13q0 -7 -5 -12q-2 -5 -15 -8h-310q-20 0 -20 20q0 8 5.5 14t14.5 6z" />
    <glyph glyph-name="ucircumflex" unicode="&#xfb;" horiz-adv-x="485" 
d="M64 -249h360q6 0 13 -6t7 -14q-3 -9 -6 -13t-14 -7h-360q-20 0 -20 20q0 6 5 14q6 6 15 6z" />
    <glyph glyph-name="udieresis" unicode="&#xfc;" 
d="M-140 -10v-240h65q6 0 14 -6l5 -14q0 -20 -19 -20h-85q-20 0 -20 20v260q0 7 6.5 13.5t13.5 6.5q3 -1 5.5 -1.5t8 -4.5t6.5 -14zM-240 -10v-260q0 -6 -6 -13t-14 -7q-20 0 -20 20v260q0 7 6.5 13.5t13.5 6.5q3 -1 5.5 -1.5t8 -4.5t6.5 -14z" />
    <glyph glyph-name="yacute" unicode="&#xfd;" 
d="M-242 -10v-260q0 -20 -20 -20h-85q-20 0 -20 20q1 3 1.5 5.5t4.5 8t14 6.5h65v240q0 7 6.5 13.5t13.5 6.5q3 -1 5.5 -1.5t8 -4.5t6.5 -14zM-142 -10v-240h65q6 0 14 -6l5 -14q0 -20 -19 -20h-85q-20 0 -20 20v260q0 7 6.5 13.5t13.5 6.5q3 -1 5.5 -1.5t8 -4.5t6.5 -14z
" />
    <glyph glyph-name="ydieresis" unicode="&#xff;" horiz-adv-x="440" 
d="M219 330q46 0 85 -22.5t65 -64t26 -87.5q0 -47 -23 -86q-21 -40 -63.5 -65t-89.5 -25q-46 0 -85.5 23.5t-64 65t-24.5 87.5q0 49 23 89t63.5 62.5t87.5 22.5zM219 20q39 0 70 20t48.5 50t17.5 66q0 35 -18 64.5t-51 49.5q-16 10 -32.5 15t-34.5 5q-57 0 -95.5 -40
t-38.5 -94q0 -35 17.5 -65.5t49.5 -51.5q32 -19 67 -19z" />
    <glyph glyph-name="c144" horiz-adv-x="100" 
d="M-200 -30l500 760h70l-500 -760h-70z" />
  </font>
</defs>
</svg>
