<?xml version="1.0" standalone="no"?>
<!DOCTYPE svg PUBLIC "-//W3C//DTD SVG 1.1//EN" "http://www.w3.org/Graphics/SVG/1.1/DTD/svg11.dtd" >
<svg>
<metadata>
Created by FontForge 20120731 at Mon Jun 27 17:10:20 2016
 By www-data
Verdana Navajo based on Verdana typeface and data (c) 1996 Microsoft Corporation. All Rights Reserved
</metadata>
<defs>
<font id="VerdanaNavajo" horiz-adv-x="0" >
  <font-face 
    font-family="Verdana Navajo"
    font-weight="400"
    font-stretch="normal"
    units-per-em="2048"
    panose-1="2 11 6 4 3 5 4 4 2 4"
    ascent="1638"
    descent="-410"
    x-height="1117"
    cap-height="1489"
    bbox="-102 -423 2233 2059"
    underline-thickness="120"
    underline-position="-120"
    unicode-range="U+0020-F00D"
  />
<missing-glyph horiz-adv-x="1024" 
d="M128 0v2059h768v-2059h-768zM256 128h512v1803h-512v-1803z" />
    <glyph glyph-name=".notdef" horiz-adv-x="1024" 
d="M128 0v2059h768v-2059h-768zM256 128h512v1803h-512v-1803z" />
    <glyph glyph-name=".null" 
 />
    <glyph glyph-name="nonmarkingreturn" horiz-adv-x="720" 
 />
    <glyph glyph-name="space" unicode=" " horiz-adv-x="720" 
 />
    <glyph glyph-name="glyph4" horiz-adv-x="720" 
 />
    <glyph glyph-name="twosuperior" unicode="&#xb2;" horiz-adv-x="1110" 
d="M967 566h-760v156q109 67 318 213q115 91 142 122q63 73 63 168q0 145 -197 145q-167 0 -309 -92h-13v180q167 61 333 61q154 0 251 -62q116 -75 116 -220q0 -107 -62 -195q-46 -63 -150 -145q-90 -71 -276 -186h544v-145z" />
    <glyph glyph-name="threesuperior" unicode="&#xb3;" horiz-adv-x="1110" 
d="M956 817q0 -148 -122 -222q-111 -68 -294 -68q-180 0 -333 58v179h14q49 -43 157 -71q93 -24 172 -24q233 0 233 146q0 90 -75 123q-50 22 -155 22h-143v141h128q219 0 219 145q0 132 -203 132q-70 0 -165 -28q-102 -30 -151 -70h-14v178q170 62 337 62q142 0 241 -50
q127 -64 127 -192q0 -171 -199 -229v-8q226 -40 226 -224z" />
    <glyph glyph-name="minus" unicode="&#xad;" horiz-adv-x="1676" 
d="M1456 572h-1236v160h1236v-160z" />
    <glyph glyph-name="minus" unicode="&#x2212;" horiz-adv-x="1676" 
d="M1456 572h-1236v160h1236v-160z" />
    <glyph glyph-name="onehalf" unicode="&#xbd;" horiz-adv-x="2048" 
d="M545 565h-165v681h-209v117q107 0 152 17q76 28 85 113h137v-928zM1410 1489l-780 -1489h-165l780 1489h165zM1955 0h-688v148q91 67 264 210q95 89 122 129q51 73 51 165q0 144 -164 144q-136 0 -254 -92h-15v179q147 61 293 61q141 0 229 -68q97 -75 97 -212
q0 -103 -54 -188q-40 -64 -134 -147q-47 -41 -119 -96l-126 -94h498v-139z" />
    <glyph glyph-name="onesuperior" unicode="&#xb9;" horiz-adv-x="1110" 
d="M914 566h-615v122h234v568h-242v112q123 0 183 25q79 33 84 100h135v-805h221v-122z" />
    <glyph glyph-name="multiply" unicode="&#xd7;" horiz-adv-x="1676" 
d="M1385 216l-111 -111l-436 440l-436 -440l-111 111l440 436l-440 436l111 111l436 -440l436 440l111 -111l-440 -436z" />
    <glyph glyph-name="brokenbar" unicode="&#xa6;" horiz-adv-x="930" 
d="M552 758h-174v798h174v-798zM552 -392h-174v798h174v-798z" />
    <glyph glyph-name="exclam" unicode="!" horiz-adv-x="1400" 
d="M1374 0h-211l-146 415h-644l-146 -415h-201l542 1489h264zM956 585l-261 731l-262 -731h523zM955 2049l-273 -374h-149l179 374h243z" />
    <glyph glyph-name="quotedbl" unicode="&#x22;" horiz-adv-x="940" 
d="M772 1556l-43 -579h-132l-43 579h218zM386 1556l-43 -579h-132l-43 579h218z" />
    <glyph glyph-name="numbersign" unicode="#" horiz-adv-x="1400" 
d="M1374 0h-211l-146 415h-644l-146 -415h-201l542 1489h264zM956 585l-261 731l-262 -731h523zM1032 -391q-97 -26 -169 -26q-142 0 -225 80t-83 221q0 44 19 126h155q-12 -54 -12 -117q0 -160 173 -160q60 0 134 35h8v-159zM955 2049l-273 -374h-149l179 374h243z" />
    <glyph glyph-name="dollar" unicode="$" horiz-adv-x="1295" 
d="M1181 0h-981v1489h981v-176h-783v-408h783v-176h-783v-553h783v-176zM993 2049l-273 -374h-149l179 374h243z" />
    <glyph glyph-name="percent" unicode="%" horiz-adv-x="1295" 
d="M1181 0h-981v1489h981v-176h-783v-408h783v-176h-783v-553h783v-176zM1012 -391q-97 -26 -169 -26q-142 0 -225 80t-83 221q0 44 19 126h155q-12 -54 -12 -117q0 -160 173 -160q60 0 134 35h8v-159z" />
    <glyph glyph-name="ampersand" unicode="&#x26;" horiz-adv-x="862" 
d="M725 0h-588v152h195v1185h-195v152h588v-152h-195v-1185h195v-152zM725 2049l-273 -374h-149l179 374h243z" />
    <glyph glyph-name="quotesingle" unicode="'" horiz-adv-x="550" 
d="M386 1556l-43 -579h-136l-43 579h222z" />
    <glyph glyph-name="parenleft" unicode="(" horiz-adv-x="862" 
d="M372 0h-235v152h195v1185h-195v152h588v-152h-195v-1185h195v-152h-194l-10 -49q-5 -20 -5 -58q0 -161 154 -161q65 0 117 30h9v-158q-76 -21 -151 -21q-137 0 -213 81t-76 219q0 48 16 117zM725 2049l-273 -374h-149l179 374h243z" />
    <glyph glyph-name="parenright" unicode=")" horiz-adv-x="1612" 
d="M1450 1073q48 -145 48 -329q0 -366 -187 -570.5t-505 -204.5q-319 0 -505 204.5t-186 570.5q0 364 188 574q181 202 503 202q160 0 288 -52q259 -107 356 -395zM1292 744q0 261 -109 420q-127 185 -376 185q-250 0 -377 -184q-109 -159 -109 -421q0 -261 110 -420
q127 -184 376 -184t375 184q110 159 110 420zM1083 2049l-273 -374h-149l179 374h243z" />
    <glyph glyph-name="asterisk" unicode="*" horiz-adv-x="862" 
d="M372 0h-235v152h195v1185h-195v152h588v-152h-195v-1185h195v-152h-194l-10 -49q-5 -20 -5 -58q0 -161 154 -161q65 0 117 30h9v-158q-76 -21 -151 -21q-137 0 -213 81t-76 219q0 48 16 117z" />
    <glyph glyph-name="plus" unicode="+" horiz-adv-x="1612" 
d="M1450 1073q48 -145 48 -329q0 -366 -187 -570.5t-505 -204.5q-319 0 -505 204.5t-186 570.5q0 364 188 574q181 202 503 202q160 0 288 -52q259 -107 356 -395zM1292 744q0 261 -109 420q-127 185 -376 185q-250 0 -377 -184q-109 -159 -109 -421q0 -261 110 -420
q127 -184 376 -184t375 184q110 159 110 420zM1083 2049l-273 -374h-149l179 374h243zM1192 -391q-97 -26 -169 -26q-142 0 -225 80t-83 221q0 44 19 126h155q-12 -54 -12 -117q0 -160 173 -160q60 0 134 35h8v-159z" />
    <glyph glyph-name="comma" unicode="," horiz-adv-x="745" 
d="M575 285l-282 -655h-146l174 655h254z" />
    <glyph glyph-name="hyphen" unicode="-" horiz-adv-x="1243" 
d="M1137 558q0 -257 -127 -416q-138 -173 -388 -173q-251 0 -389 173q-127 158 -127 416t127 417q138 173 389 173q250 0 388 -174q127 -159 127 -416zM943 558q0 428 -321 428q-322 0 -322 -428q0 -184 68 -293q82 -134 254 -134t254 134q67 110 67 293zM992 -391
q-97 -26 -169 -26q-142 0 -225 80t-83 221q0 44 19 126h155q-12 -54 -12 -117q0 -160 173 -160q60 0 134 35h8v-159z" />
    <glyph glyph-name="hyphen" unicode="&#x2010;" horiz-adv-x="1243" 
d="M1137 558q0 -257 -127 -416q-138 -173 -388 -173q-251 0 -389 173q-127 158 -127 416t127 417q138 173 389 173q250 0 388 -174q127 -159 127 -416zM943 558q0 428 -321 428q-322 0 -322 -428q0 -184 68 -293q82 -134 254 -134t254 134q67 110 67 293zM992 -391
q-97 -26 -169 -26q-142 0 -225 80t-83 221q0 44 19 126h155q-12 -54 -12 -117q0 -160 173 -160q60 0 134 35h8v-159z" />
    <glyph glyph-name="period" unicode="." horiz-adv-x="745" 
d="M492 0h-239v285h239v-285z" />
    <glyph glyph-name="slash" unicode="/" horiz-adv-x="930" 
d="M860 1556l-717 -1860h-173l714 1860h176z" />
    <glyph glyph-name="zero" unicode="0" horiz-adv-x="1243" 
d="M1137 558q0 -257 -127 -416q-138 -173 -388 -173q-251 0 -389 173q-127 158 -127 416t127 417q138 173 389 173q250 0 388 -174q127 -159 127 -416zM943 558q0 428 -321 428q-322 0 -322 -428q0 -184 68 -293q82 -134 254 -134t254 134q67 110 67 293zM933 1676
l-273 -374h-149l179 374h243z" />
    <glyph glyph-name="one" unicode="1" horiz-adv-x="1230" 
d="M1053 0h-187v119q-48 -35 -150 -96q-115 -54 -251 -54q-154 0 -257.5 100.5t-103.5 254.5q0 236 210 329q147 65 552 85v29q0 122 -87 172q-68 39 -213 39q-154 0 -353 -76h-10v191q187 51 364 51q240 0 357 -86q129 -94 129 -300v-758zM866 275v311q-150 -9 -196 -13
q-120 -11 -191 -31q-181 -51 -181 -205q0 -193 235 -193q163 0 333 131zM934 1676l-273 -374h-149l179 374h243z" />
    <glyph glyph-name="two" unicode="2" horiz-adv-x="1230" 
d="M1053 0h-187v119q-48 -35 -150 -96q-115 -54 -251 -54q-154 0 -257.5 100.5t-103.5 254.5q0 236 210 329q147 65 552 85v29q0 122 -87 172q-68 39 -213 39q-154 0 -353 -76h-10v191q187 51 364 51q240 0 357 -86q129 -94 129 -300v-758zM866 275v311q-150 -9 -196 -13
q-120 -11 -191 -31q-181 -51 -181 -205q0 -193 235 -193q163 0 333 131zM972 -391q-97 -26 -169 -26q-142 0 -225 80t-83 221q0 44 19 126h155q-12 -54 -12 -117q0 -160 173 -160q60 0 134 35h8v-159z" />
    <glyph glyph-name="three" unicode="3" horiz-adv-x="1230" 
d="M1053 0h-187v119q-48 -35 -150 -96q-115 -54 -251 -54q-154 0 -257.5 100.5t-103.5 254.5q0 236 210 329q147 65 552 85v29q0 122 -87 172q-68 39 -213 39q-154 0 -353 -76h-10v191q187 51 364 51q240 0 357 -86q129 -94 129 -300v-758zM866 275v311q-150 -9 -196 -13
q-120 -11 -191 -31q-181 -51 -181 -205q0 -193 235 -193q163 0 333 131zM934 1676l-273 -374h-149l179 374h243zM972 -391q-97 -26 -169 -26q-142 0 -225 80t-83 221q0 44 19 126h155q-12 -54 -12 -117q0 -160 173 -160q60 0 134 35h8v-159z" />
    <glyph glyph-name="four" unicode="4" horiz-adv-x="1220" 
d="M1120 539h-823q0 -199 116 -305q105 -96 281 -96q93 0 208 37q122 40 186 98h10v-205q-223 -94 -402 -94q-279 0 -433 149q-157 152 -157 429q0 261 139 424q147 172 404 172q233 0 355 -139q116 -132 116 -368v-102zM937 683q-2 310 -298 310q-142 0 -235.5 -84
t-106.5 -226h640zM960 1676l-273 -374h-149l179 374h243z" />
    <glyph glyph-name="five" unicode="5" horiz-adv-x="1220" 
d="M1120 539h-823q0 -199 116 -305q105 -96 281 -96q93 0 208 37q122 40 186 98h10v-205q-177 -74 -310 -89q-5 -50 -5 -86q0 -160 173 -160q60 0 134 35h8v-159q-97 -26 -169 -26q-142 0 -225 80t-83 221q0 47 10 92q-253 18 -390 171q-135 150 -135 405q0 261 139 424
q147 172 404 172q233 0 355 -139q116 -132 116 -368v-102zM937 683q-2 310 -298 310q-142 0 -235.5 -84t-106.5 -226h640z" />
    <glyph glyph-name="six" unicode="6" horiz-adv-x="1220" 
d="M1120 539h-823q0 -199 116 -305q105 -96 281 -96q93 0 208 37q122 40 186 98h10v-205q-177 -74 -310 -89q-5 -50 -5 -86q0 -160 173 -160q60 0 134 35h8v-159q-97 -26 -169 -26q-142 0 -225 80t-83 221q0 47 10 92q-253 18 -390 171q-135 150 -135 405q0 261 139 424
q147 172 404 172q233 0 355 -139q116 -132 116 -368v-102zM937 683q-2 310 -298 310q-142 0 -235.5 -84t-106.5 -226h640zM960 1676l-273 -374h-149l179 374h243z" />
    <glyph glyph-name="seven" unicode="7" horiz-adv-x="562" 
d="M375 0h-188v1117h188v-1117zM582 1676l-273 -374h-149l179 374h243z" />
    <glyph glyph-name="eight" unicode="8" horiz-adv-x="562" 
d="M387 1304h-212v195h212v-195zM582 -396q-76 -21 -151 -21q-137 0 -213 81t-76 219q0 63 19 119l26 80v1035h188v-1117h-60q-13 -56 -13 -107q0 -161 154 -161q65 0 117 30h9v-158z" />
    <glyph glyph-name="nine" unicode="9" horiz-adv-x="562" 
d="M582 -396q-76 -21 -151 -21q-137 0 -213 81t-76 219q0 63 19 119l26 80v1035h188v-1117h-60q-13 -56 -13 -107q0 -161 154 -161q65 0 117 30h9v-158zM582 1676l-273 -374h-149l179 374h243z" />
    <glyph glyph-name="colon" unicode=":" horiz-adv-x="930" 
d="M585 832h-239v285h239v-285zM585 0h-239v285h239v-285z" />
    <glyph glyph-name="semicolon" unicode=";" horiz-adv-x="930" 
d="M585 832h-239v285h239v-285zM658 285l-282 -655h-146l174 655h254z" />
    <glyph glyph-name="less" unicode="&#x3c;" horiz-adv-x="1676" 
d="M1408 77l-1154 513v124l1154 513v-180l-910 -395l910 -395v-180z" />
    <glyph glyph-name="equal" unicode="=" horiz-adv-x="1243" 
d="M1137 558q0 -257 -127 -416q-138 -173 -388 -173q-251 0 -389 173q-127 158 -127 416t127 417q138 173 389 173q250 0 388 -174q127 -159 127 -416zM943 558q0 428 -321 428q-322 0 -322 -428q0 -184 68 -293q82 -134 254 -134t254 134q67 110 67 293zM933 1676
l-273 -374h-149l179 374h243zM992 -391q-97 -26 -169 -26q-142 0 -225 80t-83 221q0 44 19 126h155q-12 -54 -12 -117q0 -160 173 -160q60 0 134 35h8v-159z" />
    <glyph glyph-name="greater" unicode="&#x3e;" horiz-adv-x="1676" 
d="M1422 590l-1154 -513v180l910 395l-910 395v180l1154 -513v-124z" />
    <glyph glyph-name="question" unicode="?" horiz-adv-x="1117" 
d="M1005 1139q0 -180 -127 -310q-91 -93 -284 -204v-225h-179v305q68 39 137 78q78 47 127 92q122 112 122 249q0 115 -82 173q-72 51 -192 51q-192 0 -357 -103h-10v204q181 70 381 70q196 0 321 -90q143 -102 143 -290zM610 0h-204v211h204v-211z" />
    <glyph glyph-name="at" unicode="@" horiz-adv-x="1400" 
d="M1374 0h-211l-146 415h-644l-146 -415h-201l542 1489h264zM956 585l-261 731l-262 -731h523zM1032 -391q-97 -26 -169 -26q-142 0 -225 80t-83 221q0 44 19 126h155q-12 -54 -12 -117q0 -160 173 -160q60 0 134 35h8v-159z" />
    <glyph glyph-name="A" unicode="A" horiz-adv-x="1400" 
d="M1374 0h-211l-146 415h-644l-146 -415h-201l542 1489h264zM956 585l-261 731l-262 -731h523z" />
    <glyph glyph-name="B" unicode="B" horiz-adv-x="1404" 
d="M1323 458q0 -215 -155.5 -336.5t-439.5 -121.5h-528v1489h441q280 0 399 -62q156 -81 156 -272q0 -201 -198 -300v-8q152 -31 238.5 -133t86.5 -256zM990 1129q0 107 -76 151q-70 40 -280 40h-236v-430h256q173 0 250 49q86 55 86 190zM1117 450q0 168 -125 233
q-77 40 -283 40h-311v-554h262q257 0 349 63q108 74 108 218z" />
    <glyph glyph-name="C" unicode="C" horiz-adv-x="1430" 
d="M1350 108q-68 -32 -216 -89q-146 -46 -290 -46q-335 0 -525 188q-204 202 -204 582q0 368 202 574q195 199 528 199q243 0 505 -131v-235h-15q-235 197 -503 197q-227 0 -365 -150q-146 -159 -146 -454q0 -293 152 -454q137 -145 361 -145q284 0 502 196h14v-232z" />
    <glyph glyph-name="D" unicode="D" horiz-adv-x="1578" 
d="M1458 743q0 -191 -82 -355q-86 -172 -242 -269q-192 -119 -558 -119h-376v1489h372q374 0 564 -118q322 -200 322 -628zM1251 746q0 346 -243 484q-156 89 -424 89h-186v-1149h186q290 0 445 99q222 142 222 477z" />
    <glyph glyph-name="E" unicode="E" horiz-adv-x="1295" 
d="M1181 0h-981v1489h981v-176h-783v-408h783v-176h-783v-553h783v-176z" />
    <glyph glyph-name="F" unicode="F" horiz-adv-x="1177" 
d="M1151 1313h-753v-420h647v-176h-647v-717h-198v1489h951v-176z" />
    <glyph glyph-name="G" unicode="G" horiz-adv-x="1588" 
d="M1442 110q-303 -139 -546 -139q-362 0 -566 192q-215 202 -215 583q0 361 211 566q208 204 570 204q264 0 545 -134v-235h-18q-108 84 -206 128q-159 72 -355 72q-260 0 -405 -170q-136 -160 -136 -425q0 -278 143 -440q149 -170 423 -170q196 0 359 68v365h-399v174h595
v-639z" />
    <glyph glyph-name="H" unicode="H" horiz-adv-x="1539" 
d="M1339 0h-198v729h-743v-729h-198v1489h198v-584h743v584h198v-1489z" />
    <glyph glyph-name="I" unicode="I" horiz-adv-x="862" 
d="M725 0h-588v152h195v1185h-195v152h588v-152h-195v-1185h195v-152z" />
    <glyph glyph-name="J" unicode="J" horiz-adv-x="931" 
d="M746 387q0 -197 -123 -305q-117 -103 -317 -103q-132 0 -262 29v185h11q129 -44 224 -44q173 0 227 81q42 63 42 232v869h-315v158h513v-1102z" />
    <glyph glyph-name="K" unicode="K" horiz-adv-x="1419" 
d="M1397 0h-257l-589 663l-148 -158v-505h-198v1489h198v-777l723 777h240l-665 -700z" />
    <glyph glyph-name="L" unicode="L" horiz-adv-x="1140" 
d="M1142 0h-942v1489h198v-1313h744v-176z" />
    <glyph glyph-name="M" unicode="M" horiz-adv-x="1726" 
d="M1526 0h-198v1283l-414 -873h-118l-411 873v-1283h-185v1489h270l397 -829l384 829h275v-1489z" />
    <glyph glyph-name="N" unicode="N" horiz-adv-x="1532" 
d="M1336 0h-245l-706 1332v-1332h-185v1489h307l644 -1216v1216h185v-1489z" />
    <glyph glyph-name="O" unicode="O" horiz-adv-x="1612" 
d="M1450 1073q48 -145 48 -329q0 -366 -187 -570.5t-505 -204.5q-319 0 -505 204.5t-186 570.5q0 364 188 574q181 202 503 202q160 0 288 -52q259 -107 356 -395zM1292 744q0 261 -109 420q-127 185 -376 185q-250 0 -377 -184q-109 -159 -109 -421q0 -261 110 -420
q127 -184 376 -184t375 184q110 159 110 420z" />
    <glyph glyph-name="P" unicode="P" horiz-adv-x="1235" 
d="M1174 1039q0 -199 -131 -330q-154 -154 -447 -154h-198v-555h-198v1489h404q253 0 392 -93q178 -119 178 -357zM968 1034q0 156 -109 227q-89 58 -265 58h-196v-595h167q228 0 317 90q86 87 86 220z" />
    <glyph glyph-name="Q" unicode="Q" horiz-adv-x="1612" 
d="M1528 -365q-112 -28 -238 -28q-177 0 -281 96.5t-113 272.5q-42 -7 -90 -7q-319 0 -505 204.5t-186 570.5q0 364 188 574q181 202 503 202q319 0 504 -202q188 -206 188 -574q0 -245 -94 -429q-108 -209 -317 -293q4 -124 58.5 -182t177.5 -58q94 0 178 35h27v-182z
M1292 744q0 261 -109 420q-127 185 -376 185q-250 0 -377 -184q-109 -159 -109 -421q0 -261 110 -420q127 -184 376 -184t375 184q110 159 110 420z" />
    <glyph glyph-name="R" unicode="R" horiz-adv-x="1424" 
d="M1432 0h-257l-498 592h-279v-592h-198v1489h417q259 0 387 -80q172 -108 172 -325q0 -315 -304 -433zM969 1070q0 133 -97 197q-78 52 -241 52h-233v-562h200q199 0 283 78q88 81 88 235z" />
    <glyph glyph-name="S" unicode="S" horiz-adv-x="1400" 
d="M1282 425q0 -192 -154 -316q-169 -136 -443 -136q-283 0 -551 119v248h14q107 -89 253.5 -142.5t285.5 -53.5q152 0 255 51q134 66 134 202q0 97 -51 149q-44 43 -145 70q-116 21 -348 66q-389 81 -389 408q0 207 183 325q158 101 376 101q281 0 520 -104v-234h-14
q-94 79 -239 125q-135 42 -268 42t-230 -51q-122 -63 -122 -185q0 -102 59 -157q50 -45 158 -70q128 -21 382 -75q334 -88 334 -382z" />
    <glyph glyph-name="T" unicode="T" horiz-adv-x="1262" 
d="M1262 1313h-532v-1313h-198v1313h-532v176h1262v-176z" />
    <glyph glyph-name="U" unicode="U" horiz-adv-x="1499" 
d="M1321 598q0 -333 -152 -483q-148 -146 -420 -146q-275 0 -419 146q-152 154 -152 483v891h198v-901q0 -212 72 -318q89 -131 301 -131q213 0 302 131q72 105 72 313v906h198v-891z" />
    <glyph glyph-name="V" unicode="V" horiz-adv-x="1400" 
d="M1374 1489l-542 -1489h-264l-542 1489h212l467 -1310l467 1310h202z" />
    <glyph glyph-name="W" unicode="W" horiz-adv-x="2025" 
d="M1933 1489l-387 -1489h-223l-313 1236l-306 -1236h-218l-394 1489h203l313 -1238l308 1238h201l311 -1250l311 1250h194z" />
    <glyph glyph-name="X" unicode="X" horiz-adv-x="1403" 
d="M1336 1489l-514 -736l513 -753h-229l-406 613l-416 -613h-216l519 744l-507 745h228l401 -605l410 605h217z" />
    <glyph glyph-name="Y" unicode="Y" horiz-adv-x="1260" 
d="M1254 1489l-524 -836v-653h-198v632l-526 857h219l407 -666l411 666h211z" />
    <glyph glyph-name="Z" unicode="Z" horiz-adv-x="1403" 
d="M1288 0h-1162v184l913 1129h-879v176h1106v-179l-922 -1134h944v-176z" />
    <glyph glyph-name="bracketleft" unicode="[" horiz-adv-x="582" 
d="M566 890l-181 -145v-745h-188v608l-173 -141v159l173 138v792h188v-655l181 148v-159z" />
    <glyph glyph-name="backslash" unicode="\" horiz-adv-x="930" 
d="M960 -304h-173l-717 1860h176z" />
    <glyph glyph-name="bracketright" unicode="]" horiz-adv-x="1296" 
d="M1119 0h-188v636q0 181 -42 250q-51 83 -194 83q-146 0 -322 -135v-834h-188v1117h188v-124q187 155 375 155q371 0 371 -423v-725zM963 1676l-273 -374h-149l179 374h243z" />
    <glyph glyph-name="asciicircum" unicode="^" horiz-adv-x="1295" 
d="M1181 0h-981v1489h981v-176h-783v-408h783v-176h-783v-553h783v-176zM993 2049l-273 -374h-149l179 374h243zM1012 -391q-97 -26 -169 -26q-142 0 -225 80t-83 221q0 44 19 126h155q-12 -54 -12 -117q0 -160 173 -160q60 0 134 35h8v-159z" />
    <glyph glyph-name="underscore" unicode="_" horiz-adv-x="1612" 
d="M1450 1073q48 -145 48 -329q0 -366 -187 -570.5t-505 -204.5q-319 0 -505 204.5t-186 570.5q0 364 188 574q181 202 503 202q160 0 288 -52q259 -107 356 -395zM1292 744q0 261 -109 420q-127 185 -376 185q-250 0 -377 -184q-109 -159 -109 -421q0 -261 110 -420
q127 -184 376 -184t375 184q110 159 110 420zM1192 -391q-97 -26 -169 -26q-142 0 -225 80t-83 221q0 44 19 126h155q-12 -54 -12 -117q0 -160 173 -160q60 0 134 35h8v-159z" />
    <glyph glyph-name="grave" unicode="`" horiz-adv-x="1302" 
d="M762 1302h-149l-273 374h243z" />
    <glyph glyph-name="a" unicode="a" horiz-adv-x="1230" 
d="M1053 0h-187v119q-48 -35 -150 -96q-115 -54 -251 -54q-154 0 -257.5 100.5t-103.5 254.5q0 236 210 329q147 65 552 85v29q0 122 -87 172q-68 39 -213 39q-154 0 -353 -76h-10v191q187 51 364 51q240 0 357 -86q129 -94 129 -300v-758zM866 275v311q-150 -9 -196 -13
q-120 -11 -191 -31q-181 -51 -181 -205q0 -193 235 -193q163 0 333 131z" />
    <glyph glyph-name="b" unicode="b" horiz-adv-x="1276" 
d="M1168 567q0 -276 -146 -440q-141 -158 -343 -158q-155 0 -306 83l-12 -52h-176v1556h188v-556q180 148 368 148q225 0 336 -187q91 -153 91 -394zM974 562q0 407 -279 407q-159 0 -322 -127v-640q142 -64 268 -64q333 0 333 424z" />
    <glyph glyph-name="c" unicode="c" horiz-adv-x="1067" 
d="M1011 70q-198 -95 -358 -95q-251 0 -395 143q-153 152 -153 439q0 263 141 421q148 165 407 165q174 0 358 -93v-209h-10q-178 139 -356 139t-267 -127q-78 -110 -78 -296t78 -294q89 -125 267 -125q116 0 222 54q79 40 134 85h10v-207z" />
    <glyph glyph-name="d" unicode="d" horiz-adv-x="1276" 
d="M1091 0h-188v117q-171 -148 -360 -148q-225 0 -340 186q-95 155 -95 395q0 273 150 442q139 156 346 156q153 0 299 -76v484h188v-1556zM903 275v641q-134 60 -267 60q-174 0 -260 -129q-74 -110 -74 -293q0 -406 286 -406q154 0 315 127z" />
    <glyph glyph-name="e" unicode="e" horiz-adv-x="1220" 
d="M1120 539h-823q0 -199 116 -305q105 -96 281 -96q93 0 208 37q122 40 186 98h10v-205q-223 -94 -402 -94q-279 0 -433 149q-157 152 -157 429q0 261 139 424q147 172 404 172q233 0 355 -139q116 -132 116 -368v-102zM937 683q-2 310 -298 310q-142 0 -235.5 -84
t-106.5 -226h640z" />
    <glyph glyph-name="f" unicode="f" horiz-adv-x="720" 
d="M786 1374h-10q-96 28 -169 28q-128 0 -181 -60q-49 -56 -49 -187v-38h339v-158h-333v-959h-188v959h-127v158h127v37q0 194 94 301q99 111 291 111q101 0 206 -20v-172z" />
    <glyph glyph-name="g" unicode="g" horiz-adv-x="1276" 
d="M1091 127q0 -277 -124 -411q-128 -139 -402 -139q-169 0 -340 48v192h10q181 -71 346 -71q181 0 257 87q65 74 65 217v102q-92 -74 -167 -103q-82 -32 -193 -32q-223 0 -337 171q-98 146 -98 381q0 265 151 429q138 150 343 150q157 0 301 -79l12 48h176v-990zM903 307
v609q-139 63 -268 63q-171 0 -258 -121q-75 -106 -75 -285q0 -382 285 -382q165 0 316 116z" />
    <glyph glyph-name="h" unicode="h" horiz-adv-x="1296" 
d="M1119 0h-188v636q0 181 -42 250q-51 83 -194 83q-146 0 -322 -135v-834h-188v1556h188v-563q187 155 375 155q371 0 371 -423v-725z" />
    <glyph glyph-name="i" unicode="i" horiz-adv-x="562" 
d="M387 1304h-212v195h212v-195zM375 0h-188v1117h188v-1117z" />
    <glyph glyph-name="j" unicode="j" horiz-adv-x="705" 
d="M533 1304h-212v195h212v-195zM521 -27q0 -183 -91 -287q-96 -109 -277 -109q-112 0 -215 28v179h10q99 -39 168 -39q138 0 182 80q35 64 35 234v900h-233v158h421v-1144z" />
    <glyph glyph-name="k" unicode="k" horiz-adv-x="1212" 
d="M1199 0h-248l-448 489l-122 -116v-373h-188v1556h188v-998l543 559h237l-519 -516z" />
    <glyph glyph-name="l" unicode="l" horiz-adv-x="562" 
d="M375 0h-188v1556h188v-1556z" />
    <glyph glyph-name="m" unicode="m" horiz-adv-x="1992" 
d="M1815 0h-188v636q0 182 -34 246q-46 87 -190 87q-135 0 -316 -140q7 -54 7 -114v-715h-188v636q0 183 -34 247q-46 86 -190 86q-133 0 -309 -135v-834h-188v1117h188v-124q187 155 362 155q229 0 312 -181q215 181 409 181q359 0 359 -423v-725z" />
    <glyph glyph-name="n" unicode="n" horiz-adv-x="1296" 
d="M1119 0h-188v636q0 181 -42 250q-51 83 -194 83q-146 0 -322 -135v-834h-188v1117h188v-124q187 155 375 155q371 0 371 -423v-725z" />
    <glyph glyph-name="o" unicode="o" horiz-adv-x="1243" 
d="M1137 558q0 -257 -127 -416q-138 -173 -388 -173q-251 0 -389 173q-127 158 -127 416t127 417q138 173 389 173q250 0 388 -174q127 -159 127 -416zM943 558q0 428 -321 428q-322 0 -322 -428q0 -184 68 -293q82 -134 254 -134t254 134q67 110 67 293z" />
    <glyph glyph-name="p" unicode="p" horiz-adv-x="1276" 
d="M1168 572q0 -274 -149 -439q-140 -155 -345 -155q-159 0 -301 78v-468h-188v1529h188v-117q176 148 368 148q225 0 336 -184q91 -151 91 -392zM974 567q0 402 -281 402q-153 0 -320 -127v-633q138 -62 268 -62q176 0 261 127q72 108 72 293z" />
    <glyph glyph-name="q" unicode="q" horiz-adv-x="1276" 
d="M1091 -412h-188v538q-172 -148 -359 -148q-224 0 -339 185q-97 154 -97 392q0 273 151 440q139 153 343 153q155 0 301 -79l12 48h176v-1529zM903 284v632q-140 63 -268 63q-173 0 -259 -125q-74 -108 -74 -290q0 -407 284 -407q156 0 317 127z" />
    <glyph glyph-name="r" unicode="r" horiz-adv-x="874" 
d="M882 912h-10q-80 19 -175 19q-154 0 -324 -138v-793h-188v1117h188v-165q205 165 372 165q62 0 137 -12v-193z" />
    <glyph glyph-name="s" unicode="s" horiz-adv-x="1067" 
d="M983 322q0 -176 -155 -270q-129 -79 -317 -79q-213 0 -401 94v211h10q194 -146 407 -146q264 0 264 166q0 76 -56 114q-37 24 -128 44q-74 14 -222 47q-270 72 -270 300q0 143 115 239q122 102 336 102q210 0 373 -84v-201h-10q-171 126 -377 126q-94 0 -160 -32
q-85 -41 -85 -125q0 -119 179 -161q75 -14 224 -46q273 -63 273 -299z" />
    <glyph glyph-name="t" unicode="t" horiz-adv-x="807" 
d="M765 10q-121 -32 -227 -32q-349 0 -349 387v594h-127v158h127v321h188v-321h388v-158h-388v-509q0 -172 32 -230q43 -77 178 -77q80 0 168 36h10v-169z" />
    <glyph glyph-name="u" unicode="u" horiz-adv-x="1296" 
d="M1111 0h-188v124q-196 -155 -374 -155q-189 0 -285 120q-87 109 -87 303v725h188v-636q0 -180 42 -249q51 -84 195 -84q149 0 321 135v834h188v-1117z" />
    <glyph glyph-name="v" unicode="v" horiz-adv-x="1212" 
d="M1151 1117l-452 -1117h-189l-449 1117h204l346 -889l343 889h197z" />
    <glyph glyph-name="w" unicode="w" horiz-adv-x="1676" 
d="M1590 1117l-291 -1117h-174l-287 861l-285 -861h-173l-294 1117h196l205 -865l279 865h155l286 -865l194 865h189z" />
    <glyph glyph-name="x" unicode="x" horiz-adv-x="1212" 
d="M1152 0h-237l-317 429l-319 -429h-219l436 557l-432 560h237l315 -422l316 422h220l-439 -550z" />
    <glyph glyph-name="y" unicode="y" horiz-adv-x="1212" 
d="M1151 1117l-652 -1529h-201l208 466l-445 1063h204l343 -828l346 828h197z" />
    <glyph glyph-name="z" unicode="z" horiz-adv-x="1076" 
d="M995 0h-902v139l651 821h-637v157h871v-134l-654 -824h671v-159z" />
    <glyph glyph-name="braceleft" unicode="{" horiz-adv-x="1150" 
d="M1152 0h-942v535l-186 -152v163l186 149v794h198v-648l349 283v-163l-349 -280v-505h744v-176z" />
    <glyph glyph-name="bar" unicode="|" horiz-adv-x="930" 
d="M552 -392h-174v1948h174v-1948z" />
    <glyph glyph-name="braceright" unicode="}" horiz-adv-x="1532" 
d="M1336 0h-245l-706 1332v-1332h-185v1489h307l644 -1216v1216h185v-1489zM1083 2049l-273 -374h-149l179 374h243z" />
    <glyph glyph-name="asciitilde" unicode="~" horiz-adv-x="1676" 
d="M1489 927q-5 -227 -88 -366q-99 -165 -276 -165q-176 0 -324 181q-80 97 -105 121q-72 68 -139 68q-186 0 -203 -371h-167q4 223 87 366q95 165 277 165q177 0 325 -181q78 -95 105 -121q73 -68 138 -68q196 0 203 371h167z" />
    <glyph glyph-name="Eacute" unicode="&#xc9;" horiz-adv-x="1295" 
d="M1181 0h-981v1489h981v-176h-783v-408h783v-176h-783v-553h783v-176zM993 2049l-273 -374h-149l179 374h243z" />
    <glyph glyph-name="aacute" unicode="&#xe1;" horiz-adv-x="1230" 
d="M1053 0h-187v119q-48 -35 -150 -96q-115 -54 -251 -54q-154 0 -257.5 100.5t-103.5 254.5q0 236 210 329q147 65 552 85v29q0 122 -87 172q-68 39 -213 39q-154 0 -353 -76h-10v191q187 51 364 51q240 0 357 -86q129 -94 129 -300v-758zM866 275v311q-150 -9 -196 -13
q-120 -11 -191 -31q-181 -51 -181 -205q0 -193 235 -193q163 0 333 131zM934 1676l-273 -374h-149l179 374h243z" />
    <glyph glyph-name="eacute" unicode="&#xe9;" horiz-adv-x="1220" 
d="M1120 539h-823q0 -199 116 -305q105 -96 281 -96q93 0 208 37q122 40 186 98h10v-205q-223 -94 -402 -94q-279 0 -433 149q-157 152 -157 429q0 261 139 424q147 172 404 172q233 0 355 -139q116 -132 116 -368v-102zM937 683q-2 310 -298 310q-142 0 -235.5 -84
t-106.5 -226h640zM960 1676l-273 -374h-149l179 374h243z" />
    <glyph glyph-name="iacute" unicode="&#xed;" horiz-adv-x="562" 
d="M375 0h-188v1117h188v-1117zM582 1676l-273 -374h-149l179 374h243z" />
    <glyph glyph-name="oacute" unicode="&#xf3;" horiz-adv-x="1243" 
d="M1137 558q0 -257 -127 -416q-138 -173 -388 -173q-251 0 -389 173q-127 158 -127 416t127 417q138 173 389 173q250 0 388 -174q127 -159 127 -416zM943 558q0 428 -321 428q-322 0 -322 -428q0 -184 68 -293q82 -134 254 -134t254 134q67 110 67 293zM933 1676
l-273 -374h-149l179 374h243z" />
    <glyph glyph-name="dagger" unicode="&#x2020;" horiz-adv-x="1302" 
d="M1115 1034l-403 5l5 -904h-132l5 904l-403 -5v129l403 -5l-5 398h132l-5 -398l403 5v-129z" />
    <glyph glyph-name="degree" unicode="&#xb0;" horiz-adv-x="1110" 
d="M956 1116q0 -170 -115.5 -285t-285.5 -115t-285.5 115t-115.5 285t115.5 285t285.5 115t285.5 -115t115.5 -285zM791 1116q0 103 -67 172t-169 69t-169 -69t-67 -172q0 -102 67 -171.5t169 -69.5t169 69.5t67 171.5z" />
    <glyph glyph-name="cent" unicode="&#xa2;" horiz-adv-x="1302" 
d="M1120 74q-177 -75 -355 -80v-355h-118v359q-237 22 -364 172q-124 146 -124 387q0 234 127 385q131 155 361 178v355h118v-351q204 -6 355 -78v-203h-11q-150 120 -344 135v-839q195 16 344 136h11v-201zM647 142v834q-154 -23 -231 -146q-66 -107 -66 -273
q0 -366 297 -415z" />
    <glyph glyph-name="sterling" unicode="&#xa3;" horiz-adv-x="1302" 
d="M1163 0h-1026v207q133 36 184 157q37 88 37 249h-176v138h176v310q0 203 127.5 330t330.5 127q129 0 321 -51v-206h-10q-133 90 -300 90q-279 0 -279 -309v-291h415v-138h-415v-61q0 -241 -222 -370v-11h837v-171z" />
    <glyph glyph-name="section" unicode="&#xa7;" horiz-adv-x="1302" 
d="M1128 601q0 -202 -217 -323v-7q185 -88 185 -281q0 -164 -131 -265q-142 -110 -390 -110q-174 0 -346 58v194h10q186 -87 367 -87q113 0 192 36q104 48 104 148q0 99 -84 146q-48 27 -267 80q-176 43 -260 104q-119 86 -119 239q0 203 216 324v7q-185 88 -185 283
q0 162 131 264q139 108 391 108q167 0 346 -57v-194h-10q-187 87 -368 87q-111 0 -190 -35q-106 -47 -106 -144q0 -105 86 -151q65 -35 266 -81q177 -41 262 -102q117 -86 117 -241zM924 465q15 32 15 90q0 93 -62 144q-46 38 -150 67q-68 16 -202 52q-56 -28 -102 -78
q-62 -67 -62 -161q0 -133 128 -183q38 -15 84 -27l86 -22q48 -12 115 -31q20 11 53 35q66 47 97 114z" />
    <glyph glyph-name="bullet" unicode="&#x2022;" horiz-adv-x="1117" 
d="M932 662q0 -155 -109.5 -264t-264.5 -109t-264 109t-109 264t109 264t264 109t264.5 -109t109.5 -264z" />
    <glyph glyph-name="paragraph" unicode="&#xb6;" horiz-adv-x="1302" 
d="M1106 -363h-148v1722h-214v-1722h-149v956q-206 5 -332 128.5t-126 328.5q0 221 144 335q131 104 359 104h466v-1852z" />
    <glyph glyph-name="germandbls" unicode="&#xdf;" horiz-adv-x="1270" 
d="M1165 481q0 -218 -135 -360q-138 -145 -355 -145q-117 0 -195 28v165h10q74 -42 197 -42q145 0 217 107q66 98 66 255q0 335 -409 335v150q311 0 311 248q0 77 -52 132q-61 64 -176 64q-119 0 -189 -68q-82 -80 -82 -263v-1087h-188v1080q0 237 136 369q121 117 333 117
q170 0 282 -76q130 -87 130 -249q0 -114 -73 -204q-70 -86 -182 -118v-9q166 -37 260 -149t94 -280z" />
    <glyph glyph-name="registered" unicode="&#xae;" horiz-adv-x="2048" 
d="M1889 655q0 -360 -252.5 -612.5t-612.5 -252.5t-612.5 252.5t-252.5 612.5t252.5 612.5t612.5 252.5t612.5 -252.5t252.5 -612.5zM1773 655q0 312 -218.5 533t-530.5 221t-530.5 -221t-218.5 -533t218.5 -533t530.5 -221t530.5 221t218.5 533zM1581 215h-223l-331 355
h-162v-355h-165v915h312q187 0 275 -47q122 -65 122 -204q0 -183 -212 -264zM1229 868q0 77 -61 110q-49 27 -154 27h-149v-309h127q128 0 182.5 43.5t54.5 128.5z" />
    <glyph glyph-name="copyright" unicode="&#xa9;" horiz-adv-x="2048" 
d="M1889 655q0 -360 -252.5 -612.5t-612.5 -252.5t-612.5 252.5t-252.5 612.5t252.5 612.5t612.5 252.5t612.5 -252.5t252.5 -612.5zM1773 655q0 312 -218.5 533t-530.5 221t-530.5 -221t-218.5 -533t218.5 -533t530.5 -221t530.5 221t218.5 533zM1375 258
q-172 -78 -323 -78q-232 0 -360 124q-131 126 -131 356q0 224 133 353.5t358 129.5q155 0 323 -76v-181h-16q-149 110 -312 110q-301 0 -301 -336q0 -333 301 -333q160 0 312 110h16v-179z" />
    <glyph glyph-name="trademark" unicode="&#x2122;" horiz-adv-x="2000" 
d="M1777 785h-124v617h-20l-237 -451h-79l-239 458h-25v-624h-123v704h238l191 -382l191 382h227v-704zM755 1372h-229v-587h-127v587h-229v117h585v-117z" />
    <glyph glyph-name="acute" unicode="&#xb4;" horiz-adv-x="1302" 
d="M963 1676l-273 -374h-149l179 374h243z" />
    <glyph glyph-name="dieresis" unicode="&#xa8;" horiz-adv-x="1302" 
d="M958 1304h-199v195h199v-195zM545 1304h-199v195h199v-195z" />
    <glyph glyph-name="notequal" unicode="&#x2260;" horiz-adv-x="1676" 
d="M1431 362h-608l-104 -335h-153l104 335h-425v156h474l84 268h-558v156h606l105 335h153l-105 -335h427v-156h-476l-83 -268h559v-156z" />
    <glyph glyph-name="plusminus" unicode="&#xb1;" horiz-adv-x="1676" 
d="M1461 179h-1246v158h540v422h-540v158h540v545h166v-545h540v-158h-540v-422h540v-158z" />
    <glyph glyph-name="lessequal" unicode="&#x2264;" horiz-adv-x="1676" 
d="M1408 303l-1154 483v124l1154 483v-183l-889 -362l889 -362v-183zM1408 0h-1154v160h1154v-160z" />
    <glyph glyph-name="greaterequal" unicode="&#x2265;" horiz-adv-x="1676" 
d="M1422 786l-1154 -483v183l889 362l-889 362v183l1154 -483v-124zM1422 0h-1154v160h1154v-160z" />
    <glyph glyph-name="ellipsis" unicode="&#x2026;" horiz-adv-x="1676" 
d="M1498 0h-204v223h204v-223zM940 0h-204v223h204v-223zM382 0h-204v223h204v-223z" />
    <glyph glyph-name="uni00A0" unicode="&#xa0;" horiz-adv-x="720" 
 />
    <glyph glyph-name="endash" unicode="&#x2013;" horiz-adv-x="1302" 
d="M1149 572h-996v160h996v-160z" />
    <glyph glyph-name="emdash" unicode="&#x2014;" horiz-adv-x="2048" 
d="M1895 572h-1742v160h1742v-160z" />
    <glyph glyph-name="quotedblleft" unicode="&#x201c;" horiz-adv-x="940" 
d="M790 997h-134l-271 559h240zM386 997h-134l-271 559h240z" />
    <glyph glyph-name="quotedblright" unicode="&#x201d;" horiz-adv-x="940" 
d="M959 1556l-271 -559h-134l165 559h240zM555 1556l-271 -559h-134l165 559h240z" />
    <glyph glyph-name="quoteleft" unicode="&#x2018;" horiz-adv-x="550" 
d="M390 997h-138l-271 559h244z" />
    <glyph glyph-name="quoteright" unicode="&#x2019;" horiz-adv-x="550" 
d="M569 1556l-271 -559h-138l165 559h244z" />
    <glyph glyph-name="divide" unicode="&#xf7;" horiz-adv-x="1676" 
d="M957 1022h-238v275h238v-275zM1466 572h-1256v160h1256v-160zM957 7h-238v275h238v-275z" />
    <glyph glyph-name="fraction" unicode="&#x2044;" horiz-adv-x="740" 
d="M843 1489l-780 -1489h-165l780 1489h165z" />
    <glyph glyph-name="Euro" unicode="&#x20ac;" horiz-adv-x="1302" 
d="M1226 62q-188 -89 -419 -89q-255 0 -440.5 155.5t-232.5 406.5h-134l44 118h75q-4 42 -4 90q0 54 4 102h-119l44 118h93q56 249 238 401t435 152q255 0 416 -86v-209h-16q-155 126 -402 126q-168 0 -295 -112q-121 -105 -166 -272h475l-44 -118h-452q-5 -60 -5 -102
q0 -48 4 -90h380l-44 -118h-316q45 -166 167 -275q130 -116 296 -116q265 0 403 124h15v-206z" />
    <glyph glyph-name="guilsinglleft" unicode="&#x2039;" horiz-adv-x="930" 
d="M736 172l-550 436v89l550 435v-199l-371 -281l371 -281v-199z" />
    <glyph glyph-name="guilsinglright" unicode="&#x203a;" horiz-adv-x="930" 
d="M744 608l-550 -436v199l371 281l-371 281v199l550 -435v-89z" />
    <glyph glyph-name="periodcentered" unicode="&#x2219;" horiz-adv-x="745" 
d="M492 511h-239v283h239v-283z" />
    <glyph glyph-name="quotesinglbase" unicode="&#x201a;" horiz-adv-x="550" 
d="M399 283l-271 -559h-138l165 559h244z" />
    <glyph glyph-name="quotedblbase" unicode="&#x201e;" horiz-adv-x="940" 
d="M799 283l-271 -559h-134l165 559h240zM395 283l-271 -559h-134l165 559h240z" />
    <glyph glyph-name="Iacute" unicode="&#xcd;" horiz-adv-x="862" 
d="M725 0h-588v152h195v1185h-195v152h588v-152h-195v-1185h195v-152zM725 2049l-273 -374h-149l179 374h243z" />
    <glyph glyph-name="Oacute" unicode="&#xd3;" horiz-adv-x="1612" 
d="M1450 1073q48 -145 48 -329q0 -366 -187 -570.5t-505 -204.5q-319 0 -505 204.5t-186 570.5q0 364 188 574q181 202 503 202q160 0 288 -52q259 -107 356 -395zM1292 744q0 261 -109 420q-127 185 -376 185q-250 0 -377 -184q-109 -159 -109 -421q0 -261 110 -420
q127 -184 376 -184t375 184q110 159 110 420zM1083 2049l-273 -374h-149l179 374h243z" />
    <glyph glyph-name="dotlessi" unicode="&#x131;" horiz-adv-x="562" 
d="M375 0h-188v1117h188v-1117z" />
    <glyph glyph-name="circumflex" unicode="&#x2c6;" horiz-adv-x="1302" 
d="M993 1297h-159l-185 256l-184 -256h-155l228 379h227z" />
    <glyph glyph-name="tilde" unicode="&#x2dc;" horiz-adv-x="1302" 
d="M1068 1619q-22 -306 -254 -306q-103 0 -187 76q-95 86 -151 86q-99 0 -108 -166h-131q7 128 64 210q68 95 189 95q98 0 185 -75q95 -82 153 -82q104 0 111 162h129z" />
    <glyph glyph-name="macron" unicode="&#x2c9;" horiz-adv-x="1302" 
d="M1022 1335h-742v154h742v-154z" />
    <glyph glyph-name="breve" unicode="&#x2d8;" horiz-adv-x="1302" 
d="M1026 1676q-10 -171 -107 -274q-101 -108 -269 -108t-269 108q-97 104 -106 274h166q23 -252 210 -252q183 0 210 252h165z" />
    <glyph glyph-name="dotaccent" unicode="&#x2d9;" horiz-adv-x="1302" 
d="M757 1304h-212v195h212v-195z" />
    <glyph glyph-name="ring" unicode="&#x2da;" horiz-adv-x="1302" 
d="M1001 1630q0 -145 -102 -243t-248 -98q-145 0 -247.5 98t-102.5 243t102 242t248 97t248 -97t102 -242zM856 1630q0 88 -58.5 146.5t-146.5 58.5t-146.5 -58.5t-58.5 -146.5t58.5 -146.5t146.5 -58.5t146.5 58.5t58.5 146.5z" />
    <glyph glyph-name="cedilla" unicode="&#xb8;" horiz-adv-x="1302" 
d="M880 -89q0 -155 -87.5 -244.5t-241.5 -89.5q-101 0 -198 26v160h9q94 -36 164 -36q202 0 202 166q0 52 -9 127h153q8 -72 8 -109z" />
    <glyph glyph-name="hungarumlaut" unicode="&#x2dd;" horiz-adv-x="1302" 
d="M1143 1676l-258 -374h-139l169 374h228zM739 1676l-258 -374h-139l169 374h228z" />
    <glyph glyph-name="ogonek" unicode="&#x2db;" horiz-adv-x="1302" 
d="M892 -391q-97 -26 -169 -26q-142 0 -225 80t-83 221q0 44 19 126h155q-12 -54 -12 -117q0 -160 173 -160q60 0 134 35h8v-159z" />
    <glyph glyph-name="caron" unicode="&#x2c7;" horiz-adv-x="1302" 
d="M989 1676l-228 -379h-227l-228 379h159l185 -256l184 256h155z" />
    <glyph glyph-name="onequarter" unicode="&#xbc;" horiz-adv-x="2048" 
d="M545 565h-165v681h-209v117q107 0 152 17q76 28 85 113h137v-928zM1410 1489l-780 -1489h-165l780 1489h165zM1857 220h-163v-220h-150v220h-465v185l466 539h149v-591h163v-133zM1548 353v400l-353 -400h353z" />
    <glyph glyph-name="threequarters" unicode="&#xbe;" horiz-adv-x="2048" 
d="M793 826q0 -141 -108 -217q-98 -69 -255 -69q-155 0 -290 58v175h17q45 -42 127 -69q75 -25 143 -25q194 0 194 145q0 142 -191 142h-140v139h125q182 0 182 142q0 131 -169 131q-60 0 -137 -28.5t-119 -68.5h-17v175q145 61 293 61q125 0 215 -55q107 -65 107 -183
q0 -167 -174 -226v-8q197 -39 197 -219zM1500 1489l-780 -1489h-165l780 1489h165zM1913 220h-163v-220h-150v220h-465v185l466 539h149v-591h163v-133zM1604 353v400l-353 -400h353z" />
    <glyph glyph-name="overscore" unicode="&#xaf;" horiz-adv-x="1302" 
d="M1306 1668h-1305l-5 120h1310v-120z" />
    <glyph glyph-name="middot" unicode="&#xb7;" horiz-adv-x="745" 
d="M492 511h-239v283h239v-283z" />
    <glyph glyph-name="Aogonek" unicode="&#x104;" horiz-adv-x="1400" 
d="M1579 -391q-97 -26 -169 -26q-142 0 -225 79.5t-83 221.5q0 64 15 117l21 74l-121 340h-644l-146 -415h-201l542 1489h264l542 -1489h-97q-13 -59 -13 -107q0 -160 173 -160q60 0 134 35h8v-159zM956 585l-261 731l-262 -731h523z" />
    <glyph glyph-name="aogonek" unicode="&#x105;" horiz-adv-x="1230" 
d="M1326 -391q-97 -26 -169 -26q-142 0 -225 80t-83 221q0 38 7 67l10 49v119q-48 -35 -150 -96q-115 -54 -251 -54q-154 0 -257.5 100.5t-103.5 254.5q0 236 210 329q147 65 552 85v29q0 122 -87 172q-68 39 -213 39q-154 0 -353 -76h-10v191q187 51 364 51q240 0 357 -86
q129 -94 129 -300v-758h-29q-13 -59 -13 -107q0 -160 173 -160q60 0 134 35h8v-159zM866 275v311q-150 -9 -196 -13q-120 -11 -191 -31q-181 -51 -181 -205q0 -193 235 -193q163 0 333 131z" />
    <glyph glyph-name="Eogonek" unicode="&#x118;" horiz-adv-x="1295" 
d="M1229 -391q-97 -26 -169 -26q-142 0 -225 80t-83 221q0 35 17 116h-569v1489h981v-176h-783v-408h783v-176h-783v-553h783v-176h-254q-13 -59 -13 -107q0 -160 173 -160q60 0 134 35h8v-159z" />
    <glyph glyph-name="eogonek" unicode="&#x119;" horiz-adv-x="1220" 
d="M1120 539h-823q0 -199 116 -305q105 -96 281 -96q93 0 208 37q122 40 186 98h10v-205q-177 -74 -310 -89q-5 -50 -5 -86q0 -160 173 -160q60 0 134 35h8v-159q-97 -26 -169 -26q-142 0 -225 80t-83 221q0 47 10 92q-253 18 -390 171q-135 150 -135 405q0 261 139 424
q147 172 404 172q233 0 355 -139q116 -132 116 -368v-102zM937 683q-2 310 -298 310q-142 0 -235.5 -84t-106.5 -226h640z" />
    <glyph glyph-name="Nacute" unicode="&#x143;" horiz-adv-x="1532" 
d="M1336 0h-245l-706 1332v-1332h-185v1489h307l644 -1216v1216h185v-1489zM1083 2049l-273 -374h-149l179 374h243z" />
    <glyph glyph-name="nacute" unicode="&#x144;" horiz-adv-x="1296" 
d="M1119 0h-188v636q0 181 -42 250q-51 83 -194 83q-146 0 -322 -135v-834h-188v1117h188v-124q187 155 375 155q371 0 371 -423v-725zM963 1676l-273 -374h-149l179 374h243z" />
    <glyph glyph-name="underscoredbl" unicode="&#x2017;" horiz-adv-x="1302" 
d="M1306 -202h-1310v120h1310v-120zM1306 -423h-1310v120h1310v-120z" />
    <glyph glyph-name="nsuperior" unicode="&#x207f;" horiz-adv-x="1117" 
d="M966 554h-172v533q0 153 -35 212q-42 71 -163 71q-119 0 -271 -117v-699h-171v939h171v-104q158 131 321 131q161 0 243 -100q77 -92 77 -256v-610z" />
    <glyph glyph-name="minute" unicode="&#x2032;" horiz-adv-x="740" 
d="M647 1489l-298 -619h-136l194 619h240z" />
    <glyph glyph-name="second" unicode="&#x2033;" horiz-adv-x="1141" 
d="M647 1489l-298 -619h-136l194 619h240zM1048 1489l-298 -619h-136l194 619h240z" />
    <glyph glyph-name="afii61248" unicode="&#x2105;" horiz-adv-x="2204" 
d="M813 702q-113 -68 -255 -68q-200 0 -307 122q-102 115 -102 318q0 196 105 317q111 126 304 126q129 0 255 -66v-173h-14q-121 101 -232 101q-236 0 -236 -305q0 -302 236 -302q125 0 232 101h14v-171zM1570 1489l-780 -1489h-165l780 1489h165zM2055 413
q0 -442 -368 -442q-367 0 -367 441q0 442 367 442q368 0 368 -441zM1877 413q0 141 -27 206q-43 102 -162 102q-121 0 -163 -101q-27 -65 -27 -208t27 -207q42 -101 163 -101q120 0 162 102q27 65 27 207z" />
    <glyph glyph-name="afii61289" unicode="&#x2113;" horiz-adv-x="662" 
d="M15 422l177 235v455q0 172 35 254q53 125 199 125q102 0 161 -68t59 -171q0 -190 -285 -587v-415q0 -62 4 -82q11 -50 52 -50q47 0 199 107v-162q-109 -87 -225 -87q-199 0 -199 241v225l-79 -98zM361 899q75 129 94 168q51 108 51 184q0 88 -48 114q-13 6 -28 6
q-52 0 -63 -102q-6 -55 -6 -143v-227z" />
    <glyph glyph-name="H22073" unicode="&#x25a1;" horiz-adv-x="1237" 
d="M146 944h944v-944h-944v944zM222 868v-792h792v792h-792z" />
    <glyph glyph-name="H18543" unicode="&#x25aa;" horiz-adv-x="726" 
d="M594 908v-463h-463v463h463z" />
    <glyph glyph-name="H18551" unicode="&#x25ab;" horiz-adv-x="726" 
d="M594 908v-463h-463v463h463zM518 832h-311v-311h311v311z" />
    <glyph glyph-name="H18533" unicode="&#x25cf;" horiz-adv-x="1237" 
d="M177 576q0 184 128.5 312.5t312.5 128.5t312 -128.5t128 -312.5q0 -183 -128.5 -311.5t-311.5 -128.5q-184 0 -312.5 128t-128.5 312z" />
    <glyph glyph-name="openbullet" unicode="&#x25e6;" horiz-adv-x="726" 
d="M363 928q105 0 178 -73t73 -178t-73 -178t-178 -73t-178 73t-73 178t73 178t178 73zM363 852q-73 0 -124 -51t-51 -124t51 -124t124 -51t124 51t51 124t-51 124t-124 51z" />
    <glyph glyph-name="Iogonek" unicode="&#x12e;" horiz-adv-x="862" 
d="M372 0h-235v152h195v1185h-195v152h588v-152h-195v-1185h195v-152h-194l-10 -49q-5 -20 -5 -58q0 -161 154 -161q65 0 117 30h9v-158q-76 -21 -151 -21q-137 0 -213 81t-76 219q0 48 16 117z" />
    <glyph glyph-name="iogonek" unicode="&#x12f;" horiz-adv-x="562" 
d="M387 1304h-212v195h212v-195zM582 -396q-76 -21 -151 -21q-137 0 -213 81t-76 219q0 63 19 119l26 80v1035h188v-1117h-60q-13 -56 -13 -107q0 -161 154 -161q65 0 117 30h9v-158z" />
    <glyph glyph-name="Scircumflex" unicode="&#x15c;" horiz-adv-x="1302" 
d="M1167 745q0 -342 -89 -524q-123 -252 -426 -252t-426 251q-89 182 -89 523t89 523q124 253 426 253q301 0 425 -252q90 -183 90 -522zM952 482q12 109 12 263q0 321 -61 454q-71 155 -251 155q-263 0 -299 -350q-13 -119 -13 -261q0 -314 58 -449q69 -160 254 -160
q94 0 156 39q117 73 144 309z" />
    <glyph glyph-name="scircumflex" unicode="&#x15d;" horiz-adv-x="1302" 
d="M1084 0h-806v152h310v998h-310v136q168 0 244 41q96 52 103 167h155v-1342h304v-152z" />
    <glyph glyph-name="Tbar" unicode="&#x166;" horiz-adv-x="1302" 
d="M1169 0h-1008v209l211 180q100 86 196 179q167 162 222 236q112 150 112 296q0 124 -85 189q-77 58 -205 58q-205 0 -404 -130h-10v210q189 93 419 93q212 0 342 -97q147 -109 147 -313q0 -164 -85 -298q-68 -107 -219 -255q-137 -134 -434 -386h801v-171z" />
    <glyph glyph-name="tbar" unicode="&#x167;" horiz-adv-x="1302" 
d="M1117 609q31 -65 31 -168q0 -203 -141 -335q-146 -137 -399 -137q-234 0 -441 94v209h15q197 -130 422 -130q161 0 250.5 84.5t89.5 229.5q0 150 -96 215q-80 54 -247 54h-90v166h70q140 0 227 53q106 65 106 196q0 107 -87 161q-74 46 -203 46q-205 0 -404 -130h-10v209
q191 94 419 94q215 0 342 -84q146 -97 146 -275q0 -122 -88 -217q-83 -91 -206 -116v-14q48 -8 110 -33q127 -53 184 -172z" />
    <glyph glyph-name="Utilde" unicode="&#x168;" horiz-adv-x="1302" 
d="M1203 419h-221v-419h-192v419h-713v230l721 840h184v-910h221v-160zM790 579v672l-577 -672h577z" />
    <glyph glyph-name="utilde" unicode="&#x169;" horiz-adv-x="1302" 
d="M1157 473q0 -220 -142 -359q-148 -145 -402 -145q-237 0 -426 87v211h14q197 -125 408 -125q163 0 256 90q89 86 89 242q0 144 -99 214t-294 70q-133 0 -310 -36v767h896v-175h-703v-396q86 8 166 8q243 0 379 -93q168 -115 168 -360z" />
    <glyph glyph-name="Umacron" unicode="&#x16a;" horiz-adv-x="1302" 
d="M1191 483q0 -223 -146.5 -368.5t-369.5 -145.5q-219 0 -359 135q-179 173 -179 550q0 395 178 623q187 240 551 240q107 0 180 -23v-191h-10q-78 42 -200 42q-220 0 -350 -142q-121 -131 -142 -356q171 104 354 104q189 0 316 -88q177 -123 177 -380zM988 475
q0 177 -118 260q-74 52 -219 52q-158 0 -308 -82q-4 -44 -4 -94q0 -279 122 -394q90 -85 216 -85q154 0 235 96q76 90 76 247z" />
    <glyph glyph-name="umacron" unicode="&#x16b;" horiz-adv-x="1302" 
d="M1173 1266l-674 -1266h-214l717 1314h-848v175h1019v-223z" />
    <glyph glyph-name="Ubreve" unicode="&#x16c;" horiz-adv-x="1302" 
d="M1180 415q0 -207 -165 -333q-151 -116 -364 -116q-221 0 -367 110q-162 121 -162 335q0 260 275 384v6q-235 125 -235 330q0 185 157 295q139 97 332 97q196 0 332 -89q157 -104 157 -290q0 -114 -72 -211q-67 -91 -176 -140v-6q288 -123 288 -372zM943 1142
q0 114 -92 178q-81 56 -201 56q-116 0 -195 -52q-92 -60 -92 -170q0 -137 163 -218q122 -60 242 -95q175 117 175 301zM974 396q0 102 -53 162q-41 47 -146 97q-17 8 -252 94q-199 -108 -199 -323q0 -139 96 -226q93 -85 233 -85t227 69q94 75 94 212z" />
    <glyph glyph-name="ubreve" unicode="&#x16d;" horiz-adv-x="1302" 
d="M1167 834q0 -401 -179 -625q-191 -238 -550 -238q-111 0 -180 23v191h10q81 -42 200 -42q225 0 353 139q119 129 139 359q-173 -104 -354 -104q-189 0 -316 88q-177 123 -177 380q0 223 146.5 368.5t369.5 145.5t361 -134q177 -172 177 -551zM965 877q0 282 -120 395
q-89 84 -218 84q-152 0 -234 -97q-77 -91 -77 -246q0 -178 118 -260q75 -52 219 -52q164 0 308 82q4 84 4 94z" />
    <glyph glyph-name="Uogonek" unicode="&#x172;" horiz-adv-x="930" 
d="M585 832h-239v285h239v-285zM585 0h-239v285h239v-285z" />
    <glyph glyph-name="uogonek" unicode="&#x173;" horiz-adv-x="930" 
d="M585 832h-239v285h239v-285zM658 285l-282 -655h-146l174 655h254z" />
    <glyph glyph-name="Wcircumflex" unicode="&#x174;" horiz-adv-x="1676" 
d="M1408 77l-1154 513v124l1154 513v-180l-910 -395l910 -395v-180z" />
    <glyph glyph-name="wcircumflex" unicode="&#x175;" horiz-adv-x="1676" 
d="M1431 782h-1186v160h1186v-160zM1431 362h-1186v160h1186v-160z" />
    <glyph glyph-name="Ycircumflex" unicode="&#x176;" horiz-adv-x="1676" 
d="M1422 590l-1154 -513v180l910 395l-910 395v180l1154 -513v-124z" />
    <glyph glyph-name="ycircumflex" unicode="&#x177;" horiz-adv-x="1117" 
d="M1005 1139q0 -180 -127 -310q-91 -93 -284 -204v-225h-179v305q68 39 137 78q78 47 127 92q122 112 122 249q0 115 -82 173q-72 51 -192 51q-192 0 -357 -103h-10v204q181 70 381 70q196 0 321 -90q143 -102 143 -290zM610 0h-204v211h204v-211z" />
    <glyph glyph-name="longs" unicode="&#x17f;" horiz-adv-x="2048" 
d="M1870 663q0 -283 -156 -506h-440l-27 116q-153 -124 -298 -124q-189 0 -287 153q-82 128 -82 329t106 342q116 155 311 155q120 0 250 -66v48h159v-842h243q85 152 85 389q0 333 -179 528q-182 199 -513 199q-227 0 -407 -120t-263 -328q-55 -137 -55 -291
q0 -332 199.5 -535.5t521.5 -203.5q192 0 353 46v-142q-166 -36 -354 -36q-377 0 -619 242t-242 631q0 369 249.5 620.5t615.5 251.5q387 0 610 -236q219 -231 219 -620zM1245 408v518q-117 54 -220 54q-142 0 -214 -106q-61 -90 -61 -240q0 -330 239 -330q120 0 256 104z
" />
    <glyph glyph-name="anoteleia" unicode="&#x387;" horiz-adv-x="930" 
d="M585 832h-239v285h239v-285z" />
    <glyph glyph-name="quotereversed" unicode="&#x201b;" horiz-adv-x="550" 
d="M390 1555l-165 -559h-244l271 559h138z" />
    <glyph glyph-name="radicalex" unicode="&#x203e;" horiz-adv-x="1302" 
d="M1302 1669h-1350v120h1350v-120z" />
    <glyph glyph-name="afii08941" unicode="&#x20a4;" horiz-adv-x="1302" 
d="M1163 0h-1026v207q107 28 157 99q45 63 58 180h-157v134h164v140h-164v134h163v167q0 203 127.5 330t330.5 127q129 0 321 -51v-206h-10q-133 90 -300 90q-279 0 -279 -309v-148h364v-134h-365v-140h365v-134h-369q-32 -213 -217 -304v-11h837v-171z" />
    <glyph glyph-name="estimated" unicode="&#x212e;" horiz-adv-x="1470" 
d="M1297 632h-922q0 -245 126 -375q115 -119 317 -119q250 0 445 158h13v-213q-262 -109 -449 -109q-316 0 -484 177q-166 174 -166 491q0 298 147 484q160 204 450 204q264 0 399 -164q124 -152 124 -422v-112zM1107 786q-4 184 -81 280q-87 109 -265 109q-167 0 -272 -113
q-101 -106 -113 -276h731z" />
    <glyph glyph-name="oneeighth" unicode="&#x215b;" horiz-adv-x="2048" 
d="M545 565h-165v681h-209v117q107 0 152 17q76 28 85 113h137v-928zM1410 1489l-780 -1489h-165l780 1489h165zM1923 251q0 -134 -116 -213q-102 -69 -242 -69q-145 0 -244 65q-114 76 -114 214q0 159 183 237v4q-152 76 -152 212q0 120 109 188q93 59 220 59
q128 0 220 -54q110 -65 110 -185q0 -154 -162 -223v-4q188 -76 188 -231zM1733 692q0 61 -55 95q-46 28 -111 28q-63 0 -108 -26q-55 -32 -55 -91q0 -78 93 -119q90 -40 141 -52q95 62 95 165zM1757 252q0 85 -121 139q-51 18 -153 53q-114 -63 -114 -173q0 -76 62 -125
q58 -44 136 -44t130 35q60 40 60 115z" />
    <glyph glyph-name="threeeighths" unicode="&#x215c;" horiz-adv-x="2048" 
d="M793 826q0 -141 -108 -217q-98 -69 -255 -69q-155 0 -290 58v175h17q45 -42 127 -69q75 -25 143 -25q194 0 194 145q0 142 -191 142h-140v139h125q182 0 182 142q0 131 -169 131q-60 0 -137 -28.5t-119 -68.5h-17v175q145 61 293 61q125 0 215 -55q107 -65 107 -183
q0 -167 -174 -226v-8q197 -39 197 -219zM1500 1489l-780 -1489h-165l780 1489h165zM1956 251q0 -134 -116 -213q-102 -69 -242 -69q-145 0 -244 65q-114 76 -114 214q0 159 183 237v4q-152 76 -152 212q0 120 109 188q93 59 220 59q128 0 220 -54q110 -65 110 -185
q0 -154 -162 -223v-4q188 -76 188 -231zM1766 692q0 61 -55 95q-46 28 -111 28q-63 0 -108 -26q-55 -32 -55 -91q0 -78 93 -119q90 -40 141 -52q95 62 95 165zM1790 252q0 85 -121 139q-51 18 -153 53q-114 -63 -114 -173q0 -76 62 -125q58 -44 136 -44t130 35q60 40 60 115
z" />
    <glyph glyph-name="fiveeighths" unicode="&#x215d;" horiz-adv-x="2048" 
d="M793 867q0 -146 -97 -233q-105 -94 -271 -94q-162 0 -287 54v159h16q137 -74 261 -74q103 0 154.5 51.5t51.5 134.5q0 77 -60 119q-55 38 -172 38q-78 0 -205 -20v496h597v-139h-440v-207q40 4 83 4q167 0 254 -57q115 -75 115 -232zM1500 1489l-780 -1489h-165l780 1489
h165zM1956 251q0 -134 -116 -213q-102 -69 -242 -69q-145 0 -244 65q-114 76 -114 214q0 159 183 237v4q-152 76 -152 212q0 120 109 188q93 59 220 59q128 0 220 -54q110 -65 110 -185q0 -154 -162 -223v-4q188 -76 188 -231zM1766 692q0 61 -55 95q-46 28 -111 28
q-63 0 -108 -26q-55 -32 -55 -91q0 -78 93 -119q90 -40 141 -52q95 62 95 165zM1790 252q0 85 -121 139q-51 18 -153 53q-114 -63 -114 -173q0 -76 62 -125q58 -44 136 -44t130 35q60 40 60 115z" />
    <glyph glyph-name="seveneighths" unicode="&#x215e;" horiz-adv-x="2048" 
d="M843 1358l-470 -793h-185l496 794h-531v139h690v-140zM1404 1489l-780 -1489h-165l780 1489h165zM1903 251q0 -134 -116 -213q-102 -69 -242 -69q-145 0 -244 65q-114 76 -114 214q0 159 183 237v4q-152 76 -152 212q0 120 109 188q93 59 220 59q128 0 220 -54
q110 -65 110 -185q0 -154 -162 -223v-4q188 -76 188 -231zM1713 692q0 61 -55 95q-46 28 -111 28q-63 0 -108 -26q-55 -32 -55 -91q0 -78 93 -119q90 -40 141 -52q95 62 95 165zM1737 252q0 85 -121 139q-51 18 -153 53q-114 -63 -114 -173q0 -76 62 -125q58 -44 136 -44
t130 35q60 40 60 115z" />
    <glyph glyph-name="commaaccent" unicode="&#xf004;" horiz-adv-x="432" 
d="M97 -423l165 559h244l-271 -559h-138z" />
    <glyph glyph-name="undercommaaccent" unicode="&#xf005;" horiz-adv-x="1302" 
d="M880 -89q0 -155 -87.5 -244.5t-241.5 -89.5q-101 0 -198 26v160h9q94 -36 164 -36q202 0 202 166q0 52 -9 127h153q8 -72 8 -109z" />
    <glyph glyph-name="tonos" unicode="&#x384;" horiz-adv-x="1302" 
d="M773 1676l-49 -384h-145l-49 384h243z" />
    <glyph glyph-name="dieresistonos" unicode="&#x385;" horiz-adv-x="1302" 
d="M765 1676l-49 -384h-128l-49 384h226zM1048 1304h-191v195h191v-195zM447 1304h-191v195h191v-195z" />
    <glyph glyph-name="Omicron" unicode="&#x39f;" horiz-adv-x="930" 
d="M759 -392h-520v1948h520v-143h-346v-1662h346v-143z" />
    <glyph glyph-name="Pi" unicode="&#x3a0;" horiz-adv-x="930" 
d="M960 -304h-173l-717 1860h176z" />
    <glyph glyph-name="Rho" unicode="&#x3a1;" horiz-adv-x="930" 
d="M691 -392h-520v143h346v1662h-346v143h520v-1948z" />
    <glyph glyph-name="Tau" unicode="&#x3a4;" horiz-adv-x="1300" 
d="M1113 -392h-150q-185 0 -292 100q-110 103 -110 287v149q0 360 -337 360h-51v156h51q337 0 337 360v149q0 184 110 287q107 100 292 100h150v-138h-114q-137 0 -198 -64t-61 -202v-175q0 -266 -291 -383v-24q291 -117 291 -383v-175q0 -138 61 -202t198 -64h114v-138z
" />
    <glyph glyph-name="Upsilon" unicode="&#x3a5;" horiz-adv-x="930" 
d="M552 -392h-174v1948h174v-1948z" />
    <glyph glyph-name="Chi" unicode="&#x3a7;" horiz-adv-x="1300" 
d="M1127 504h-51q-337 0 -337 -360v-149q0 -184 -108.5 -285.5t-293.5 -101.5h-150v138h114q137 0 198 64t61 202v175q0 266 291 383v24q-291 117 -291 383v175q0 138 -61 202t-198 64h-114v138h150q185 0 292 -100q110 -103 110 -287v-149q0 -360 337 -360h51v-156z" />
    <glyph glyph-name="Omega" unicode="&#x3a9;" horiz-adv-x="1676" 
d="M1490 684h-198l-455 627l-454 -629h-197l589 807h126z" />
    <glyph glyph-name="Omega" unicode="&#x2126;" horiz-adv-x="1676" 
d="M1490 684h-198l-455 627l-454 -629h-197l589 807h126z" />
    <glyph glyph-name="Iotadieresis" unicode="&#x3aa;" horiz-adv-x="1302" 
d="M1306 -300h-1310v120h1310v-120z" />
    <glyph glyph-name="psi" unicode="&#x3c8;" horiz-adv-x="806" 
d="M515 1489l-26 -1079h-170l-28 1079h224zM505 0h-204v211h204v-211z" />
    <glyph glyph-name="psi" unicode="&#x471;" horiz-adv-x="806" 
d="M515 1489l-26 -1079h-170l-28 1079h224zM505 0h-204v211h204v-211z" />
    <glyph glyph-name="omega" unicode="&#x3c9;" horiz-adv-x="940" 
d="M772 1556l-43 -579h-132l-43 579h218zM386 1556l-43 -579h-132l-43 579h218z" />
    <glyph glyph-name="iotadieresis" unicode="&#x3ca;" horiz-adv-x="1676" 
d="M1481 932h-333l-92 -376h308v-135h-343l-104 -421h-129l104 421h-270l-104 -421h-129l104 421h-298v135h333l92 376h-308v135h343l105 422h129l-105 -422h270l105 422h129l-105 -422h298v-135zM1022 934h-274l-94 -380h274z" />
    <glyph glyph-name="upsilondieresis" unicode="&#x3cb;" horiz-adv-x="1302" 
d="M1160 380q0 -169 -139 -273q-120 -89 -299 -106v-362h-118v357q-259 2 -449 89v198h16q65 -48 163 -84q136 -50 270 -55v433q-72 14 -137 31q-305 78 -305 327q0 169 141 270q120 84 301 99v272h118v-270q209 -4 385 -75v-196h-14q-185 113 -371 126v-431l126 -27
q312 -66 312 -323zM604 747v413q-103 -8 -170 -51q-83 -54 -83 -148q0 -104 78 -155q51 -32 175 -59zM971 354q0 101 -77 151q-52 32 -172 55v-414q249 25 249 208z" />
    <glyph glyph-name="omicrontonos" unicode="&#x3cc;" horiz-adv-x="2204" 
d="M884 1076q0 -442 -367 -442q-368 0 -368 441q0 442 368 442q367 0 367 -441zM1575 1489l-780 -1489h-165l780 1489h165zM2055 413q0 -442 -368 -442q-367 0 -367 441q0 442 367 442q368 0 368 -441zM706 1076q0 141 -27 206q-43 102 -162 102q-121 0 -163 -101
q-27 -65 -27 -208t27 -207q42 -101 163 -101q120 0 162 102q27 65 27 207zM1877 413q0 141 -27 206q-43 102 -162 102q-121 0 -163 -101q-27 -65 -27 -208t27 -207q42 -101 163 -101q120 0 162 102q27 65 27 207z" />
    <glyph glyph-name="upsilontonos" unicode="&#x3cd;" horiz-adv-x="1488" 
d="M792 1191q0 92 -54.5 148t-146.5 56q-91 0 -149.5 -60.5t-58.5 -151.5q0 -93 64 -163q42 -44 146 -107q199 71 199 278zM986 315l-478 466q-124 -60 -170 -200q-18 -55 -18 -124q0 -152 88 -238.5t240 -86.5q215 0 338 183zM1287 909v-96q0 -245 -110 -445l378 -368h-246
l-229 224q-207 -255 -482 -255q-205 0 -340 116q-143 122 -143 324q0 225 174 364q52 41 105 72q-106 69 -152 136q-55 79 -55 193q0 137 106 238q114 108 308 108q155 0 264 -75q123 -85 123 -234q0 -118 -53 -199q-74 -113 -244 -171l371 -362q26 74 29 188q2 69 2 125
l-1 117h195z" />
    <glyph glyph-name="omegatonos" unicode="&#x3ce;" horiz-adv-x="550" 
d="M386 1556l-43 -579h-136l-43 579h222z" />
    <glyph glyph-name="afii10023" unicode="&#x401;" horiz-adv-x="930" 
d="M783 -412h-229q-373 428 -373 984t373 984h229v-10q-177 -160 -291 -391q-135 -274 -135 -583q0 -305 135 -583q112 -231 291 -391v-10z" />
    <glyph glyph-name="afii10051" unicode="&#x402;" horiz-adv-x="930" 
d="M749 572q0 -556 -373 -984h-229v10q180 162 291 391q135 280 135 583q0 311 -135 583q-115 233 -291 391v10h229q373 -428 373 -984z" />
    <glyph glyph-name="afii10052" unicode="&#x403;" horiz-adv-x="1302" 
d="M1137 887l-64 -110l-362 213l6 -360h-129l5 360l-361 -214l-65 110l381 207l-381 207l65 110l362 -213l-6 359h129l-7 -359l363 212l64 -110l-380 -205z" />
    <glyph glyph-name="afii10053" unicode="&#x404;" horiz-adv-x="745" 
d="M575 285l-282 -655h-146l174 655h254z" />
    <glyph glyph-name="afii10054" unicode="&#x405;" horiz-adv-x="930" 
d="M777 561h-624v181h624v-181z" />
    <glyph glyph-name="afii10055" unicode="&#x406;" horiz-adv-x="745" 
d="M492 0h-239v285h239v-285z" />
    <glyph glyph-name="afii00208" unicode="&#x2015;" horiz-adv-x="2048" 
d="M1845 572h-1642v160h1642v-160z" />
    <glyph glyph-name="afii61352" unicode="&#x2116;" horiz-adv-x="2400" 
d="M1279 0h-245l-654 1332v-1332h-180v1489h307l592 -1216v1216h180v-1489zM2233 1076q0 -442 -367 -442q-368 0 -368 441q0 442 368 442q367 0 367 -441zM2055 1076q0 142 -27 207q-42 101 -162 101q-121 0 -163 -101q-27 -64 -27 -208t27 -208q42 -100 163 -100
q120 0 162 102q27 64 27 207zM1641 366h440v-158h-440v158z" />
    <glyph glyph-name="pi" unicode="&#x3c0;" horiz-adv-x="1305" 
d="M1120 0h-188v955h-559v-955h-188v1117h935v-1117z" />
    <glyph glyph-name="onenumerator" unicode="&#x215f;" horiz-adv-x="1110" 
d="M655 565h-165v681h-209v117q107 0 152 17q76 28 85 113h137v-928z" />
    <glyph glyph-name="twonumerator" unicode="&#xf007;" horiz-adv-x="1110" 
d="M927 573h-688v148q91 67 264 210q95 89 122 129q51 73 51 165q0 144 -164 144q-136 0 -254 -92h-15v179q147 61 293 61q141 0 229 -68q97 -75 97 -212q0 -103 -54 -188q-40 -64 -134 -147q-47 -41 -119 -96l-126 -94h498v-139z" />
    <glyph glyph-name="threenumerator" unicode="&#xf008;" horiz-adv-x="1110" 
d="M883 826q0 -141 -108 -217q-98 -69 -255 -69q-155 0 -290 58v175h17q45 -42 127 -69q75 -25 143 -25q194 0 194 145q0 142 -191 142h-140v139h125q182 0 182 142q0 131 -169 131q-60 0 -137 -28.5t-119 -68.5h-17v175q145 61 293 61q125 0 215 -55q107 -65 107 -183
q0 -167 -174 -226v-8q197 -39 197 -219z" />
    <glyph glyph-name="fournumerator" unicode="&#xf009;" horiz-adv-x="1110" 
d="M957 793h-163v-220h-150v220h-465v185l466 539h149v-591h163v-133zM648 926v400l-353 -400h353z" />
    <glyph glyph-name="fivenumerator" unicode="&#xf00a;" horiz-adv-x="1110" 
d="M885 867q0 -146 -97 -233q-105 -94 -271 -94q-162 0 -287 54v159h16q137 -74 261 -74q103 0 154.5 51.5t51.5 134.5q0 77 -60 119q-55 38 -172 38q-78 0 -205 -20v496h597v-139h-440v-207q40 4 83 4q167 0 254 -57q115 -75 115 -232z" />
    <glyph glyph-name="sevennumerator" unicode="&#xf00b;" horiz-adv-x="1110" 
d="M933 1358l-470 -793h-185l496 794h-531v139h690v-140z" />
    <glyph glyph-name="eightnumerator" unicode="&#xf00c;" horiz-adv-x="1110" 
d="M913 821q0 -134 -116 -213q-102 -69 -242 -69q-145 0 -244 65q-114 76 -114 214q0 159 183 237v4q-152 76 -152 212q0 120 109 188q93 59 220 59q128 0 220 -54q110 -65 110 -185q0 -154 -162 -223v-4q188 -76 188 -231zM723 1262q0 61 -55 95q-46 28 -111 28
q-63 0 -108 -26q-55 -32 -55 -91q0 -78 93 -119q90 -40 141 -52q95 62 95 165zM747 822q0 85 -121 139q-51 18 -153 53q-114 -63 -114 -173q0 -76 62 -125q58 -44 136 -44t130 35q60 40 60 115z" />
    <glyph glyph-name="DontCompressHTMX" unicode="&#xf00d;" 
 />
    <glyph glyph-name="glyph579" 
 />
    <glyph glyph-name="glyph580" 
 />
    <glyph glyph-name="glyph581" 
 />
    <glyph glyph-name="hookabovecomb" unicode="&#x309;" 
d="M834 1528q0 -121 -132 -163v-68h-110v121q95 24 95 90q0 63 -71 63q-44 0 -92 -18h-3v105q57 18 130 18q72 0 124 -37q59 -41 59 -111z" />
    <glyph glyph-name="dotbelowcomb" unicode="&#x323;" 
d="M757 -382h-212v195h212v-195z" />
    <glyph glyph-name="gravecomb" unicode="&#x300;" 
d="M762 1302h-149l-273 374h243z" />
    <glyph glyph-name="acutecomb" unicode="&#x301;" 
d="M963 1676l-273 -374h-149l179 374h243z" />
    <glyph glyph-name="glyph590" horiz-adv-x="1302" 
d="M993 1297h-159l-185 256l-184 -256h-155l228 379h227zM1300 1676l-218 -266h-129l124 266h223z" />
    <glyph glyph-name="glyph591" horiz-adv-x="1302" 
d="M993 1297h-159l-185 256l-184 -256h-155l228 379h227zM350 1410h-129l-218 266h223z" />
    <glyph glyph-name="glyph592" horiz-adv-x="1302" 
d="M993 1297h-159l-185 256l-184 -256h-155l228 379h227zM1216 1726q0 -121 -132 -163v-68h-110v121q95 24 95 90q0 63 -71 63q-44 0 -92 -18h-3v105q57 18 130 18q72 0 124 -37q59 -41 59 -111z" />
    <glyph glyph-name="glyph593" horiz-adv-x="1302" 
d="M993 1297h-159l-185 256l-184 -256h-155l228 379h227zM1011 2014q-5 -117 -60 -193q-64 -88 -175 -88q-81 0 -154.5 66.5t-106.5 66.5q-73 0 -82 -133h-140q4 117 60 193q64 88 175 88q81 0 154.5 -66.5t106.5 -66.5q75 0 82 133h140z" />
    <glyph glyph-name="glyph594" horiz-adv-x="1302" 
d="M981 1606q0 -159 -85 -253q-88 -98 -245 -98q-156 0 -244 98q-85 95 -85 253h162q0 -224 167 -224q168 0 168 224h162zM913 1787l-218 -266h-129l124 266h223z" />
    <glyph glyph-name="glyph595" horiz-adv-x="1302" 
d="M981 1606q0 -159 -85 -253q-88 -98 -245 -98q-156 0 -244 98q-85 95 -85 253h162q0 -224 167 -224q168 0 168 224h162zM737 1521h-129l-218 266h223z" />
    <glyph glyph-name="glyph596" horiz-adv-x="1302" 
d="M981 1606q0 -159 -85 -253q-88 -98 -245 -98q-156 0 -244 98q-85 95 -85 253h162q0 -224 167 -224q168 0 168 224h162zM801 1697q0 -101 -110 -137v-56h-92v101q79 20 79 75q0 54 -59 54q-35 0 -78 -15h-2v87q43 16 109 16q62 0 105 -31q48 -34 48 -94z" />
    <glyph glyph-name="glyph597" horiz-adv-x="1302" 
d="M981 1606q0 -159 -85 -253q-88 -98 -245 -98q-156 0 -244 98q-85 95 -85 253h162q0 -224 167 -224q168 0 168 224h162zM1011 2014q-5 -117 -60 -193q-64 -88 -175 -88q-81 0 -154.5 66.5t-106.5 66.5q-73 0 -82 -133h-140q4 117 60 193q64 88 175 88q81 0 154.5 -66.5
t106.5 -66.5q75 0 82 133h140z" />
    <glyph glyph-name="glyph598" horiz-adv-x="1302" 
d="M834 1528q0 -121 -132 -163v-68h-110v121q95 24 95 90q0 63 -71 63q-44 0 -92 -18h-3v105q57 18 130 18q72 0 124 -37q59 -41 59 -111z" />
    <glyph glyph-name="glyph599" horiz-adv-x="1302" 
d="M993 1620h-169l-175 89l-174 -89h-165l248 173h187zM981 2049q-11 -82 -65 -134q-57 -55 -138 -55q-58 0 -138 38q-83 39 -109 39q-65 0 -75 -77h-134q10 81 66.5 135t136.5 54q57 0 138 -38.5t109 -38.5q66 0 75 77h134z" />
    <glyph glyph-name="glyph600" horiz-adv-x="1302" 
d="M981 1848q0 -115 -112 -183q-94 -57 -217 -57q-122 0 -217 57q-113 68 -113 183h162q0 -68 52 -104q45 -32 116 -32q69 0 115 33q52 37 52 103h162zM898 2049l-198 -216h-129l104 216h223z" />
    <glyph glyph-name="glyph601" horiz-adv-x="1302" 
d="M981 1848q0 -115 -112 -183q-94 -57 -217 -57q-122 0 -217 57q-113 68 -113 183h162q0 -68 52 -104q45 -32 116 -32q69 0 115 33q52 37 52 103h162zM733 1833h-129l-198 216h223z" />
    <glyph glyph-name="glyph602" horiz-adv-x="1302" 
d="M981 1848q0 -115 -112 -183q-94 -57 -217 -57q-122 0 -217 57q-113 68 -113 183h162q0 -68 52 -104q45 -32 116 -32q69 0 115 33q52 37 52 103h162zM773 1945q0 -84 -92 -114v-47h-77v84q66 17 66 63q0 45 -49 45q-29 0 -65 -13h-2v73q36 13 91 13q51 0 88 -26
q40 -29 40 -78z" />
    <glyph glyph-name="glyph603" horiz-adv-x="1302" 
d="M981 1798q0 -104 -121 -154q-87 -36 -208 -36q-123 0 -210 35q-120 50 -120 155h162q0 -86 168 -86q167 0 167 86h162zM981 2049q-11 -82 -65 -134q-57 -55 -138 -55q-58 0 -138 38q-83 39 -109 39q-65 0 -75 -77h-134q10 81 66.5 135t136.5 54q57 0 138 -38.5t109 -38.5
q66 0 75 77h134z" />
    <glyph glyph-name="glyph604" horiz-adv-x="1302" 
d="M993 1640h-159l-185 206l-184 -206h-155l228 329h227zM1296 1901q0 -121 -132 -163v-68h-110v121q95 24 95 90q0 63 -71 63q-44 0 -92 -18h-3v105q57 18 130 18q72 0 124 -37q59 -41 59 -111z" />
    <glyph glyph-name="glyph649" 
 />
    <glyph glyph-name="glyph650" 
 />
    <glyph glyph-name="glyph651" 
 />
    <glyph glyph-name="glyph652" 
 />
    <glyph glyph-name="sheva" unicode="&#x5b0;" 
 />
    <glyph glyph-name="hatafsegol" unicode="&#x5b1;" 
 />
    <glyph glyph-name="hatafpatah" unicode="&#x5b2;" 
 />
    <glyph glyph-name="hatafqamats" unicode="&#x5b3;" 
 />
    <glyph glyph-name="hiriq" unicode="&#x5b4;" 
 />
    <glyph glyph-name="tsere" unicode="&#x5b5;" 
 />
    <glyph glyph-name="segol" unicode="&#x5b6;" 
 />
    <glyph glyph-name="patah" unicode="&#x5b7;" 
 />
    <glyph glyph-name="qamats" unicode="&#x5b8;" 
 />
    <glyph glyph-name="holam" unicode="&#x5b9;" 
 />
    <glyph glyph-name="qubuts" 
 />
    <glyph glyph-name="dagesh" unicode="&#x5bc;" 
 />
    <glyph glyph-name="meteg" unicode="&#x5bd;" 
 />
    <glyph glyph-name="maqaf" unicode="&#x5be;" 
 />
    <glyph glyph-name="rafe" unicode="&#x5bf;" 
 />
    <glyph glyph-name="paseq" unicode="&#x5c0;" 
 />
    <glyph glyph-name="shindot" unicode="&#x5c1;" 
 />
    <glyph glyph-name="sindot" unicode="&#x5c2;" 
 />
    <glyph glyph-name="sofpasuq" unicode="&#x5c3;" 
 />
    <glyph glyph-name="alef" unicode="&#x5d0;" 
 />
    <glyph glyph-name="bet" unicode="&#x5d1;" 
 />
    <glyph glyph-name="gimel" unicode="&#x5d2;" 
 />
    <glyph glyph-name="dalet" unicode="&#x5d3;" 
 />
    <glyph glyph-name="he" unicode="&#x5d4;" 
 />
    <glyph glyph-name="vav" unicode="&#x5d5;" 
 />
    <glyph glyph-name="zayin" unicode="&#x5d6;" 
 />
    <glyph glyph-name="het" unicode="&#x5d7;" 
 />
    <glyph glyph-name="tet" unicode="&#x5d8;" 
 />
    <glyph glyph-name="yod" unicode="&#x5d9;" 
 />
    <glyph glyph-name="finalkaf" 
 />
    <glyph glyph-name="kaf" unicode="&#x5db;" 
 />
    <glyph glyph-name="lamed" unicode="&#x5dc;" 
 />
    <glyph glyph-name="finalmem" 
 />
    <glyph glyph-name="mem" unicode="&#x5de;" 
 />
    <glyph glyph-name="finalnun" 
 />
    <glyph glyph-name="nun" unicode="&#x5e0;" 
 />
    <glyph glyph-name="samekh" unicode="&#x5e1;" 
 />
    <glyph glyph-name="ayin" unicode="&#x5e2;" 
 />
    <glyph glyph-name="finalpe" 
 />
    <glyph glyph-name="pe" unicode="&#x5e4;" 
 />
    <glyph glyph-name="finaltsadi" 
 />
    <glyph glyph-name="tsadi" unicode="&#x5e6;" 
 />
    <glyph glyph-name="qof" unicode="&#x5e7;" 
 />
    <glyph glyph-name="resh" unicode="&#x5e8;" 
 />
    <glyph glyph-name="shin" unicode="&#x5e9;" 
 />
    <glyph glyph-name="tav" unicode="&#x5ea;" 
 />
    <glyph glyph-name="doublevav" 
 />
    <glyph glyph-name="vavyod" unicode="&#x5f1;" 
 />
    <glyph glyph-name="doubleyod" 
 />
    <glyph glyph-name="geresh" unicode="&#x5f3;" 
 />
    <glyph glyph-name="gershayim" unicode="&#x5f4;" 
 />
    <glyph glyph-name="newsheqelsign" 
 />
    <glyph glyph-name="vavshindot" 
 />
    <glyph glyph-name="finalkafsheva" 
 />
    <glyph glyph-name="finalkafqamats" 
 />
    <glyph glyph-name="lamedholam" 
 />
    <glyph glyph-name="lamedholamdagesh" 
 />
    <glyph glyph-name="altayin" 
 />
    <glyph glyph-name="shinshindot" 
 />
    <glyph glyph-name="shinsindot" 
 />
    <glyph glyph-name="shindageshshindot" 
 />
    <glyph glyph-name="shindageshsindot" 
 />
    <glyph glyph-name="alefpatah" 
 />
    <glyph glyph-name="alefqamats" 
 />
    <glyph glyph-name="alefmapiq" 
 />
    <glyph glyph-name="betdagesh" 
 />
    <glyph glyph-name="gimeldagesh" 
 />
    <glyph glyph-name="daletdagesh" 
 />
    <glyph glyph-name="hedagesh" 
 />
    <glyph glyph-name="vavdagesh" 
 />
    <glyph glyph-name="zayindagesh" 
 />
    <glyph glyph-name="tetdagesh" 
 />
    <glyph glyph-name="yoddagesh" 
 />
    <glyph glyph-name="finalkafdagesh" 
 />
    <glyph glyph-name="kafdagesh" 
 />
    <glyph glyph-name="lameddagesh" 
 />
    <glyph glyph-name="memdagesh" 
 />
    <glyph glyph-name="nundagesh" 
 />
    <glyph glyph-name="samekhdagesh" 
 />
    <glyph glyph-name="finalpedagesh" 
 />
    <glyph glyph-name="pedagesh" 
 />
    <glyph glyph-name="tsadidagesh" 
 />
    <glyph glyph-name="qofdagesh" 
 />
    <glyph glyph-name="reshdagesh" 
 />
    <glyph glyph-name="shindagesh" 
 />
    <glyph glyph-name="tavdages" 
 />
    <glyph glyph-name="vavholam" 
 />
    <glyph glyph-name="betrafe" 
 />
    <glyph glyph-name="kafrafe" 
 />
    <glyph glyph-name="perafe" 
 />
    <glyph glyph-name="aleflamed" 
 />
    <glyph glyph-name="zerowidthnonjoiner" 
 />
    <glyph glyph-name="zerowidthjoiner" 
 />
    <glyph glyph-name="lefttorightmark" 
 />
    <glyph glyph-name="righttoleftmark" 
 />
    <glyph glyph-name="afii57388" 
 />
    <glyph glyph-name="afii57403" 
 />
    <glyph glyph-name="afii57407" 
 />
    <glyph glyph-name="afii57409" 
 />
    <glyph glyph-name="afii57440" 
 />
    <glyph glyph-name="afii57451" 
 />
    <glyph glyph-name="afii57452" 
 />
    <glyph glyph-name="afii57453" 
 />
    <glyph glyph-name="afii57454" 
 />
    <glyph glyph-name="afii57455" 
 />
    <glyph glyph-name="afii57456" 
 />
    <glyph glyph-name="afii57457" 
 />
    <glyph glyph-name="afii57458" 
 />
    <glyph glyph-name="afii57392" 
 />
    <glyph glyph-name="afii57393" 
 />
    <glyph glyph-name="afii57394" 
 />
    <glyph glyph-name="afii57395" 
 />
    <glyph glyph-name="afii57396" 
 />
    <glyph glyph-name="afii57397" 
 />
    <glyph glyph-name="afii57398" 
 />
    <glyph glyph-name="afii57399" 
 />
    <glyph glyph-name="afii57400" 
 />
    <glyph glyph-name="afii57401" 
 />
    <glyph glyph-name="afii57381" 
 />
    <glyph glyph-name="afii57461" 
 />
    <glyph glyph-name="afii63167" 
 />
    <glyph glyph-name="afii57459" 
 />
    <glyph glyph-name="afii57543" 
 />
    <glyph glyph-name="afii57534" 
 />
    <glyph glyph-name="afii57494" 
 />
    <glyph glyph-name="afii62843" 
 />
    <glyph glyph-name="afii62844" 
 />
    <glyph glyph-name="afii62845" 
 />
    <glyph glyph-name="afii64240" 
 />
    <glyph glyph-name="afii64241" 
 />
    <glyph glyph-name="afii63954" 
 />
    <glyph glyph-name="afii57382" 
 />
    <glyph glyph-name="afii64242" 
 />
    <glyph glyph-name="afii62881" 
 />
    <glyph glyph-name="afii57504" 
 />
    <glyph glyph-name="afii57369" 
 />
    <glyph glyph-name="afii57370" 
 />
    <glyph glyph-name="afii57371" 
 />
    <glyph glyph-name="afii57372" 
 />
    <glyph glyph-name="afii57373" 
 />
    <glyph glyph-name="afii57374" 
 />
    <glyph glyph-name="afii57375" 
 />
    <glyph glyph-name="afii57391" 
 />
    <glyph glyph-name="afii57471" 
 />
    <glyph glyph-name="afii57460" 
 />
    <glyph glyph-name="afii52258" 
 />
    <glyph glyph-name="afii57506" 
 />
    <glyph glyph-name="afii62958" 
 />
    <glyph glyph-name="afii62956" 
 />
    <glyph glyph-name="afii52957" 
 />
    <glyph glyph-name="afii57505" 
 />
    <glyph glyph-name="afii62889" 
 />
    <glyph glyph-name="afii62887" 
 />
    <glyph glyph-name="afii62888" 
 />
    <glyph glyph-name="afii57507" 
 />
    <glyph glyph-name="afii62961" 
 />
    <glyph glyph-name="afii62959" 
 />
    <glyph glyph-name="afii62960" 
 />
    <glyph glyph-name="afii57508" 
 />
    <glyph glyph-name="afii62962" 
 />
    <glyph glyph-name="afii57567" 
 />
    <glyph glyph-name="afii62964" 
 />
    <glyph glyph-name="afii52305" 
 />
    <glyph glyph-name="afii52306" 
 />
    <glyph glyph-name="afii57509" 
 />
    <glyph glyph-name="afii62967" 
 />
    <glyph glyph-name="afii62965" 
 />
    <glyph glyph-name="afii62966" 
 />
    <glyph glyph-name="afii57555" 
 />
    <glyph glyph-name="afii52364" 
 />
    <glyph glyph-name="afii63753" 
 />
    <glyph glyph-name="afii63754" 
 />
    <glyph glyph-name="afii63759" 
 />
    <glyph glyph-name="afii63763" 
 />
    <glyph glyph-name="afii63795" 
 />
    <glyph glyph-name="afii62891" 
 />
    <glyph glyph-name="afii63808" 
 />
    <glyph glyph-name="afii62938" 
 />
    <glyph glyph-name="afii63810" 
 />
    <glyph glyph-name="afii62942" 
 />
    <glyph glyph-name="afii62947" 
 />
    <glyph glyph-name="afii63813" 
 />
    <glyph glyph-name="afii63823" 
 />
    <glyph glyph-name="afii63824" 
 />
    <glyph glyph-name="afii63833" 
 />
    <glyph glyph-name="afii63844" 
 />
    <glyph glyph-name="afii62882" 
 />
    <glyph glyph-name="afii62883" 
 />
    <glyph glyph-name="afii62884" 
 />
    <glyph glyph-name="afii62885" 
 />
    <glyph glyph-name="afii62886" 
 />
    <glyph glyph-name="Odotbelow" unicode="&#x1ecc;" horiz-adv-x="1612" 
d="M1450 1073q48 -145 48 -329q0 -366 -187 -570.5t-505 -204.5q-319 0 -505 204.5t-186 570.5q0 364 188 574q181 202 503 202q160 0 288 -52q259 -107 356 -395zM1292 744q0 261 -109 420q-127 185 -376 185q-250 0 -377 -184q-109 -159 -109 -421q0 -261 110 -420
q127 -184 376 -184t375 184q110 159 110 420zM912 -382h-212v195h212v-195z" />
    <glyph glyph-name="odotbelow" unicode="&#x1ecd;" horiz-adv-x="1243" 
d="M1137 558q0 -257 -127 -416q-138 -173 -388 -173q-251 0 -389 173q-127 158 -127 416t127 417q138 173 389 173q250 0 388 -174q127 -159 127 -416zM943 558q0 428 -321 428q-322 0 -322 -428q0 -184 68 -293q82 -134 254 -134t254 134q67 110 67 293zM727 -382h-212v195
h212v-195z" />
    <glyph glyph-name="Ohookabove" unicode="&#x1ece;" horiz-adv-x="1612" 
d="M1450 1073q48 -145 48 -329q0 -366 -187 -570.5t-505 -204.5q-319 0 -505 204.5t-186 570.5q0 364 188 574q181 202 503 202q160 0 288 -52q259 -107 356 -395zM1292 744q0 261 -109 420q-127 185 -376 185q-250 0 -377 -184q-109 -159 -109 -421q0 -261 110 -420
q127 -184 376 -184t375 184q110 159 110 420zM984 1901q0 -121 -132 -163v-68h-110v121q95 24 95 90q0 63 -71 63q-44 0 -92 -18h-3v105q57 18 130 18q72 0 124 -37q59 -41 59 -111z" />
    <glyph glyph-name="ohookabove" unicode="&#x1ecf;" horiz-adv-x="1243" 
d="M1137 558q0 -257 -127 -416q-138 -173 -388 -173q-251 0 -389 173q-127 158 -127 416t127 417q138 173 389 173q250 0 388 -174q127 -159 127 -416zM943 558q0 428 -321 428q-322 0 -322 -428q0 -184 68 -293q82 -134 254 -134t254 134q67 110 67 293zM804 1528
q0 -121 -132 -163v-68h-110v121q95 24 95 90q0 63 -71 63q-44 0 -92 -18h-3v105q57 18 130 18q72 0 124 -37q59 -41 59 -111z" />
    <glyph glyph-name="Ocircumflexacute" unicode="&#x1ed0;" horiz-adv-x="1612" 
d="M1450 1073q48 -145 48 -329q0 -366 -187 -570.5t-505 -204.5q-319 0 -505 204.5t-186 570.5q0 364 188 574q181 202 503 202q160 0 288 -52q259 -107 356 -395zM1292 744q0 261 -109 420q-127 185 -376 185q-250 0 -377 -184q-109 -159 -109 -421q0 -261 110 -420
q127 -184 376 -184t375 184q110 159 110 420zM1143 1670h-159l-185 256l-184 -256h-155l228 379h227zM1450 2049l-218 -266h-129l124 266h223z" />
    <glyph glyph-name="ocircumflexacute" unicode="&#x1ed1;" horiz-adv-x="1243" 
d="M1137 558q0 -257 -127 -416q-138 -173 -388 -173q-251 0 -389 173q-127 158 -127 416t127 417q138 173 389 173q250 0 388 -174q127 -159 127 -416zM943 558q0 428 -321 428q-322 0 -322 -428q0 -184 68 -293q82 -134 254 -134t254 134q67 110 67 293zM963 1297h-159
l-185 256l-184 -256h-155l228 379h227zM1270 1676l-218 -266h-129l124 266h223z" />
    <glyph glyph-name="Ocircumflexgrave" unicode="&#x1ed2;" horiz-adv-x="1612" 
d="M1450 1073q48 -145 48 -329q0 -366 -187 -570.5t-505 -204.5q-319 0 -505 204.5t-186 570.5q0 364 188 574q181 202 503 202q160 0 288 -52q259 -107 356 -395zM1292 744q0 261 -109 420q-127 185 -376 185q-250 0 -377 -184q-109 -159 -109 -421q0 -261 110 -420
q127 -184 376 -184t375 184q110 159 110 420zM1143 1670h-159l-185 256l-184 -256h-155l228 379h227zM500 1783h-129l-218 266h223z" />
    <glyph glyph-name="ocircumflexgrave" unicode="&#x1ed3;" horiz-adv-x="1243" 
d="M1137 558q0 -257 -127 -416q-138 -173 -388 -173q-251 0 -389 173q-127 158 -127 416t127 417q138 173 389 173q250 0 388 -174q127 -159 127 -416zM943 558q0 428 -321 428q-322 0 -322 -428q0 -184 68 -293q82 -134 254 -134t254 134q67 110 67 293zM963 1297h-159
l-185 256l-184 -256h-155l228 379h227zM320 1410h-129l-218 266h223z" />
    <glyph glyph-name="Ocircumflexhookabove" unicode="&#x1ed4;" horiz-adv-x="1612" 
d="M1450 1073q48 -145 48 -329q0 -366 -187 -570.5t-505 -204.5q-319 0 -505 204.5t-186 570.5q0 364 188 574q181 202 503 202q160 0 288 -52q259 -107 356 -395zM1292 744q0 261 -109 420q-127 185 -376 185q-250 0 -377 -184q-109 -159 -109 -421q0 -261 110 -420
q127 -184 376 -184t375 184q110 159 110 420zM1143 1640h-159l-185 206l-184 -206h-155l228 329h227zM1446 1901q0 -121 -132 -163v-68h-110v121q95 24 95 90q0 63 -71 63q-44 0 -92 -18h-3v105q57 18 130 18q72 0 124 -37q59 -41 59 -111z" />
    <glyph glyph-name="ocircumflexhookabove" unicode="&#x1ed5;" horiz-adv-x="1243" 
d="M1137 558q0 -257 -127 -416q-138 -173 -388 -173q-251 0 -389 173q-127 158 -127 416t127 417q138 173 389 173q250 0 388 -174q127 -159 127 -416zM943 558q0 428 -321 428q-322 0 -322 -428q0 -184 68 -293q82 -134 254 -134t254 134q67 110 67 293zM963 1297h-159
l-185 256l-184 -256h-155l228 379h227zM1186 1726q0 -121 -132 -163v-68h-110v121q95 24 95 90q0 63 -71 63q-44 0 -92 -18h-3v105q57 18 130 18q72 0 124 -37q59 -41 59 -111z" />
    <glyph glyph-name="Ocircumflextilde" unicode="&#x1ed6;" horiz-adv-x="1612" 
d="M1450 1073q48 -145 48 -329q0 -366 -187 -570.5t-505 -204.5q-319 0 -505 204.5t-186 570.5q0 364 188 574q181 202 503 202q160 0 288 -52q259 -107 356 -395zM1292 744q0 261 -109 420q-127 185 -376 185q-250 0 -377 -184q-109 -159 -109 -421q0 -261 110 -420
q127 -184 376 -184t375 184q110 159 110 420zM1143 1620h-169l-175 89l-174 -89h-165l248 173h187zM1131 2049q-11 -82 -65 -134q-57 -55 -138 -55q-58 0 -138 38q-83 39 -109 39q-65 0 -75 -77h-134q10 81 66.5 135t136.5 54q57 0 138 -38.5t109 -38.5q66 0 75 77h134z" />
    <glyph glyph-name="ocircumflextilde" unicode="&#x1ed7;" horiz-adv-x="1243" 
d="M1137 558q0 -257 -127 -416q-138 -173 -388 -173q-251 0 -389 173q-127 158 -127 416t127 417q138 173 389 173q250 0 388 -174q127 -159 127 -416zM943 558q0 428 -321 428q-322 0 -322 -428q0 -184 68 -293q82 -134 254 -134t254 134q67 110 67 293zM963 1297h-159
l-185 256l-184 -256h-155l228 379h227zM981 2014q-5 -117 -60 -193q-64 -88 -175 -88q-81 0 -154.5 66.5t-106.5 66.5q-73 0 -82 -133h-140q4 117 60 193q64 88 175 88q81 0 154.5 -66.5t106.5 -66.5q75 0 82 133h140z" />
    <glyph glyph-name="Ocircumflexdotbelow" unicode="&#x1ed8;" horiz-adv-x="1612" 
d="M1450 1073q48 -145 48 -329q0 -366 -187 -570.5t-505 -204.5q-319 0 -505 204.5t-186 570.5q0 364 188 574q181 202 503 202q160 0 288 -52q259 -107 356 -395zM1292 744q0 261 -109 420q-127 185 -376 185q-250 0 -377 -184q-109 -159 -109 -421q0 -261 110 -420
q127 -184 376 -184t375 184q110 159 110 420zM1143 1670h-159l-185 256l-184 -256h-155l228 379h227zM907 -382h-212v195h212v-195z" />
    <glyph glyph-name="ocircumflexdotbelow" unicode="&#x1ed9;" horiz-adv-x="1243" 
d="M1137 558q0 -257 -127 -416q-138 -173 -388 -173q-251 0 -389 173q-127 158 -127 416t127 417q138 173 389 173q250 0 388 -174q127 -159 127 -416zM943 558q0 428 -321 428q-322 0 -322 -428q0 -184 68 -293q82 -134 254 -134t254 134q67 110 67 293zM963 1297h-159
l-185 256l-184 -256h-155l228 379h227zM727 -382h-212v195h212v-195z" />
    <glyph glyph-name="Ohornacute" unicode="&#x1eda;" horiz-adv-x="1652" 
d="M1083 2049l-273 -374h-149l179 374h243z" />
    <glyph glyph-name="ohornacute" unicode="&#x1edb;" horiz-adv-x="1243" 
d="M933 1676l-273 -374h-149l179 374h243z" />
    <glyph glyph-name="Ohorngrave" unicode="&#x1edc;" horiz-adv-x="1652" 
d="M932 1675h-149l-273 374h243z" />
    <glyph glyph-name="ohorngrave" unicode="&#x1edd;" horiz-adv-x="1243" 
d="M732 1302h-149l-273 374h243z" />
    <glyph glyph-name="Ohornhookabove" unicode="&#x1ede;" horiz-adv-x="1652" 
d="M977 1901q0 -121 -132 -163v-68h-110v121q95 24 95 90q0 63 -71 63q-44 0 -92 -18h-3v105q57 18 130 18q72 0 124 -37q59 -41 59 -111z" />
    <glyph glyph-name="ohornhookabove" unicode="&#x1edf;" horiz-adv-x="1243" 
d="M804 1528q0 -121 -132 -163v-68h-110v121q95 24 95 90q0 63 -71 63q-44 0 -92 -18h-3v105q57 18 130 18q72 0 124 -37q59 -41 59 -111z" />
    <glyph glyph-name="Ohorntilde" unicode="&#x1ee0;" horiz-adv-x="1652" 
d="M1207 1992q-22 -306 -254 -306q-103 0 -187 76q-95 86 -151 86q-99 0 -108 -166h-131q7 128 64 210q68 95 189 95q98 0 185 -75q95 -82 153 -82q104 0 111 162h129z" />
    <glyph glyph-name="ohorntilde" unicode="&#x1ee1;" horiz-adv-x="1243" 
d="M1008 1619q-22 -306 -254 -306q-103 0 -187 76q-95 86 -151 86q-99 0 -108 -166h-131q7 128 64 210q68 95 189 95q98 0 185 -75q95 -82 153 -82q104 0 111 162h129z" />
    <glyph glyph-name="Ohorndotbelow" unicode="&#x1ee2;" horiz-adv-x="1652" 
d="M911 -382h-212v195h212v-195z" />
    <glyph glyph-name="ohorndotbelow" unicode="&#x1ee3;" horiz-adv-x="1243" 
d="M727 -382h-212v195h212v-195z" />
    <glyph glyph-name="Udotbelow" unicode="&#x1ee4;" horiz-adv-x="1499" 
d="M1321 598q0 -333 -152 -483q-148 -146 -420 -146q-275 0 -419 146q-152 154 -152 483v891h198v-901q0 -212 72 -318q89 -131 301 -131q213 0 302 131q72 105 72 313v906h198v-891zM855 -382h-212v195h212v-195z" />
    <glyph glyph-name="udotbelow" unicode="&#x1ee5;" horiz-adv-x="1296" 
d="M1111 0h-188v124q-196 -155 -374 -155q-189 0 -285 120q-87 109 -87 303v725h188v-636q0 -180 42 -249q51 -84 195 -84q149 0 321 135v834h188v-1117zM754 -382h-212v195h212v-195z" />
    <glyph glyph-name="Uhookabove" unicode="&#x1ee6;" horiz-adv-x="1499" 
d="M1321 598q0 -333 -152 -483q-148 -146 -420 -146q-275 0 -419 146q-152 154 -152 483v891h198v-901q0 -212 72 -318q89 -131 301 -131q213 0 302 131q72 105 72 313v906h198v-891zM932 1901q0 -121 -132 -163v-68h-110v121q95 24 95 90q0 63 -71 63q-44 0 -92 -18h-3v105
q57 18 130 18q72 0 124 -37q59 -41 59 -111z" />
    <glyph glyph-name="uhookabove" unicode="&#x1ee7;" horiz-adv-x="1296" 
d="M1111 0h-188v124q-196 -155 -374 -155q-189 0 -285 120q-87 109 -87 303v725h188v-636q0 -180 42 -249q51 -84 195 -84q149 0 321 135v834h188v-1117zM831 1528q0 -121 -132 -163v-68h-110v121q95 24 95 90q0 63 -71 63q-44 0 -92 -18h-3v105q57 18 130 18q72 0 124 -37
q59 -41 59 -111z" />
    <glyph glyph-name="Uhornacute" unicode="&#x1ee8;" horiz-adv-x="1549" 
d="M1087 2049l-273 -374h-149l179 374h243z" />
    <glyph glyph-name="uhornacute" unicode="&#x1ee9;" horiz-adv-x="1351" 
d="M945 1676l-273 -374h-149l179 374h243z" />
    <glyph glyph-name="Uhorngrave" unicode="&#x1eea;" horiz-adv-x="1549" 
d="M932 1675h-149l-273 374h243z" />
    <glyph glyph-name="uhorngrave" unicode="&#x1eeb;" horiz-adv-x="1351" 
d="M764 1302h-149l-273 374h243z" />
    <glyph glyph-name="Uhornhookabove" unicode="&#x1eec;" horiz-adv-x="1549" 
d="M932 1901q0 -121 -132 -163v-68h-110v121q95 24 95 90q0 63 -71 63q-44 0 -92 -18h-3v105q57 18 130 18q72 0 124 -37q59 -41 59 -111z" />
    <glyph glyph-name="uhornhookabove" unicode="&#x1eed;" horiz-adv-x="1351" 
d="M831 1528q0 -121 -132 -163v-68h-110v121q95 24 95 90q0 63 -71 63q-44 0 -92 -18h-3v105q57 18 130 18q72 0 124 -37q59 -41 59 -111z" />
    <glyph glyph-name="Uhorntilde" unicode="&#x1eee;" horiz-adv-x="1549" 
d="M1166 1982q-22 -306 -254 -306q-103 0 -187 76q-95 86 -151 86q-99 0 -108 -166h-131q7 128 64 210q68 95 189 95q98 0 185 -75q95 -82 153 -82q104 0 111 162h129z" />
    <glyph glyph-name="uhorntilde" unicode="&#x1eef;" horiz-adv-x="1351" 
d="M1065 1619q-22 -306 -254 -306q-103 0 -187 76q-95 86 -151 86q-99 0 -108 -166h-131q7 128 64 210q68 95 189 95q98 0 185 -75q95 -82 153 -82q104 0 111 162h129z" />
    <glyph glyph-name="Uhorndotbelow" unicode="&#x1ef0;" horiz-adv-x="1549" 
d="M855 -382h-212v195h212v-195z" />
    <glyph glyph-name="uhorndotbelow" unicode="&#x1ef1;" horiz-adv-x="1351" 
d="M754 -382h-212v195h212v-195z" />
    <glyph glyph-name="glyph882" horiz-adv-x="1260" 
d="M1254 1489l-524 -836v-653h-198v632l-526 857h219l407 -666l411 666h211zM734 1675h-149l-273 374h243z" />
    <glyph glyph-name="glyph883" horiz-adv-x="1212" 
d="M1151 1117l-652 -1529h-201l208 466l-445 1063h204l343 -828l346 828h197zM727 1302h-149l-273 374h243z" />
    <glyph glyph-name="Ydotbelow" unicode="&#x1ef4;" horiz-adv-x="1260" 
d="M1254 1489l-524 -836v-653h-198v632l-526 857h219l407 -666l411 666h211zM737 -382h-212v195h212v-195z" />
    <glyph glyph-name="ydotbelow" unicode="&#x1ef5;" horiz-adv-x="1212" 
d="M1151 1117l-652 -1529h-201l208 466l-445 1063h204l343 -828l346 828h197zM1017 -382h-212v195h212v-195z" />
    <glyph glyph-name="Yhookabove" unicode="&#x1ef6;" horiz-adv-x="1260" 
d="M1254 1489l-524 -836v-653h-198v632l-526 857h219l407 -666l411 666h211zM814 1901q0 -121 -132 -163v-68h-110v121q95 24 95 90q0 63 -71 63q-44 0 -92 -18h-3v105q57 18 130 18q72 0 124 -37q59 -41 59 -111z" />
    <glyph glyph-name="yhookabove" unicode="&#x1ef7;" horiz-adv-x="1212" 
d="M1151 1117l-652 -1529h-201l208 466l-445 1063h204l343 -828l346 828h197zM779 1528q0 -121 -132 -163v-68h-110v121q95 24 95 90q0 63 -71 63q-44 0 -92 -18h-3v105q57 18 130 18q72 0 124 -37q59 -41 59 -111z" />
    <glyph glyph-name="Ytilde" unicode="&#x1ef8;" horiz-adv-x="1260" 
d="M1254 1489l-524 -836v-653h-198v632l-526 857h219l407 -666l411 666h211zM1048 1992q-22 -306 -254 -306q-103 0 -187 76q-95 86 -151 86q-99 0 -108 -166h-131q7 128 64 210q68 95 189 95q98 0 185 -75q95 -82 153 -82q104 0 111 162h129z" />
    <glyph glyph-name="ytilde" unicode="&#x1ef9;" horiz-adv-x="1212" 
d="M1151 1117l-652 -1529h-201l208 466l-445 1063h204l343 -828l346 828h197zM1033 1619q-22 -306 -254 -306q-103 0 -187 76q-95 86 -151 86q-99 0 -108 -166h-131q7 128 64 210q68 95 189 95q98 0 185 -75q95 -82 153 -82q104 0 111 162h129z" />
    <glyph glyph-name="dong" unicode="&#x20ab;" horiz-adv-x="1276" 
d="M1275 1268h-184v-1268h-188v117q-173 -148 -360 -148q-225 0 -339 183q-96 153 -96 392q0 269 150 438q138 155 346 155q153 0 299 -75v206h-363v134h363v154h188v-154h184v-134zM903 275v633q-135 58 -267 58q-174 0 -260 -127q-74 -109 -74 -291q0 -400 286 -400
q154 0 315 127zM1066 -323h-844v134h844v-134z" />
    <glyph glyph-name="tildecomb" unicode="&#x303;" 
d="M1068 1619q-22 -306 -254 -306q-103 0 -187 76q-95 86 -151 86q-99 0 -108 -166h-131q7 128 64 210q68 95 189 95q98 0 185 -75q95 -82 153 -82q104 0 111 162h129z" />
    <glyph glyph-name="currency" unicode="&#xa4;" horiz-adv-x="1302" 
d="M1168 257l-110 -110l-236 234q-81 -48 -170 -48q-94 0 -169 48l-236 -236l-109 113l233 234q-47 76 -47 169q0 89 48 168l-234 237l111 110l235 -235q75 48 168 48t169 -47l234 234l113 -109l-235 -237q48 -76 48 -169q0 -94 -48 -169zM832 661q0 75 -53 130t-127 55
t-127 -55t-53 -130t52.5 -130t127.5 -55t127.5 55t52.5 130z" />
    </font>
</defs>
</svg>
